<svg width="24" height="24" viewBox="0 0 24 24" fill="none" xmlns="http://www.w3.org/2000/svg">
<g clip-path="url(#clip0_324_4788)">
<path d="M9.68598 11.1954C9.68598 11.1954 11.9569 11.0268 11.9569 8.36307C11.9569 5.69958 10.0988 4.40015 7.74497 4.40015H3.41254H3.28528H0V19.2843H3.28528H3.41254H7.74497C7.74497 19.2843 12.473 19.4339 12.473 14.8913C12.4732 14.8913 12.6794 11.1954 9.68598 11.1954ZM3.41254 7.04585H7.18757H7.74522C7.74522 7.04585 8.79815 7.04585 8.79815 8.5943C8.79815 10.1427 8.17862 10.3672 7.47667 10.3672H3.41254V7.04585ZM7.54531 16.6394H3.41254V12.6614H7.74497C7.74497 12.6614 9.31421 12.6414 9.31421 14.7057C9.31421 16.427 8.16659 16.6221 7.54531 16.6394Z" fill="#9CA3AF"/>
<path d="M15.5771 5.27686H21.7183V7.10989H15.5771V5.27686Z" fill="#9CA3AF"/>
<path d="M18.779 8.1875C13.0552 8.1875 13.0602 13.9058 13.0602 13.9058C13.0602 13.9058 12.6679 19.5958 18.7792 19.5958C18.7792 19.5958 23.8725 19.8869 23.8725 15.6374H21.2531C21.2531 15.6374 21.3405 17.2384 18.8667 17.2384C18.8667 17.2384 16.2475 17.4135 16.2475 14.6481H23.9597C23.9597 14.6481 24.8034 8.1875 18.779 8.1875ZM21.1073 12.6615H16.218C16.218 12.6615 16.5379 10.3672 18.8371 10.3672C21.1366 10.367 21.1073 12.6615 21.1073 12.6615Z" fill="#9CA3AF"/>
</g>
<defs>
<clipPath id="clip0_324_4788">
<rect width="24" height="24" fill="white"/>
</clipPath>
</defs>
</svg>
