<svg width="140" height="140" viewBox="0 0 140 140" fill="none" xmlns="http://www.w3.org/2000/svg">
<g opacity="0.3">
<path d="M137.667 126H133V42H135.333C135.952 42 136.546 41.7542 136.983 41.3166C137.421 40.879 137.667 40.2855 137.667 39.6667V30.3333C137.667 29.7145 137.421 29.121 136.983 28.6834C136.546 28.2458 135.952 28 135.333 28H105V14H109.667C110.285 14 110.879 13.7542 111.317 13.3166C111.754 12.879 112 12.2855 112 11.6667V2.33333C112 1.71449 111.754 1.121 111.317 0.683417C110.879 0.245833 110.285 0 109.667 0H30.3333C29.7145 0 29.121 0.245833 28.6834 0.683417C28.2458 1.121 28 1.71449 28 2.33333V11.6667C28 12.2855 28.2458 12.879 28.6834 13.3166C29.121 13.7542 29.7145 14 30.3333 14H35V28H4.66667C4.04783 28 3.45434 28.2458 3.01675 28.6834C2.57917 29.121 2.33333 29.7145 2.33333 30.3333V39.6667C2.33333 40.2855 2.57917 40.879 3.01675 41.3166C3.45434 41.7542 4.04783 42 4.66667 42H7V126H2.33333C1.71449 126 1.121 126.246 0.683417 126.683C0.245833 127.121 0 127.714 0 128.333V137.667C0 138.286 0.245833 138.879 0.683417 139.317C1.121 139.754 1.71449 140 2.33333 140H137.667C138.286 140 138.879 139.754 139.317 139.317C139.754 138.879 140 138.286 140 137.667V128.333C140 127.714 139.754 127.121 139.317 126.683C138.879 126.246 138.286 126 137.667 126ZM133 32.6667V37.3333H105V32.6667H133ZM128.333 42V126H105V42H128.333ZM32.6667 9.33333V4.66667H107.333V9.33333H32.6667ZM88.6667 93.3333H51.3333C50.7145 93.3333 50.121 93.5792 49.6834 94.0167C49.2458 94.4543 49 95.0478 49 95.6667V126H39.6667V14H100.333V126H91V95.6667C91 95.0478 90.7542 94.4543 90.3166 94.0167C89.879 93.5792 89.2855 93.3333 88.6667 93.3333ZM86.3333 98V126H72.3333V98H86.3333ZM67.6667 98V126H53.6667V98H67.6667ZM7 32.6667H35V37.3333H7V32.6667ZM35 42V126H11.6667V42H35ZM135.333 135.333H4.66667V130.667H135.333V135.333Z" fill="#C0C2C7"/>
<path d="M46.6666 88.6667H56C56.6188 88.6667 57.2123 88.4208 57.6499 87.9832C58.0875 87.5457 58.3333 86.9522 58.3333 86.3333V77C58.3333 76.3812 58.0875 75.7877 57.6499 75.3501C57.2123 74.9125 56.6188 74.6667 56 74.6667H46.6666C46.0478 74.6667 45.4543 74.9125 45.0167 75.3501C44.5791 75.7877 44.3333 76.3812 44.3333 77V86.3333C44.3333 86.9522 44.5791 87.5457 45.0167 87.9832C45.4543 88.4208 46.0478 88.6667 46.6666 88.6667ZM49 79.3333H53.6666V84H49V79.3333Z" fill="#C0C2C7"/>
<path d="M74.6667 74.6667H65.3333C64.7145 74.6667 64.121 74.9125 63.6834 75.3501C63.2458 75.7877 63 76.3812 63 77V86.3333C63 86.9522 63.2458 87.5457 63.6834 87.9832C64.121 88.4208 64.7145 88.6667 65.3333 88.6667H74.6667C75.2855 88.6667 75.879 88.4208 76.3166 87.9832C76.7542 87.5457 77 86.9522 77 86.3333V77C77 76.3812 76.7542 75.7877 76.3166 75.3501C75.879 74.9125 75.2855 74.6667 74.6667 74.6667ZM72.3333 84H67.6667V79.3333H72.3333V84Z" fill="#C0C2C7"/>
<path d="M84 88.6667H93.3334C93.9522 88.6667 94.5457 88.4208 94.9833 87.9832C95.4209 87.5457 95.6667 86.9522 95.6667 86.3333V77C95.6667 76.3812 95.4209 75.7877 94.9833 75.3501C94.5457 74.9125 93.9522 74.6667 93.3334 74.6667H84C83.3812 74.6667 82.7877 74.9125 82.3501 75.3501C81.9125 75.7877 81.6667 76.3812 81.6667 77V86.3333C81.6667 86.9522 81.9125 87.5457 82.3501 87.9832C82.7877 88.4208 83.3812 88.6667 84 88.6667ZM86.3334 79.3333H91V84H86.3334V79.3333Z" fill="#C0C2C7"/>
<path d="M46.6666 70H56C56.6188 70 57.2123 69.7542 57.6499 69.3166C58.0875 68.879 58.3333 68.2855 58.3333 67.6667V58.3333C58.3333 57.7145 58.0875 57.121 57.6499 56.6834C57.2123 56.2458 56.6188 56 56 56H46.6666C46.0478 56 45.4543 56.2458 45.0167 56.6834C44.5791 57.121 44.3333 57.7145 44.3333 58.3333V67.6667C44.3333 68.2855 44.5791 68.879 45.0167 69.3166C45.4543 69.7542 46.0478 70 46.6666 70ZM49 60.6667H53.6666V65.3333H49V60.6667Z" fill="#C0C2C7"/>
<path d="M74.6667 56H65.3333C64.7145 56 64.121 56.2458 63.6834 56.6834C63.2458 57.121 63 57.7145 63 58.3333V67.6667C63 68.2855 63.2458 68.879 63.6834 69.3166C64.121 69.7542 64.7145 70 65.3333 70H74.6667C75.2855 70 75.879 69.7542 76.3166 69.3166C76.7542 68.879 77 68.2855 77 67.6667V58.3333C77 57.7145 76.7542 57.121 76.3166 56.6834C75.879 56.2458 75.2855 56 74.6667 56ZM72.3333 65.3333H67.6667V60.6667H72.3333V65.3333Z" fill="#C0C2C7"/>
<path d="M84 70H93.3334C93.9522 70 94.5457 69.7542 94.9833 69.3166C95.4209 68.879 95.6667 68.2855 95.6667 67.6667V58.3333C95.6667 57.7145 95.4209 57.121 94.9833 56.6834C94.5457 56.2458 93.9522 56 93.3334 56H84C83.3812 56 82.7877 56.2458 82.3501 56.6834C81.9125 57.121 81.6667 57.7145 81.6667 58.3333V67.6667C81.6667 68.2855 81.9125 68.879 82.3501 69.3166C82.7877 69.7542 83.3812 70 84 70ZM86.3334 60.6667H91V65.3333H86.3334V60.6667Z" fill="#C0C2C7"/>
<path d="M112 98H121.333C121.952 98 122.546 97.7542 122.983 97.3166C123.421 96.879 123.667 96.2855 123.667 95.6667V86.3333C123.667 85.7145 123.421 85.121 122.983 84.6834C122.546 84.2458 121.952 84 121.333 84H112C111.381 84 110.788 84.2458 110.35 84.6834C109.913 85.121 109.667 85.7145 109.667 86.3333V95.6667C109.667 96.2855 109.913 96.879 110.35 97.3166C110.788 97.7542 111.381 98 112 98ZM114.333 88.6667H119V93.3333H114.333V88.6667Z" fill="#C0C2C7"/>
<path d="M112 116.667H121.333C121.952 116.667 122.546 116.421 122.983 115.983C123.421 115.546 123.667 114.952 123.667 114.333V105C123.667 104.381 123.421 103.788 122.983 103.35C122.546 102.912 121.952 102.667 121.333 102.667H112C111.381 102.667 110.788 102.912 110.35 103.35C109.913 103.788 109.667 104.381 109.667 105V114.333C109.667 114.952 109.913 115.546 110.35 115.983C110.788 116.421 111.381 116.667 112 116.667ZM114.333 107.333H119V112H114.333V107.333Z" fill="#C0C2C7"/>
<path d="M28 84H18.6666C18.0478 84 17.4543 84.2458 17.0167 84.6834C16.5791 85.121 16.3333 85.7145 16.3333 86.3333V95.6667C16.3333 96.2855 16.5791 96.879 17.0167 97.3166C17.4543 97.7542 18.0478 98 18.6666 98H28C28.6188 98 29.2123 97.7542 29.6499 97.3166C30.0875 96.879 30.3333 96.2855 30.3333 95.6667V86.3333C30.3333 85.7145 30.0875 85.121 29.6499 84.6834C29.2123 84.2458 28.6188 84 28 84ZM25.6666 93.3333H21V88.6667H25.6666V93.3333Z" fill="#C0C2C7"/>
<path d="M28 102.667H18.6666C18.0478 102.667 17.4543 102.912 17.0167 103.35C16.5791 103.788 16.3333 104.381 16.3333 105V114.333C16.3333 114.952 16.5791 115.546 17.0167 115.983C17.4543 116.421 18.0478 116.667 18.6666 116.667H28C28.6188 116.667 29.2123 116.421 29.6499 115.983C30.0875 115.546 30.3333 114.952 30.3333 114.333V105C30.3333 104.381 30.0875 103.788 29.6499 103.35C29.2123 102.912 28.6188 102.667 28 102.667ZM25.6666 112H21V107.333H25.6666V112Z" fill="#C0C2C7"/>
<path d="M28 65.3333H18.6666C18.0478 65.3333 17.4543 65.5792 17.0167 66.0168C16.5791 66.4543 16.3333 67.0478 16.3333 67.6667V77C16.3333 77.6188 16.5791 78.2123 17.0167 78.6499C17.4543 79.0875 18.0478 79.3333 18.6666 79.3333H28C28.6188 79.3333 29.2123 79.0875 29.6499 78.6499C30.0875 78.2123 30.3333 77.6188 30.3333 77V67.6667C30.3333 67.0478 30.0875 66.4543 29.6499 66.0168C29.2123 65.5792 28.6188 65.3333 28 65.3333ZM25.6666 74.6667H21V70H25.6666V74.6667Z" fill="#C0C2C7"/>
<path d="M28 44.3333H18.6666C18.0478 44.3333 17.4543 44.5792 17.0167 45.0168C16.5791 45.4543 16.3333 46.0478 16.3333 46.6667V56C16.3333 56.6188 16.5791 57.2123 17.0167 57.6499C17.4543 58.0875 18.0478 58.3333 18.6666 58.3333H28C28.6188 58.3333 29.2123 58.0875 29.6499 57.6499C30.0875 57.2123 30.3333 56.6188 30.3333 56V46.6667C30.3333 46.0478 30.0875 45.4543 29.6499 45.0168C29.2123 44.5792 28.6188 44.3333 28 44.3333ZM25.6666 53.6667H21V49H25.6666V53.6667Z" fill="#C0C2C7"/>
<path d="M112 79.3333H121.333C121.952 79.3333 122.546 79.0875 122.983 78.6499C123.421 78.2123 123.667 77.6188 123.667 77V67.6667C123.667 67.0478 123.421 66.4543 122.983 66.0168C122.546 65.5792 121.952 65.3333 121.333 65.3333H112C111.381 65.3333 110.788 65.5792 110.35 66.0168C109.913 66.4543 109.667 67.0478 109.667 67.6667V77C109.667 77.6188 109.913 78.2123 110.35 78.6499C110.788 79.0875 111.381 79.3333 112 79.3333ZM114.333 70H119V74.6667H114.333V70Z" fill="#C0C2C7"/>
<path d="M112 60.6667H121.333C121.952 60.6667 122.546 60.4208 122.983 59.9833C123.421 59.5457 123.667 58.9522 123.667 58.3333V49C123.667 48.3812 123.421 47.7877 122.983 47.3501C122.546 46.9125 121.952 46.6667 121.333 46.6667H112C111.381 46.6667 110.788 46.9125 110.35 47.3501C109.913 47.7877 109.667 48.3812 109.667 49V58.3333C109.667 58.9522 109.913 59.5457 110.35 59.9833C110.788 60.4208 111.381 60.6667 112 60.6667ZM114.333 51.3333H119V56H114.333V51.3333Z" fill="#C0C2C7"/>
</g>
</svg>
