<svg width="36" height="45" viewBox="0 0 36 45" fill="none" xmlns="http://www.w3.org/2000/svg">
<path fill-rule="evenodd" clip-rule="evenodd" d="M23.866 32.0986V22.2602V20.6919V14.8117H22.2977V20.6919V22.2678V26.3235V32.0986C22.2977 34.9784 21.0688 37.5643 19.1013 39.3735C19.5987 39.6452 20.119 39.8637 20.6617 40.0372C21.2877 39.3887 21.8376 38.6649 22.2978 37.8809C23.293 36.1847 23.8661 34.2096 23.8661 32.0986H23.866ZM32.9878 26.3235V32.0986C32.9878 37.3006 28.9698 41.5599 23.866 41.9443C23.6171 41.9595 23.3682 41.9671 23.1193 41.9671C22.8404 41.9671 22.569 41.9595 22.2977 41.9371C21.2572 41.8541 20.262 41.6052 19.335 41.2208C18.7843 40.9944 18.2644 40.7154 17.7743 40.3988C15.0601 38.6501 13.2585 35.6041 13.2509 32.1439C13.2509 32.1287 13.2509 32.1135 13.2509 32.0986V32.0609V26.3235V22.2678V20.6919V14.8117V13.251H11.6826V14.8117V20.6919V22.2602V32.0986C11.6826 34.2096 12.2557 36.1847 13.2509 37.8809C14.0124 39.1775 15.0225 40.3161 16.2136 41.2207C16.7038 41.5899 17.224 41.9217 17.7743 42.2159C19.139 42.9397 20.6769 43.3918 22.2977 43.5049C22.569 43.5274 22.8404 43.535 23.1193 43.535C23.3682 43.535 23.6171 43.5274 23.866 43.5125C27.7558 43.256 31.1181 41.0624 32.9878 37.8809C33.983 36.1847 34.5485 34.2096 34.5485 32.0986V14.8117H32.9878V26.3235ZM14.5927 41.967C14.5173 41.9065 14.4496 41.8388 14.3742 41.7786C14.0047 41.854 13.6279 41.9065 13.2508 41.9369C12.9795 41.9593 12.7081 41.9669 12.4292 41.9669C12.1803 41.9669 11.9314 41.9593 11.6825 41.9441C6.594 41.5597 2.5832 37.3228 2.5607 32.1437C2.5607 32.1285 2.5607 32.1133 2.5607 32.0984C2.5607 32.0908 2.5607 32.0756 2.5607 32.0607V26.3233V2.568H11.6825V11.6826V13.2433H13.2508V11.6826V2.568V1H11.6825H2.5607H1V2.568V32.0984C1 34.2094 1.5655 36.1845 2.5607 37.8807C4.4301 41.0622 7.7927 43.2559 11.6825 43.5123C11.9314 43.5272 12.1803 43.5348 12.4292 43.5348C12.7081 43.5348 12.9795 43.5272 13.2508 43.5047C14.1782 43.4369 15.0828 43.2634 15.9346 42.9845C15.4749 42.6831 15.0376 42.3512 14.6231 41.9969C14.6155 41.9893 14.6003 41.9745 14.5927 41.9668V41.967ZM13.2508 32.0985V32.0608C13.2508 32.0756 13.2508 32.0909 13.2508 32.0985ZM32.9878 11.6827H23.866V2.5681H32.9878V11.6827ZM23.866 13.2434H32.9878H34.5485V11.6827V2.5681V1.0001H32.9878H23.866H22.2977V2.5681V11.6827V13.2434H23.866Z" fill="#F9FAFB" stroke="#F9FAFB" stroke-miterlimit="2.61313"/>
</svg>
