<?xml version="1.0" standalone="no"?>
<!DOCTYPE svg PUBLIC "-//W3C//DTD SVG 20010904//EN"
 "http://www.w3.org/TR/2001/REC-SVG-20010904/DTD/svg10.dtd">
<svg version="1.0" xmlns="http://www.w3.org/2000/svg"
 width="720.000000pt" height="720.000000pt" viewBox="0 0 720.000000 720.000000"
 preserveAspectRatio="xMidYMid meet">
<metadata>
Created by potrace 1.14, written by Peter Selinger 2001-2017
</metadata>
<g transform="translate(0.000000,720.000000) scale(0.100000,-0.100000)"
fill="#000000" stroke="none">
<path d="M802 7096 c2 -20 2 -36 -2 -36 -6 0 -4 -119 2 -125 2 -2 1 -32 -2
-67 -3 -35 -3 -83 0 -108 3 -25 3 -57 -1 -71 -4 -15 -3 -32 1 -39 4 -7 4 -25
0 -40 -4 -15 -4 -33 0 -40 4 -6 4 -27 0 -46 -5 -19 -4 -37 1 -40 5 -3 7 -10 3
-15 -5 -9 -8 -150 -4 -174 1 -5 2 -14 1 -18 -1 -5 -1 -50 -1 -100 1 -51 1
-103 0 -117 -1 -14 -1 -31 -1 -37 1 -15 1 -25 1 -121 0 -40 2 -77 5 -82 4 -6
3 -10 -2 -10 -4 0 -7 -26 -5 -57 4 -69 4 -59 2 -160 -1 -46 2 -87 5 -93 3 -5
3 -10 -2 -10 -4 0 -7 -26 -5 -57 2 -32 3 -62 3 -68 0 -13 0 -215 -1 -240 -1
-117 0 -146 4 -153 3 -5 1 -25 -4 -45 -4 -22 -4 -39 1 -43 5 -3 7 -10 3 -15
-5 -9 -8 -150 -4 -174 1 -5 2 -14 1 -18 -1 -5 -1 -50 -1 -100 1 -51 1 -103 0
-117 -1 -14 -1 -31 -1 -37 1 -7 1 -21 1 -30 1 -54 1 -220 0 -233 -2 -83 0
-142 5 -149 3 -5 2 -12 -3 -15 -5 -3 -6 -28 -2 -56 4 -27 4 -50 1 -50 -3 0 -5
-26 -3 -57 4 -69 4 -59 2 -160 -1 -46 2 -87 5 -93 3 -5 3 -10 -2 -10 -4 0 -7
-24 -5 -52 5 -97 3 -208 -2 -217 -4 -5 -2 -12 4 -16 6 -4 8 -11 4 -16 -7 -12
-10 -167 -3 -173 3 -3 2 -33 -1 -68 -3 -35 -3 -83 0 -108 3 -25 3 -57 -1 -71
-4 -15 -3 -32 1 -39 4 -7 4 -25 0 -40 -4 -15 -4 -33 0 -40 4 -6 4 -27 0 -46
-5 -19 -4 -37 1 -40 5 -3 7 -10 3 -15 -5 -9 -8 -150 -4 -174 1 -5 2 -14 1 -18
-1 -5 -1 -50 -1 -100 1 -51 1 -103 0 -117 -1 -14 -1 -32 -1 -40 1 -8 1 -26 0
-40 -4 -103 10 -310 28 -395 4 -16 7 -37 8 -45 6 -51 60 -246 83 -300 8 -19
18 -44 22 -55 34 -101 196 -379 272 -467 13 -14 31 -38 41 -51 15 -21 159
-165 201 -202 80 -71 209 -165 226 -165 5 0 10 -4 10 -9 0 -5 14 -14 31 -21
17 -7 36 -18 42 -24 14 -13 140 -74 217 -106 111 -45 127 -50 213 -75 170 -48
320 -68 517 -68 207 0 363 23 549 80 64 19 125 38 136 41 11 3 28 11 38 17 16
11 15 14 -16 29 -19 8 -40 22 -47 31 -7 8 -18 15 -24 15 -6 0 -24 11 -40 25
-16 14 -33 25 -37 25 -4 0 -14 6 -21 13 -7 7 -37 30 -65 51 -29 21 -53 42 -53
47 0 5 -6 9 -12 9 -7 0 -26 14 -42 31 -31 30 -35 31 -116 14 -130 -27 -415
-22 -545 9 -33 8 -63 12 -67 10 -3 -2 -9 0 -12 5 -3 5 -23 12 -43 17 -42 8
-40 8 -68 18 -11 4 -33 13 -50 19 -55 19 -222 104 -268 136 -25 17 -48 31 -52
31 -4 0 -12 6 -19 13 -7 6 -28 23 -46 37 -73 56 -167 145 -217 207 -21 26 -43
53 -50 58 -24 21 -117 175 -163 270 -68 140 -97 230 -132 405 -8 39 -12 753
-15 2473 l-3 2417 650 0 650 0 1 -2377 c0 -1308 2 -2396 4 -2418 10 -108 15
-146 30 -215 9 -41 18 -82 20 -90 22 -102 85 -281 129 -365 9 -16 16 -33 16
-36 0 -5 87 -155 110 -189 36 -54 98 -140 120 -165 89 -104 190 -206 265 -265
22 -17 42 -35 45 -38 3 -4 12 -11 22 -17 9 -5 47 -31 85 -56 92 -63 305 -178
330 -179 4 -1 26 -9 48 -20 22 -11 47 -19 55 -20 9 0 21 -5 28 -12 7 -7 12 -9
12 -6 0 3 21 -1 48 -9 86 -27 165 -44 272 -59 196 -27 411 -23 615 11 39 6
209 50 245 63 8 3 20 6 25 7 6 2 46 17 90 35 140 55 341 168 436 244 14 12 43
34 65 51 59 45 258 246 279 282 11 18 22 33 26 33 4 0 32 38 63 85 51 77 70
109 140 240 32 58 76 165 69 165 -3 0 -1 6 4 13 13 15 65 182 70 222 2 16 6
37 9 47 9 28 17 72 30 168 4 25 8 726 10 1558 l3 1512 -207 0 -207 0 -2 -1498
c-1 -823 -2 -1504 -3 -1512 -1 -8 -6 -37 -11 -65 -4 -27 -10 -61 -13 -75 -8
-49 -38 -154 -61 -215 -25 -66 -105 -237 -115 -245 -3 -3 -21 -30 -40 -60 -37
-58 -38 -60 -93 -127 -245 -299 -609 -496 -997 -540 -106 -12 -384 -4 -410 12
-3 2 -23 6 -45 9 -100 16 -282 80 -394 138 -215 114 -406 280 -531 462 -19 28
-38 53 -41 56 -17 14 -109 196 -136 270 -33 88 -64 190 -69 225 -1 11 -8 45
-14 75 -9 42 -23 258 -21 325 0 6 0 33 0 60 0 28 0 59 0 70 1 11 0 56 0 100 0
91 0 84 0 150 0 28 0 59 0 70 -1 55 0 562 1 573 1 21 2 134 1 172 -1 8 0 31 0
50 1 63 1 75 -1 105 -1 22 -2 477 -1 570 0 6 0 33 0 60 0 28 0 59 0 70 1 11 0
56 0 100 0 44 0 85 0 90 0 23 0 112 0 130 1 11 0 56 0 100 0 44 0 85 0 90 0
23 0 112 0 130 1 11 0 56 0 100 0 91 0 84 0 150 0 28 0 59 0 70 -1 82 0 564 1
580 1 11 1 27 1 35 0 8 0 38 0 65 0 28 0 57 0 65 -1 8 0 31 0 50 1 63 1 75 -1
105 -1 17 -2 149 -1 295 0 146 0 270 0 275 0 93 1 147 5 180 1 11 -1 32 -5 48
-4 15 -4 27 0 27 5 0 5 15 2 33 -4 17 -4 48 -1 67 3 19 3 46 0 60 -4 14 -3 37
1 53 7 26 6 27 -29 28 -20 1 -40 1 -44 0 -7 -1 -46 -1 -183 -1 -126 0 -155 0
-230 1 -38 0 -92 0 -120 0 -45 -1 -140 -1 -250 -1 -22 0 -71 0 -110 1 -38 0
-92 0 -120 0 -45 -1 -140 -1 -250 -1 -22 0 -71 0 -110 1 -38 0 -92 0 -120 0
-51 -1 -173 -1 -255 -1 -177 1 -254 0 -258 -4 -2 -3 -14 -1 -25 5 -18 10 -19
8 -15 -25z"/>
<path d="M4253 7122 c-32 -2 -43 -7 -44 -20 0 -9 -1 -485 -1 -1057 l-1 -1040
1061 -2 1061 -1 0 1054 c0 719 -4 1056 -11 1060 -6 4 -49 6 -97 5 -47 -1 -90
-2 -96 -2 -9 1 -116 1 -215 1 -25 0 -76 0 -115 1 -38 0 -92 0 -120 0 -45 -1
-140 -1 -250 -1 -22 0 -71 0 -110 1 -38 0 -92 0 -120 0 -45 -1 -140 -1 -250
-1 -22 0 -71 0 -110 1 -38 0 -92 0 -120 0 -27 -1 -86 -1 -130 -1 -44 0 -98 0
-120 0 -22 0 -69 1 -105 2 -36 2 -84 2 -107 0z m1664 -1062 l0 -650 -649 0
-648 0 0 35 c0 19 0 235 0 480 0 245 0 522 0 615 l0 170 648 0 649 0 0 -650z"/>
<path d="M4209 4883 c0 -16 -1 -684 -1 -1487 -1 -802 -4 -1477 -9 -1500 -4
-22 -15 -81 -24 -131 -23 -122 -67 -250 -126 -368 -49 -100 -165 -277 -181
-277 -4 0 -8 -5 -8 -12 0 -7 -49 -60 -109 -119 l-110 -107 62 -33 c58 -32 100
-52 172 -85 17 -7 62 -24 102 -38 l71 -24 54 56 c29 32 78 89 108 127 30 39
58 71 62 73 5 2 8 8 8 14 0 5 13 28 29 52 27 39 48 75 104 179 44 81 133 307
121 307 -4 0 -2 6 4 12 5 7 13 27 16 43 3 17 12 57 20 90 8 33 17 84 21 114 4
30 9 63 13 75 3 12 7 706 9 1544 l3 1522 -205 0 -205 0 -1 -27z"/>
</g>
</svg>
