<svg width="142" height="142" viewBox="0 0 142 142" fill="none" xmlns="http://www.w3.org/2000/svg">
<g opacity="0.3" clip-path="url(#clip0_218_4866)">
<path d="M80.4667 99.4C81.7737 99.4 82.8333 98.3404 82.8333 97.0334C82.8333 95.7263 81.7737 94.6667 80.4667 94.6667C79.1596 94.6667 78.1 95.7263 78.1 97.0334C78.1 98.3404 79.1596 99.4 80.4667 99.4Z" fill="#C0C2C7"/>
<path d="M71 52.0667C69.6929 52.0667 68.6333 53.1263 68.6333 54.4333V61.5333C68.6333 62.8404 69.6929 63.9 71 63.9C72.3071 63.9 73.3667 62.8404 73.3667 61.5333V54.4333C73.3667 53.1263 72.3071 52.0667 71 52.0667Z" fill="#C0C2C7"/>
<path d="M10.1601 44.2732L22.5425 56.6556C17.9867 72.588 13.3527 85.4958 11.0003 99.1278C11.0003 99.1444 10.9837 99.1539 10.979 99.1704C10.96 99.2343 10.979 99.2982 10.9624 99.3645C8.62023 112.33 9.09484 125.648 12.354 138.414C12.9035 140.516 14.7965 141.987 16.969 142H125.22C127.4 142.005 129.303 140.526 129.835 138.412C137.645 107.373 128.302 87.0081 119.6 56.5136L131.84 44.2732C132.281 43.8278 132.53 43.227 132.533 42.6V26.0333C132.533 23.4192 130.414 21.3 127.8 21.3H113.617C113.458 16.1185 113.945 10.9374 115.067 5.87643C115.425 4.46261 115.109 2.96285 114.211 1.81365C113.313 0.664463 111.934 -0.00503999 110.476 1.26967e-06H31.7133C30.2525 -0.00651819 28.8713 0.664858 27.974 1.8176C25.3233 5.23033 28.7976 5.88353 28.5728 21.3H14.2C11.5858 21.3 9.46666 23.4192 9.46666 26.0333C9.46666 43.6461 9.19923 43.31 10.1601 44.2732ZM17.5465 44.9667H25.5931C25.1056 47.1464 24.592 49.2929 24.0098 51.4324L17.5465 44.9667ZM15.1798 102.801C21.9275 104.484 28.7689 105.767 35.668 106.642C31.24 116.797 22.2467 120.814 14.4769 122.305C13.9755 115.798 14.2121 109.255 15.1822 102.801H15.1798ZM68.6333 137.267H16.9453C16.0993 133.893 15.4428 130.475 14.9786 127.028C23.1697 125.507 35.2184 120.896 40.5221 107.238C49.8587 108.256 59.2416 108.791 68.6333 108.843V137.267ZM68.6333 104.11C50.9031 104.24 33.2222 102.227 15.975 98.1149C16.8104 93.72 17.8944 89.3204 19.1416 84.819C35.4167 88.234 52.0038 89.9417 68.6333 89.9144V104.11ZM125.22 137.267H73.3667V132.533H75.7333C82.2655 132.525 87.5588 127.232 87.5667 120.7V108.393C92.6148 108.107 97.27 107.714 101.485 107.245C106.812 120.993 118.944 125.575 127.194 127.066C126.727 130.501 126.068 133.906 125.22 137.267ZM73.3667 127.8V108.852C76.654 108.829 79.8206 108.751 82.8333 108.616V120.7C82.8333 124.621 79.6546 127.8 75.7333 127.8H73.3667ZM127.703 122.34C119.865 120.885 110.8 116.883 106.332 106.64C113.294 105.762 120.196 104.465 127.002 102.758C127.979 109.238 128.214 115.807 127.703 122.34ZM126.207 98.0723C108.892 102.156 91.1566 104.186 73.3667 104.119V89.9191C90.0584 89.95 106.707 88.2255 123.038 84.774C124.286 89.2754 125.369 93.675 126.207 98.0723ZM121.737 80.2134C117.798 81.0938 112.421 82.1068 105.705 83.0108C107 80.914 107.932 78.6137 108.462 76.2067C108.651 75.3718 108.375 74.4997 107.74 73.9261C107.104 73.3525 106.209 73.1667 105.397 73.4404C104.586 73.7141 103.986 74.4044 103.828 75.2458C103.088 78.4354 101.52 81.3739 99.284 83.7658C80.4778 85.6734 61.5269 85.6734 42.7207 83.7658C40.4853 81.3733 38.9183 78.435 38.1767 75.2458C37.8912 73.988 36.6512 73.1903 35.3882 73.4522C34.1253 73.7141 33.3046 74.939 33.5428 76.2067C34.0733 78.6112 35.0054 80.9091 36.2999 83.0037C29.6733 82.1233 24.353 81.1104 20.4433 80.2513C23.785 68.8298 28.0758 55.8675 30.4424 44.9667H111.747C114.161 56.09 118.172 68.0582 121.737 80.2134ZM118.137 51.2833C117.571 49.1864 117.07 47.0896 116.594 44.9667H124.454L118.137 51.2833ZM110.471 4.73333C109.257 10.1683 108.724 15.7333 108.883 21.3H33.3061C33.4656 15.733 32.9306 10.1679 31.7133 4.73333H110.471ZM14.2 26.0333H127.8V40.2333H120.7V35.5C120.7 34.1929 119.64 33.1333 118.333 33.1333C117.026 33.1333 115.967 34.1929 115.967 35.5V40.2333H108.867V35.5C108.867 34.1929 107.807 33.1333 106.5 33.1333C105.193 33.1333 104.133 34.1929 104.133 35.5V40.2333H97.0333V35.5C97.0333 34.1929 95.9737 33.1333 94.6667 33.1333C93.3596 33.1333 92.3 34.1929 92.3 35.5V40.2333H85.2V35.5C85.2 34.1929 84.1404 33.1333 82.8333 33.1333C81.5263 33.1333 80.4667 34.1929 80.4667 35.5V40.2333H73.3667V35.5C73.3667 34.1929 72.3071 33.1333 71 33.1333C69.6929 33.1333 68.6333 34.1929 68.6333 35.5V40.2333H61.5333V35.5C61.5333 34.1929 60.4737 33.1333 59.1667 33.1333C57.8596 33.1333 56.8 34.1929 56.8 35.5V40.2333H49.7V35.5C49.7 34.1929 48.6404 33.1333 47.3333 33.1333C46.0263 33.1333 44.9667 34.1929 44.9667 35.5V40.2333H37.8667V35.5C37.8667 34.1929 36.8071 33.1333 35.5 33.1333C34.1929 33.1333 33.1333 34.1929 33.1333 35.5V40.2333H26.0333V35.5C26.0333 34.1929 24.9737 33.1333 23.6667 33.1333C22.3596 33.1333 21.3 34.1929 21.3 35.5V40.2333H14.2V26.0333Z" fill="#C0C2C7"/>
</g>
<defs>
<clipPath id="clip0_218_4866">
<rect width="142" height="142" fill="white"/>
</clipPath>
</defs>
</svg>
