<svg width="142" height="142" viewBox="0 0 142 142" fill="none" xmlns="http://www.w3.org/2000/svg">
<path d="M86 142C84.5484 142 83.3704 140.825 83.3704 139.37V2.62963C83.3704 1.17544 84.5484 0 86 0C87.4516 0 88.6296 1.17544 88.6296 2.62963V139.37C88.6296 140.825 87.4516 142 86 142Z" fill="#53565C"/>
<path d="M96.5185 28.0502H86C84.5484 28.0502 83.3704 26.8747 83.3704 25.4205C83.3704 23.9663 84.5484 22.7909 86 22.7909H96.5185C97.9701 22.7909 99.1481 23.9663 99.1481 25.4205C99.1481 26.8747 97.9701 28.0502 96.5185 28.0502Z" fill="#53565C"/>
<path d="M96.5185 16.6535H86C84.5484 16.6535 83.3704 15.4781 83.3704 14.0239C83.3704 12.5697 84.5484 11.3943 86 11.3943H96.5185C97.9701 11.3943 99.1481 12.5697 99.1481 14.0239C99.1481 15.4781 97.9701 16.6535 96.5185 16.6535Z" fill="#53565C"/>
<path d="M96.5185 62.2353H86C84.5484 62.2353 83.3704 61.0599 83.3704 59.6057C83.3704 58.1515 84.5484 56.9761 86 56.9761H96.5185C97.9701 56.9761 99.1481 58.1515 99.1481 59.6057C99.1481 61.0599 97.9701 62.2353 96.5185 62.2353Z" fill="#53565C"/>
<path d="M96.5185 50.8387H86C84.5484 50.8387 83.3704 49.6633 83.3704 48.2091C83.3704 46.7549 84.5484 45.5795 86 45.5795H96.5185C97.9701 45.5795 99.1481 46.7549 99.1481 48.2091C99.1481 49.6633 97.9701 50.8387 96.5185 50.8387Z" fill="#53565C"/>
<path d="M96.5185 96.4206H86C84.5484 96.4206 83.3704 95.2452 83.3704 93.791C83.3704 92.3368 84.5484 91.1614 86 91.1614H96.5185C97.9701 91.1614 99.1481 92.3368 99.1481 93.791C99.1481 95.2452 97.9701 96.4206 96.5185 96.4206Z" fill="#53565C"/>
<path d="M96.5185 85.0239H86C84.5484 85.0239 83.3704 83.8485 83.3704 82.3943C83.3704 80.9401 84.5484 79.7646 86 79.7646H96.5185C97.9701 79.7646 99.1481 80.9401 99.1481 82.3943C99.1481 83.8485 97.9701 85.0239 96.5185 85.0239Z" fill="#53565C"/>
<path d="M96.5185 130.606H86C84.5484 130.606 83.3704 129.43 83.3704 127.976C83.3704 126.522 84.5484 125.346 86 125.346H96.5185C97.9701 125.346 99.1481 126.522 99.1481 127.976C99.1481 129.43 97.9701 130.606 96.5185 130.606Z" fill="#53565C"/>
<path d="M96.5185 119.209H86C84.5484 119.209 83.3704 118.034 83.3704 116.579C83.3704 115.125 84.5484 113.95 86 113.95H96.5185C97.9701 113.95 99.1481 115.125 99.1481 116.579C99.1481 118.034 97.9701 119.209 96.5185 119.209Z" fill="#53565C"/>
<path d="M107.037 107.815H86C84.5484 107.815 83.3704 106.639 83.3704 105.185C83.3704 103.731 84.5484 102.556 86 102.556H107.037C108.489 102.556 109.667 103.731 109.667 105.185C109.667 106.639 108.489 107.815 107.037 107.815Z" fill="#53565C"/>
<path d="M107.037 39.4444H86C84.5484 39.4444 83.3704 38.269 83.3704 36.8148C83.3704 35.3606 84.5484 34.1852 86 34.1852H107.037C108.489 34.1852 109.667 35.3606 109.667 36.8148C109.667 38.269 108.489 39.4444 107.037 39.4444Z" fill="#53565C"/>
<path d="M107.037 73.6296H86C84.5484 73.6296 83.3704 72.4542 83.3704 71C83.3704 69.5458 84.5484 68.3704 86 68.3704H107.037C108.489 68.3704 109.667 69.5458 109.667 71C109.667 72.4542 108.489 73.6296 107.037 73.6296Z" fill="#53565C"/>
<path d="M107.037 5.25926H86C84.5484 5.25926 83.3704 4.08381 83.3704 2.62963C83.3704 1.17544 84.5484 0 86 0H107.037C108.489 0 109.667 1.17544 109.667 2.62963C109.667 4.08381 108.489 5.25926 107.037 5.25926Z" fill="#53565C"/>
<path d="M107.037 142H86C84.5484 142 83.3704 140.825 83.3704 139.37C83.3704 137.916 84.5484 136.741 86 136.741H107.037C108.489 136.741 109.667 137.916 109.667 139.37C109.667 140.825 108.489 142 107.037 142Z" fill="#53565C"/>
<path d="M70.2222 63.1111C68.7707 63.1111 67.5926 61.9357 67.5926 60.4815C67.5926 53.2316 61.6943 47.3334 54.4444 47.3334C52.9929 47.3334 51.8148 46.1579 51.8148 44.7037C51.8148 43.2495 52.9929 42.0741 54.4444 42.0741C64.5948 42.0741 72.8519 50.3338 72.8519 60.4815C72.8519 61.9357 71.6738 63.1111 70.2222 63.1111Z" fill="#53565C"/>
<path d="M70.2222 93.6463C68.7707 93.6463 67.5926 92.4709 67.5926 91.0167V60.4814C67.5926 59.0273 68.7707 57.8518 70.2222 57.8518C71.6738 57.8518 72.8519 59.0273 72.8519 60.4814V91.0167C72.8519 92.4709 71.6738 93.6463 70.2222 93.6463Z" fill="#53565C"/>
<path d="M54.4444 47.3334H33.4074C31.9559 47.3334 30.7778 46.1579 30.7778 44.7037C30.7778 43.2495 31.9559 42.0741 33.4074 42.0741H54.4444C55.896 42.0741 57.0741 43.2495 57.0741 44.7037C57.0741 46.1579 55.896 47.3334 54.4444 47.3334Z" fill="#53565C"/>
<path d="M17.6296 63.1111C16.1781 63.1111 15 61.9357 15 60.4815C15 50.3338 23.257 42.0741 33.4074 42.0741C34.859 42.0741 36.037 43.2495 36.037 44.7037C36.037 46.1579 34.859 47.3334 33.4074 47.3334C26.1575 47.3334 20.2593 53.2316 20.2593 60.4815C20.2593 61.9357 19.0812 63.1111 17.6296 63.1111Z" fill="#53565C"/>
<path d="M17.6296 93.6463C16.1781 93.6463 15 92.4709 15 91.0167V60.4814C15 59.0273 16.1781 57.8518 17.6296 57.8518C19.0812 57.8518 20.2593 59.0273 20.2593 60.4814V91.0167C20.2593 92.4709 19.0812 93.6463 17.6296 93.6463Z" fill="#53565C"/>
<path d="M64.963 98.7348C61.0422 98.7348 57.0741 96.0841 57.0741 91.0168C57.0741 89.5627 58.2521 88.3872 59.7037 88.3872C61.1553 88.3872 62.3333 89.5627 62.3333 91.0168C62.3333 93.3572 64.5238 93.4755 64.963 93.4755C65.4021 93.4755 67.5926 93.3572 67.5926 91.0168C67.5926 89.5627 68.7707 88.3872 70.2222 88.3872C71.6738 88.3872 72.8519 89.5627 72.8519 91.0168C72.8519 96.0841 68.8837 98.7348 64.963 98.7348Z" fill="#53565C"/>
<path d="M22.8889 98.7348C18.9681 98.7348 15 96.0841 15 91.0168C15 89.5627 16.1781 88.3872 17.6296 88.3872C19.0812 88.3872 20.2593 89.5627 20.2593 91.0168C20.2593 93.3572 22.4497 93.4755 22.8889 93.4755C23.328 93.4755 25.5185 93.3572 25.5185 91.0168C25.5185 89.5627 26.6966 88.3872 28.1481 88.3872C29.5997 88.3872 30.7778 89.5627 30.7778 91.0168C30.7778 96.0841 26.8097 98.7348 22.8889 98.7348Z" fill="#53565C"/>
<path d="M28.1481 94.6666C26.6966 94.6666 25.5185 93.4912 25.5185 92.037V60.4814C25.5185 59.0273 26.6966 57.8518 28.1481 57.8518C29.5997 57.8518 30.7778 59.0273 30.7778 60.4814V92.037C30.7778 93.4912 29.5997 94.6666 28.1481 94.6666Z" fill="#53565C"/>
<path d="M59.7037 94.6666C58.2521 94.6666 57.0741 93.4912 57.0741 92.037V60.4814C57.0741 59.0273 58.2521 57.8518 59.7037 57.8518C61.1553 57.8518 62.3333 59.0273 62.3333 60.4814V92.037C62.3333 93.4912 61.1553 94.6666 59.7037 94.6666Z" fill="#53565C"/>
<path d="M28.1481 134.111C26.6966 134.111 25.5185 132.936 25.5185 131.482V92.0371C25.5185 90.5829 26.6966 89.4075 28.1481 89.4075C29.5997 89.4075 30.7778 90.5829 30.7778 92.0371V131.482C30.7778 132.936 29.5997 134.111 28.1481 134.111Z" fill="#53565C"/>
<path d="M59.7037 134.111C58.2521 134.111 57.0741 132.936 57.0741 131.482V92.0371C57.0741 90.5829 58.2521 89.4075 59.7037 89.4075C61.1553 89.4075 62.3333 90.5829 62.3333 92.0371V131.482C62.3333 132.936 61.1553 134.111 59.7037 134.111Z" fill="#53565C"/>
<path d="M43.9259 134.111C42.4744 134.111 41.2963 132.936 41.2963 131.482V92.0371C41.2963 90.5829 42.4744 89.4075 43.9259 89.4075C45.3775 89.4075 46.5556 90.5829 46.5556 92.0371V131.482C46.5556 132.936 45.3775 134.111 43.9259 134.111Z" fill="#53565C"/>
<path d="M51.8148 141.742C49.1194 141.742 46.5845 140.838 44.678 139.197C42.498 137.324 41.2963 134.584 41.2963 131.481C41.2963 130.027 42.4744 128.852 43.9259 128.852C45.3775 128.852 46.5556 130.027 46.5556 131.481C46.5556 135.171 49.3877 136.483 51.8148 136.483C54.242 136.483 57.0741 135.171 57.0741 131.481C57.0741 130.027 58.2521 128.852 59.7037 128.852C61.1553 128.852 62.3333 130.027 62.3333 131.481C62.3333 138.219 57.0425 141.742 51.8148 141.742Z" fill="#53565C"/>
<path d="M36.037 141.742C33.3417 141.742 30.8067 140.838 28.9002 139.197C26.7203 137.324 25.5185 134.584 25.5185 131.481C25.5185 130.027 26.6966 128.852 28.1481 128.852C29.5997 128.852 30.7778 130.027 30.7778 131.481C30.7778 135.171 33.6099 136.483 36.037 136.483C38.4642 136.483 41.2963 135.171 41.2963 131.481C41.2963 130.027 42.4744 128.852 43.9259 128.852C45.3775 128.852 46.5556 130.027 46.5556 131.481C46.5556 138.219 41.2647 141.742 36.037 141.742Z" fill="#53565C"/>
<path d="M43.9259 36.8148C33.9491 36.8148 25.5185 28.3842 25.5185 18.4074C25.5185 8.43059 33.9491 0 43.9259 0C53.9027 0 62.3333 8.43059 62.3333 18.4074C62.3333 28.3842 53.9027 36.8148 43.9259 36.8148ZM43.9259 5.25926C36.7996 5.25926 30.7778 11.2811 30.7778 18.4074C30.7778 25.5337 36.7996 31.5556 43.9259 31.5556C51.0522 31.5556 57.0741 25.5337 57.0741 18.4074C57.0741 11.2811 51.0522 5.25926 43.9259 5.25926Z" fill="#53565C"/>
</svg>
