<svg width="124" height="142" viewBox="0 0 124 142" fill="none" xmlns="http://www.w3.org/2000/svg">
<path d="M1.1601 44.2732L13.5425 56.6556C8.98666 72.588 4.35273 85.4958 2.00026 99.1278C2.00026 99.1444 1.9837 99.1539 1.97896 99.1704C1.96003 99.2343 1.97896 99.2982 1.9624 99.3645C-0.379767 112.33 0.0948365 125.648 3.354 138.414C3.90353 140.516 5.79646 141.987 7.969 142H116.22C118.4 142.005 120.303 140.526 120.835 138.412C128.645 107.373 119.302 87.0081 110.6 56.5136L122.84 44.2732C123.281 43.8278 123.53 43.227 123.533 42.6V26.0333C123.533 23.4192 121.414 21.3 118.8 21.3H104.617C104.458 16.1185 104.945 10.9374 106.067 5.87643C106.425 4.46261 106.109 2.96285 105.211 1.81365C104.313 0.664463 102.934 -0.00503999 101.476 1.26967e-06H22.7133C21.2525 -0.00651819 19.8713 0.664858 18.974 1.8176C16.3233 5.23033 19.7976 5.88353 19.5728 21.3H5.2C2.58585 21.3 0.466663 23.4192 0.466663 26.0333C0.466663 43.6461 0.19923 43.31 1.1601 44.2732ZM8.54646 44.9667H16.5931C16.1056 47.1464 15.592 49.2929 15.0098 51.4324L8.54646 44.9667ZM6.1798 102.801C12.9275 104.484 19.7689 105.767 26.668 106.642C22.24 116.797 13.2467 120.814 5.4769 122.305C4.97552 115.798 5.21212 109.255 6.18216 102.801H6.1798ZM59.6333 137.267H7.94533C7.09935 133.893 6.44276 130.475 5.97863 127.028C14.1697 125.507 26.2184 120.896 31.5221 107.238C40.8587 108.256 50.2416 108.791 59.6333 108.843V137.267ZM59.6333 104.11C41.9031 104.24 24.2222 102.227 6.975 98.1149C7.81043 93.72 8.89436 89.3204 10.1416 84.819C26.4167 88.234 43.0038 89.9417 59.6333 89.9144V104.11ZM116.22 137.267H64.3667V132.533H66.7333C73.2655 132.525 78.5588 127.232 78.5667 120.7V108.393C83.6148 108.107 88.27 107.714 92.485 107.245C97.8124 120.993 109.944 125.575 118.194 127.066C117.727 130.501 117.068 133.906 116.22 137.267ZM64.3667 127.8V108.852C67.654 108.829 70.8206 108.751 73.8333 108.616V120.7C73.8333 124.621 70.6546 127.8 66.7333 127.8H64.3667ZM118.703 122.34C110.865 120.885 101.8 116.883 97.332 106.64C104.294 105.762 111.196 104.465 118.002 102.758C118.979 109.238 119.214 115.807 118.703 122.34ZM117.207 98.0723C99.8924 102.156 82.1566 104.186 64.3667 104.119V89.9191C81.0584 89.95 97.7072 88.2255 114.038 84.774C115.286 89.2754 116.369 93.675 117.207 98.0723ZM112.737 80.2134C108.798 81.0938 103.421 82.1068 96.7048 83.0108C98 80.914 98.9322 78.6137 99.462 76.2067C99.6514 75.3718 99.3753 74.4997 98.7398 73.9261C98.1043 73.3525 97.2086 73.1667 96.3974 73.4404C95.5863 73.7141 94.9861 74.4044 94.828 75.2458C94.0875 78.4354 92.5203 81.3739 90.284 83.7658C71.4778 85.6734 52.5269 85.6734 33.7207 83.7658C31.4853 81.3733 29.9183 78.435 29.1767 75.2458C28.8912 73.988 27.6512 73.1903 26.3882 73.4522C25.1253 73.7141 24.3046 74.939 24.5428 76.2067C25.0733 78.6112 26.0054 80.9091 27.2999 83.0037C20.6733 82.1233 15.353 81.1104 11.4433 80.2513C14.785 68.8298 19.0758 55.8675 21.4424 44.9667H102.747C105.161 56.09 109.172 68.0582 112.737 80.2134ZM109.137 51.2833C108.571 49.1864 108.07 47.0896 107.594 44.9667H115.454L109.137 51.2833ZM101.471 4.73333C100.257 10.1683 99.7236 15.7333 99.8832 21.3H24.3061C24.4656 15.733 23.9306 10.1679 22.7133 4.73333H101.471ZM5.2 26.0333H118.8V40.2333H111.7V35.5C111.7 34.1929 110.64 33.1333 109.333 33.1333C108.026 33.1333 106.967 34.1929 106.967 35.5V40.2333H99.8667V35.5C99.8667 34.1929 98.8071 33.1333 97.5 33.1333C96.1929 33.1333 95.1333 34.1929 95.1333 35.5V40.2333H88.0333V35.5C88.0333 34.1929 86.9737 33.1333 85.6667 33.1333C84.3596 33.1333 83.3 34.1929 83.3 35.5V40.2333H76.2V35.5C76.2 34.1929 75.1404 33.1333 73.8333 33.1333C72.5263 33.1333 71.4667 34.1929 71.4667 35.5V40.2333H64.3667V35.5C64.3667 34.1929 63.3071 33.1333 62 33.1333C60.6929 33.1333 59.6333 34.1929 59.6333 35.5V40.2333H52.5333V35.5C52.5333 34.1929 51.4737 33.1333 50.1667 33.1333C48.8596 33.1333 47.8 34.1929 47.8 35.5V40.2333H40.7V35.5C40.7 34.1929 39.6404 33.1333 38.3333 33.1333C37.0263 33.1333 35.9667 34.1929 35.9667 35.5V40.2333H28.8667V35.5C28.8667 34.1929 27.8071 33.1333 26.5 33.1333C25.1929 33.1333 24.1333 34.1929 24.1333 35.5V40.2333H17.0333V35.5C17.0333 34.1929 15.9737 33.1333 14.6667 33.1333C13.3596 33.1333 12.3 34.1929 12.3 35.5V40.2333H5.2V26.0333Z" fill="#C0C2C7"/>
</svg>
