<svg width="540" height="626" viewBox="0 0 540 626" fill="none" xmlns="http://www.w3.org/2000/svg">
<g clip-path="url(#clip0_636_5474)">
<rect width="540" height="626" fill="#FFC233"/>
<path d="M640.461 -12.9566H677.249C677.205 -0.198074 676.043 12.2968 673.856 24.4343C659.26 105.404 599.026 170.524 520.732 192.221L520.182 192.373V192.944V258.25H483.395V199.873V199.843V161.415V24.5673V-12.9566H520.932H616.644L593.335 23.8173H520.932H520.182V24.5673V139.44V152.874V153.926L521.177 153.583C578.773 133.743 622.909 85.0243 636.274 24.7297C638.965 12.5887 640.407 -0.0211182 640.461 -12.9566ZM253.146 24.4343L253.104 24.203L253.102 24.2015C250.942 12.1365 249.795 -0.280739 249.751 -12.9583H286.539C286.593 -0.0228119 288.035 12.587 290.726 24.728C304.091 85.0226 348.227 133.743 405.823 153.582L406.818 153.924V152.873V139.47V24.5673V23.8173H406.068H333.646L310.337 -12.9566H406.069H443.607V24.5673V161.415V199.873V199.875V258.25H406.819V192.944V192.373L406.27 192.221C327.975 170.524 267.742 105.405 253.146 24.4343ZM463.501 -101.25C479.668 -101.25 492.774 -88.1479 492.774 -71.9873C492.774 -55.8285 479.668 -42.7263 463.501 -42.7263C447.334 -42.7263 434.227 -55.8285 434.227 -71.9873C434.227 -88.1495 447.334 -101.25 463.501 -101.25Z" stroke="#374151" stroke-width="1.5"/>
<path d="M202.461 -12.9566H239.249C239.205 -0.198074 238.043 12.2968 235.856 24.4343C221.26 105.404 161.026 170.524 82.732 192.221L82.1823 192.373V192.944V258.25H45.3947V199.873V199.843V161.415V24.5673V-12.9566H82.9323H178.644L155.335 23.8173H82.9323H82.1823V24.5673V139.44V152.874V153.926L83.1766 153.583C140.773 133.743 184.909 85.0243 198.274 24.7297C200.965 12.5887 202.407 -0.0211182 202.461 -12.9566ZM-184.854 24.4343L-184.896 24.203L-184.898 24.2015C-187.058 12.1365 -188.205 -0.280739 -188.249 -12.9583H-151.461C-151.407 -0.0228119 -149.965 12.587 -147.274 24.728C-133.909 85.0226 -89.7726 133.743 -32.1766 153.582L-31.1823 153.924V152.873V139.47V24.5673V23.8173H-31.9323H-104.354L-127.663 -12.9566H-31.9306H5.60706V24.5673V161.415V199.873V199.875V258.25H-31.1806V192.944V192.373L-31.7303 192.221C-110.025 170.524 -170.258 105.405 -184.854 24.4343ZM25.5008 -101.25C41.6678 -101.25 54.7743 -88.1479 54.7743 -71.9873C54.7743 -55.8285 41.6678 -42.7263 25.5008 -42.7263C9.33386 -42.7263 -3.77255 -55.8285 -3.77255 -71.9873C-3.77255 -88.1495 9.33386 -101.25 25.5008 -101.25Z" stroke="#374151" stroke-width="1.5"/>
<path d="M638.461 369.043H675.249C675.205 381.802 674.043 394.297 671.856 406.434C657.26 487.404 597.026 552.524 518.732 574.221L518.182 574.373V574.944V640.25H481.395V581.873V581.843V543.415V406.567V369.043H518.932H614.644L591.335 405.817H518.932H518.182V406.567V521.44V534.874V535.926L519.177 535.583C576.773 515.743 620.909 467.024 634.274 406.73C636.965 394.589 638.407 381.979 638.461 369.043ZM251.146 406.434L251.104 406.203L251.102 406.202C248.942 394.137 247.795 381.719 247.751 369.042H284.539C284.593 381.977 286.035 394.587 288.726 406.728C302.091 467.023 346.227 515.743 403.823 535.582L404.818 535.924V534.873V521.47V406.567V405.817H404.068H331.646L308.337 369.043H404.069H441.607V406.567V543.415V581.873V581.875V640.25H404.819V574.944V574.373L404.27 574.221C325.975 552.524 265.742 487.405 251.146 406.434ZM461.501 280.75C477.668 280.75 490.774 293.852 490.774 310.013C490.774 326.171 477.668 339.274 461.501 339.274C445.334 339.274 432.227 326.171 432.227 310.013C432.227 293.85 445.334 280.75 461.501 280.75Z" stroke="#374151" stroke-width="1.5"/>
<path d="M224.461 369.043H261.249C261.205 381.802 260.043 394.297 257.856 406.434C243.26 487.404 183.026 552.524 104.732 574.221L104.182 574.373V574.944V640.25H67.3947V581.873V581.843V543.415V406.567V369.043H104.932H200.644L177.335 405.817H104.932H104.182V406.567V521.44V534.874V535.926L105.177 535.583C162.773 515.743 206.909 467.024 220.274 406.73C222.965 394.589 224.407 381.979 224.461 369.043ZM-162.854 406.434L-162.896 406.203L-162.898 406.202C-165.058 394.137 -166.205 381.719 -166.249 369.042H-129.461C-129.407 381.977 -127.965 394.587 -125.274 406.728C-111.909 467.023 -67.7726 515.743 -10.1766 535.582L-9.18231 535.924V534.873V521.47V406.567V405.817H-9.93231H-82.3539L-105.663 369.043H-9.93062H27.6071V406.567V543.415V581.873V581.875V640.25H-9.18062V574.944V574.373L-9.73033 574.221C-88.0246 552.524 -148.258 487.405 -162.854 406.434ZM47.5008 280.75C63.6678 280.75 76.7743 293.852 76.7743 310.013C76.7743 326.171 63.6678 339.274 47.5008 339.274C31.3339 339.274 18.2274 326.171 18.2274 310.013C18.2274 293.85 31.3339 280.75 47.5008 280.75Z" stroke="#374151" stroke-width="1.5"/>
<path d="M95.2149 178.149C95.2149 154.871 114.086 136 137.364 136H401.215C424.493 136 443.364 154.871 443.364 178.149V294.058C445.924 294.058 448 296.134 448 298.694V356.017C448 358.577 445.924 360.653 443.364 360.653V808.695C443.364 831.973 424.493 850.843 401.215 850.843H137.364C114.085 850.843 95.2149 831.973 95.2149 808.695V390.579H94.3719C92.5097 390.579 91 389.069 91 387.207V337.471C91 335.609 92.5097 334.099 94.3719 334.099H95.2149V323.562H94.3719C92.5097 323.562 91 322.052 91 320.19V268.769C91 266.906 92.5097 265.397 94.3719 265.397H95.2149V178.149Z" fill="#303030"/>
<path d="M176.983 151.174H138.206C123.308 151.174 111.231 163.251 111.231 178.149V808.695C111.231 823.593 123.308 835.67 138.206 835.67H400.372C415.27 835.67 427.347 823.593 427.347 808.695V178.149C427.347 163.251 415.27 151.174 400.372 151.174H362.438V155.388C362.438 164.7 354.89 172.248 345.578 172.248H193.843C184.532 172.248 176.983 164.7 176.983 155.388V151.174Z" fill="white"/>
<g clip-path="url(#clip1_636_5474)">
<rect x="111.648" y="151.174" width="316.244" height="685.295" rx="28.4119" fill="white"/>
<rect opacity="0.93" x="133.153" y="283.153" width="273.235" height="414.912" rx="6.32488" fill="#FCFCFC" stroke="#EDEDED" stroke-width="0.843317"/>
<rect x="325.005" y="467.171" width="59.8783" height="28.4321" rx="14.216" fill="#240A00"/>
<path d="M346.945 484.855V478.716H346.914L344.976 480.054V478.621L346.94 477.258H348.52V484.855H346.945ZM355.449 483.955C354.904 484.668 354.155 485.024 353.2 485.024C352.246 485.024 351.494 484.669 350.947 483.96C350.399 483.248 350.125 482.275 350.125 481.043C350.125 479.818 350.399 478.853 350.947 478.148C351.498 477.439 352.249 477.084 353.2 477.084C354.152 477.084 354.901 477.437 355.449 478.142C355.996 478.848 356.27 479.813 356.27 481.038C356.27 482.267 355.996 483.239 355.449 483.955ZM352.126 483.039C352.386 483.513 352.744 483.75 353.2 483.75C353.657 483.75 354.013 483.515 354.269 483.044C354.525 482.57 354.653 481.903 354.653 481.043C354.653 480.19 354.524 479.531 354.264 479.064C354.008 478.593 353.653 478.358 353.2 478.358C352.747 478.358 352.391 478.593 352.131 479.064C351.872 479.534 351.742 480.194 351.742 481.043C351.742 481.9 351.87 482.565 352.126 483.039ZM358.518 484.671C358.353 484.836 358.153 484.919 357.918 484.919C357.683 484.919 357.483 484.836 357.318 484.671C357.153 484.506 357.07 484.306 357.07 484.071C357.07 483.836 357.153 483.636 357.318 483.471C357.483 483.306 357.683 483.223 357.918 483.223C358.153 483.223 358.353 483.306 358.518 483.471C358.683 483.636 358.766 483.836 358.766 484.071C358.766 484.306 358.683 484.506 358.518 484.671ZM364.884 483.955C364.34 484.668 363.59 485.024 362.635 485.024C361.681 485.024 360.93 484.669 360.382 483.96C359.834 483.248 359.561 482.275 359.561 481.043C359.561 479.818 359.834 478.853 360.382 478.148C360.933 477.439 361.684 477.084 362.635 477.084C363.587 477.084 364.336 477.437 364.884 478.142C365.431 478.848 365.705 479.813 365.705 481.038C365.705 482.267 365.431 483.239 364.884 483.955ZM361.561 483.039C361.821 483.513 362.179 483.75 362.635 483.75C363.092 483.75 363.448 483.515 363.704 483.044C363.961 482.57 364.089 481.903 364.089 481.043C364.089 480.19 363.959 479.531 363.699 479.064C363.443 478.593 363.088 478.358 362.635 478.358C362.183 478.358 361.826 478.593 361.567 479.064C361.307 479.534 361.177 480.194 361.177 481.043C361.177 481.9 361.305 482.565 361.561 483.039Z" fill="white"/>
<line x1="321.934" y1="481.253" x2="341.893" y2="481.253" stroke="black" stroke-width="1.54044"/>
<path d="M345.615 502.51L344.112 507.677H343.345L341.571 501.165H342.42L343.724 506.481H343.76L345.227 501.165H346.048L347.515 506.481H347.551L348.855 501.165H349.704L347.93 507.677H347.163L345.66 502.51H345.615ZM351.351 501.887V504.383H352.953C353.371 504.383 353.693 504.274 353.919 504.058C354.148 503.841 354.262 503.533 354.262 503.133C354.262 502.741 354.143 502.436 353.905 502.216C353.668 501.997 353.338 501.887 352.917 501.887H351.351ZM351.351 505.1V507.677H350.539V501.165H353.025C353.654 501.165 354.157 501.342 354.533 501.697C354.912 502.049 355.101 502.519 355.101 503.105C355.101 503.56 354.986 503.952 354.754 504.283C354.522 504.614 354.202 504.844 353.793 504.974L355.3 507.677H354.348L352.953 505.1H351.351ZM356.938 507.677H356.126V501.165H356.938V507.677ZM357.89 505.885H358.707C358.746 506.237 358.918 506.52 359.222 506.734C359.529 506.948 359.915 507.054 360.382 507.054C360.821 507.054 361.183 506.951 361.469 506.743C361.758 506.532 361.903 506.268 361.903 505.949C361.903 505.675 361.802 505.449 361.6 505.272C361.402 505.094 361.083 504.948 360.643 504.834L359.808 504.617C359.207 504.464 358.767 504.25 358.491 503.976C358.214 503.7 358.075 503.34 358.075 502.898C358.075 502.356 358.289 501.914 358.716 501.571C359.147 501.228 359.7 501.057 360.377 501.057C361.024 501.057 361.56 501.231 361.984 501.58C362.408 501.926 362.629 502.371 362.647 502.916H361.835C361.799 502.567 361.648 502.292 361.384 502.09C361.119 501.888 360.774 501.788 360.35 501.788C359.929 501.788 359.584 501.887 359.317 502.086C359.052 502.284 358.919 502.543 358.919 502.862C358.919 503.108 359.016 503.312 359.208 503.471C359.404 503.627 359.723 503.763 360.165 503.877L360.846 504.058C361.52 504.226 362.005 504.45 362.3 504.73C362.594 505.01 362.742 505.383 362.742 505.849C362.742 506.445 362.522 506.917 362.083 507.266C361.647 507.612 361.054 507.785 360.305 507.785C359.613 507.785 359.047 507.612 358.608 507.266C358.169 506.92 357.93 506.46 357.89 505.885ZM366.194 507.677H365.382V501.896H363.283V501.165H368.293V501.896H366.194V507.677Z" fill="black"/>
<path d="M332.154 589.9H331.342V583.387H332.154V586.564H332.199L335.074 583.387H336.098L333.422 586.271L336.337 589.9H335.3L332.858 586.849L332.154 587.625V589.9ZM337.831 589.9H337.028V583.387H337.818L341.383 588.501H341.424V583.387H342.227V589.9H341.437L337.872 584.804H337.831V589.9ZM347.525 589.168V589.9H343.491V583.387H347.525V584.118H344.303V586.208H347.358V586.93H344.303V589.168H347.525ZM352.634 589.168V589.9H348.599V583.387H352.634V584.118H349.412V586.208H352.467V586.93H349.412V589.168H352.634Z" fill="black"/>
<g clip-path="url(#clip2_636_5474)">
<path d="M268.153 379.326H268.197C271.011 379.194 271.055 377.123 270.703 376.727C269.999 375.978 270.659 377.696 268.153 377.696C265.69 377.696 266.35 375.978 265.646 376.727C265.294 377.123 265.338 379.194 268.153 379.326Z" fill="#240A00"/>
<path d="M260.193 375.096C258.171 375.361 254.125 374.744 251.399 373.731C249.112 372.894 243.88 371.264 241.154 371.969C241.154 371.969 245.287 372.629 250.651 374.656C252.41 375.317 255.928 376.55 257.995 377.123C260.853 377.96 262.7 374.7 260.193 375.096Z" fill="#240A00"/>
<path d="M260.809 569.379C260.897 568.806 261.072 568.277 261.204 568.057C262.436 566.119 261.204 563.828 261.204 563.828C261.028 565.282 260.589 566.603 259.841 567.705C259.621 568.057 259.489 568.63 259.358 569.291C259.094 570.304 258.83 571.582 258.082 572.242C258.082 572.242 260.501 571.758 260.809 569.379Z" fill="#240A00"/>
<path d="M250.783 568.454L250.739 567.969C250.739 567.705 250.695 567.441 250.695 567.132C250.651 566.604 250.651 565.987 250.476 565.414C250.256 564.709 249.816 564.093 249.376 563.52C248.893 562.815 248.409 562.154 248.321 561.405C248.321 561.405 247.09 562.374 248.189 563.96C248.585 564.577 249.64 567.617 249.684 568.806C250.08 575.415 254.213 574.137 254.213 574.137C252.103 573.432 251.003 570.304 250.783 568.454Z" fill="#240A00"/>
<path d="M284.949 373.731C282.223 374.744 278.178 375.361 276.155 375.096C273.649 374.7 275.496 377.96 278.354 377.123C280.42 376.55 283.938 375.317 285.697 374.656C291.061 372.629 295.195 371.969 295.195 371.969C292.469 371.264 287.236 372.894 284.949 373.731Z" fill="#240A00"/>
<path d="M322.15 485.542C321.974 486.556 321.534 488.714 321.49 489.463C321.402 491.314 321.534 498.054 321.578 498.406C321.666 499.067 321.754 499.596 321.666 500.345C321.578 500.741 321.138 501.402 320.787 501.843C320.611 502.107 320.435 502.327 320.347 502.504C319.775 503.649 319.775 505.059 319.424 506.248C319.028 507.482 317.797 509.552 317.181 509.729C317.225 509.729 318.104 508.187 318.456 504.971C318.544 504.178 318.764 503.429 318.94 502.636C319.248 501.446 319.468 500.697 319.819 499.992C320.611 498.451 319.38 497.613 319.38 497.613C319.775 498.406 319.424 499.332 319.248 499.728C318.852 500.477 318.632 501.226 318.324 502.46C318.104 503.297 317.972 504.046 317.797 504.839C317.401 506.777 317.049 508.627 316.082 510.434C316.038 510.61 315.554 510.874 315.29 511.006C315.07 511.138 314.894 511.271 314.763 511.359C314.235 511.755 313.663 512.24 313.18 512.724C312.74 513.165 312.168 513.561 311.641 513.914C311.069 514.31 310.453 514.707 309.97 515.191C308.651 516.513 306.408 517.703 305.88 517.614C305.089 516.205 305.441 515.015 306.628 513.826C307.068 513.385 307.507 512.945 309.178 511.843C309.222 511.843 309.354 511.447 309.398 511.403C310.585 509.288 312.388 508.055 312.872 507.658C312.96 507.614 313.004 507.482 312.96 507.394V507.085C312.916 506.028 312.652 504.883 312.96 502.504C313.048 502.107 313.092 501.667 313.18 501.27C313.663 499.244 312.828 497.922 312.828 497.922C312.916 498.539 312.652 499.508 312.564 499.111C312.432 498.847 312.124 497.878 311.245 496.909C312.168 495.411 313.224 495.146 313.663 494.838C313.663 494.838 311.685 494.838 310.453 496.909C309.926 497.746 309.266 500.081 308.651 501.975C307.551 505.279 304.209 505.499 304.033 504.839C303.594 503.429 304.385 502.812 305.221 501.711C305.88 500.918 306.452 500.169 306.584 499.332C306.76 498.274 306.804 497.173 306.892 496.116C307.068 493.34 307.199 490.741 308.826 488.45C309.134 487.965 309.53 487.525 309.882 487.128C310.585 486.247 311.729 484.485 312.212 483.428C315.29 476.996 307.419 465.762 304.825 455.144C304.209 452.545 303.506 450.342 304.693 440.738C304.737 439.99 305.441 438.007 305.704 438.315C306.232 438.844 306.672 440.342 306.672 440.342C306.892 439.901 306.012 434.262 305.353 432.544C305.045 431.795 302.846 426.773 302.714 425.275C302.231 420.914 303.99 412.94 300.34 407.741C307.859 397.036 305.089 395.979 302.934 392.146C302.758 391.837 302.582 391.529 302.407 391.221C301.791 390.031 302.407 389.591 302.494 389.547C302.494 389.547 301.219 389.547 301.747 391.441C301.835 391.793 302.275 392.851 302.363 393.159C303.77 397.168 304.649 398.886 298.449 409.283C297.174 411.398 290.798 410.12 286.181 409.063C280.289 407.697 278.266 410.12 278.266 410.12C280.113 409.944 282.971 410.385 286.005 410.869C288.819 411.31 291.634 411.75 293.964 411.75C296.251 411.75 297.658 411.574 298.273 410.649C298.933 411.927 298.977 412.543 298.977 412.543C299.241 418.931 298.229 424.086 297.174 427.081C296.294 429.769 294.184 432.897 294.14 436.597C294.14 437.17 295.811 440.21 295.547 441.531C295.107 443.382 294.096 443.69 292.865 444.924C286.049 451.884 283.367 466.951 283.763 466.951C284.818 461.356 287.72 454.351 291.634 448.624C292.293 447.699 293.085 446.95 293.876 446.245C293.964 446.157 294.052 446.069 294.14 446.025C294.492 445.673 294.36 447.303 294.316 447.831C294.096 450.431 295.459 452.501 296.294 454.528L296.602 455.144C297.79 458.052 296.778 465.938 298.009 470.079C299.153 473.912 304.693 482.018 302.407 484.397C300.868 482.811 298.977 481.666 298.977 481.666C302.275 486.159 303.066 491.49 302.934 494.001C302.011 515.368 301.923 528.452 292.073 555.458C290.974 558.498 290.094 559.335 289.699 558.409C287.676 553.872 285.39 553.475 285.39 553.475C286.709 554.533 287.896 557.528 288.555 559.114C289.083 560.348 289.523 561.361 290.27 561.449C290.094 561.405 288.863 567.22 288.775 567.661C288.512 569.203 288.248 570.48 287.896 572.022C287.412 574.049 287.016 575.987 287.016 578.058C286.973 582.243 288.643 584.886 289.171 585.9C288.424 583.168 288.204 580.701 289.171 578.014C289.391 577.353 290.051 576.34 290.666 577.177C291.062 577.75 292.117 581.847 292.513 583.389C293.085 585.724 293.92 589.292 293.964 591.627C294.36 609.117 290.534 610.703 287.28 619.514C284.114 627.928 277.299 641.673 277.475 648.105C277.563 649.868 278.442 657.357 279.497 658.943C284.07 665.86 288.38 666.476 289.127 666.785C289.963 667.093 290.49 667.622 290.71 668.327C290.886 668.987 290.71 669.604 290.534 669.869C288.907 671.322 280.157 671.543 277.958 670.662C278.706 669.692 278.574 668.283 277.826 667.049C276.639 664.89 273.649 666.344 273.649 666.344C275.144 665.86 276.507 666.256 277.299 667.401C277.958 668.371 277.607 669.648 276.771 670.133C273.517 672.027 269.12 669.428 269.076 668.591C269.076 667.798 269.296 667.005 269.516 666.212L271.143 664.714C271.451 663.657 270.395 661.63 270.351 661.586C270.351 661.542 270.307 661.41 270.175 661.366C269.604 661.014 269.34 660.617 269.34 660.176C269.208 656.476 270.835 652.555 271.143 650.749C271.846 646.96 271.187 643.436 270.703 639.118C268.944 623.258 272.506 627.488 272.506 627.488C271.011 620.351 267.141 607.707 270.923 596.209C273.165 591.891 273.693 586.34 272.286 580.922C271.319 577.089 269.912 567.969 269.516 564.357C268.812 557.705 270.175 554.004 271.231 546.162C271.626 543.122 271.055 540.215 271.407 541.58C272.462 545.898 272.418 546.118 272.506 551.757C272.506 551.757 273.869 546.999 271.407 537.087C270.703 534.311 267.141 518.848 270.571 497.217C277.651 496.688 274.353 486.468 277.782 483.604C277.211 483.252 275.54 485.542 275.32 486.247C274.485 489.023 273.913 496.468 268.153 496.468C262.436 496.468 261.865 489.023 261.029 486.247C260.809 485.542 259.139 483.252 258.567 483.604C261.997 486.468 258.699 496.688 265.778 497.217C269.164 518.848 265.646 534.311 264.943 537.087C262.48 546.999 263.843 551.757 263.843 551.757C263.931 546.118 263.887 545.898 264.943 541.58C265.295 540.215 264.723 543.122 265.119 546.162C266.174 554.004 267.537 557.705 266.834 564.357C266.438 567.969 265.031 577.089 264.063 580.922C262.656 586.34 263.184 591.891 265.426 596.209C269.164 607.707 265.338 620.351 263.843 627.488C263.843 627.488 267.405 623.258 265.646 639.118C265.163 643.436 264.503 646.96 265.207 650.749C265.514 652.555 267.141 656.476 267.009 660.176C267.009 660.617 266.746 661.014 266.174 661.366C266.042 661.41 265.998 661.542 265.998 661.586C265.954 661.63 264.899 663.657 265.207 664.714L266.834 666.212C267.053 667.005 267.273 667.798 267.229 668.591C267.229 669.428 262.832 672.027 259.578 670.133C258.699 669.648 258.391 668.371 259.051 667.401C259.842 666.256 261.205 665.86 262.7 666.344C262.7 666.344 259.71 664.89 258.479 667.049C257.775 668.283 257.643 669.692 258.391 670.662C256.192 671.543 247.442 671.322 245.815 669.869C245.639 669.604 245.463 668.987 245.639 668.327C245.859 667.622 246.387 667.093 247.222 666.785C247.97 666.476 252.279 665.86 256.852 658.943C257.907 657.357 258.787 649.868 258.831 648.105C259.051 641.673 252.235 627.928 249.069 619.514C245.815 610.703 241.99 609.117 242.341 591.627C242.429 589.292 243.265 585.724 243.836 583.389C244.232 581.847 245.287 577.75 245.683 577.177C246.299 576.34 246.958 577.353 247.178 578.014C248.146 580.701 247.926 583.168 247.178 585.9C247.706 584.886 249.377 582.243 249.333 578.058C249.333 575.987 248.937 574.049 248.453 572.022C248.102 570.48 247.838 569.203 247.574 567.661C247.486 567.22 246.255 561.405 246.079 561.449C246.826 561.361 247.266 560.348 247.794 559.114C248.453 557.528 249.641 554.533 250.96 553.475C250.96 553.475 248.673 553.872 246.651 558.409C246.255 559.335 245.375 558.498 244.276 555.458C234.426 528.452 234.339 515.368 233.415 494.001C233.283 491.49 234.075 486.159 237.373 481.666C237.373 481.666 235.482 482.811 233.943 484.397C231.656 482.018 237.197 473.912 238.34 470.079C239.571 465.938 238.56 458.052 239.747 455.144L240.011 454.528C240.846 452.501 242.253 450.431 242.034 447.831C241.99 447.303 241.858 445.673 242.209 446.025C242.297 446.069 242.385 446.157 242.473 446.245C243.265 446.95 244.056 447.699 244.672 448.624C248.629 454.351 251.531 461.356 252.587 466.951C252.982 466.951 250.3 451.884 243.485 444.924C242.253 443.69 241.242 443.382 240.802 441.531C240.539 440.21 242.209 437.17 242.209 436.597C242.165 432.897 240.055 429.769 239.175 427.081C238.12 424.086 237.109 418.931 237.329 412.543C237.329 412.543 237.417 411.927 238.076 410.649C238.692 411.574 240.099 411.75 242.385 411.75C244.672 411.75 247.53 411.31 250.344 410.869C253.378 410.385 256.236 409.944 258.083 410.12C258.083 410.12 256.06 407.697 250.168 409.063C245.551 410.12 239.175 411.398 237.9 409.283C231.7 398.886 232.58 397.168 233.943 393.159C234.075 392.851 234.514 391.793 234.602 391.441C235.086 389.547 233.855 389.547 233.855 389.547C233.943 389.591 234.558 390.031 233.943 391.221C233.767 391.529 233.591 391.837 233.415 392.146C231.261 395.979 228.49 397.036 236.009 407.741C232.36 412.94 234.119 420.914 233.635 425.275C233.503 426.773 231.304 431.795 230.997 432.544C230.293 434.262 229.458 439.901 229.678 440.342C229.678 440.342 230.117 438.844 230.645 438.315C230.909 438.007 231.612 439.99 231.656 440.738C232.843 450.342 232.14 452.545 231.524 455.144C228.93 465.762 221.059 476.996 224.137 483.428C224.621 484.485 225.764 486.247 226.468 487.128C226.819 487.525 227.171 487.965 227.523 488.45C229.106 490.741 229.282 493.34 229.458 496.116C229.546 497.173 229.59 498.274 229.765 499.332C229.897 500.169 230.469 500.918 231.129 501.711C231.964 502.812 232.756 503.429 232.316 504.839C232.14 505.499 228.798 505.279 227.699 501.975C227.083 500.081 226.38 497.746 225.896 496.909C224.665 494.838 222.686 494.838 222.686 494.838C223.126 495.146 224.181 495.411 225.104 496.909C224.225 497.878 223.917 498.847 223.785 499.111C223.697 499.508 223.434 498.539 223.522 497.922C223.522 497.922 222.686 499.244 223.126 501.27C223.258 501.667 223.302 502.107 223.346 502.504C223.697 504.883 223.434 506.028 223.39 507.085L223.346 507.394C223.346 507.482 223.39 507.614 223.478 507.658C223.917 508.055 225.764 509.288 226.951 511.403C226.995 511.447 227.127 511.843 227.171 511.843C228.842 512.945 229.282 513.385 229.722 513.826C230.909 515.015 231.261 516.205 230.469 517.614C229.941 517.703 227.699 516.513 226.336 515.191C225.896 514.707 225.28 514.31 224.709 513.914C224.181 513.561 223.609 513.165 223.17 512.724C222.686 512.24 222.114 511.755 221.587 511.359C221.455 511.271 221.279 511.138 221.059 511.006C220.795 510.874 220.312 510.61 220.224 510.434C219.3 508.627 218.948 506.777 218.553 504.839C218.377 504.046 218.245 503.297 218.025 502.46C217.717 501.226 217.497 500.477 217.102 499.728C216.926 499.332 216.574 498.406 216.97 497.613C216.97 497.613 215.739 498.451 216.53 499.992C216.882 500.697 217.102 501.446 217.409 502.636C217.585 503.429 217.805 504.178 217.893 504.971C218.245 508.187 219.124 509.729 219.168 509.729C218.553 509.552 217.322 507.482 216.926 506.248C216.574 505.059 216.574 503.649 216.002 502.504C215.914 502.327 215.739 502.107 215.563 501.843C215.211 501.402 214.727 500.741 214.683 500.345C214.595 499.596 214.683 499.067 214.771 498.406C214.815 498.054 214.947 491.314 214.859 489.463C214.815 488.714 214.375 486.556 214.2 485.542C213.892 484.353 214.244 481.533 214.331 480.74C214.595 478.758 215.695 474.749 215.739 472.722C215.958 467.48 214.815 455.144 214.683 452.633C214.024 441.928 217.585 431.487 217.585 431.443L220.839 424.438L219.256 426.509C218.597 427.434 217.409 423.293 217.322 422.588C217.014 419.592 220.004 404.966 221.015 402.455C221.587 401.089 219.52 397.036 219.3 394.613C218.992 391.441 220.575 377.079 223.697 374.612C227.347 371.66 231.217 370.25 234.822 370.03C240.626 369.634 247.134 362.937 252.939 361.439C254.917 360.955 255.797 360.558 256.104 356.902C257.468 362.717 260.721 372.629 263.58 375.185C263.58 375.185 257.424 361.484 256.764 350.073C259.051 351.88 262.173 354.743 263.404 355.36C265.119 356.241 267.317 356.373 268.153 356.373C269.032 356.373 271.231 356.241 272.946 355.36C274.177 354.743 277.299 351.88 279.585 350.073C278.926 361.484 272.77 375.185 272.77 375.185C275.628 372.629 278.882 362.717 280.245 356.902C280.509 360.558 281.432 360.955 283.411 361.439C289.215 362.937 295.723 369.634 301.483 370.03C305.089 370.25 309.002 371.66 312.652 374.612C315.774 377.079 317.357 391.441 317.049 394.613C316.829 397.036 314.763 401.089 315.334 402.455C316.346 404.966 319.336 419.592 319.028 422.588C318.94 423.293 317.753 427.434 317.093 426.509L315.466 424.438L318.764 431.443C318.764 431.487 322.326 441.928 321.666 452.633C321.534 455.144 320.391 467.48 320.611 472.722C320.655 474.749 321.754 478.758 322.018 480.74C322.106 481.533 322.414 484.353 322.15 485.542ZM307.551 506.38L307.419 506.513C306.76 507.085 305.836 507.922 305.748 508.848C305.573 508.936 305.353 509.024 305.133 509.156C304.693 509.376 303.682 509.949 303.066 510.786C303.198 509.2 303.33 507.614 303.418 505.984C303.682 506.292 304.121 506.513 305.001 506.557C305.045 506.557 305.045 506.557 305.089 506.557C306.32 506.557 307.419 505.984 308.475 504.839C308.958 504.354 309.486 502.9 309.574 502.283C309.926 500.565 310.277 499.199 310.585 498.274C311.597 498.715 312.3 500.521 312.344 501.358C312.344 501.667 312.344 502.019 312.344 502.415C312.3 502.9 312.212 503.341 312.168 503.693C311.069 504.001 308.694 505.367 307.551 506.38ZM311.948 504.927V504.971C310.673 505.323 308.87 506.953 307.903 508.055C307.463 508.143 306.98 508.319 306.54 508.495C306.76 507.966 307.419 507.394 307.859 506.997L307.991 506.865C308.958 505.984 311.025 504.794 312.124 504.398C312.08 504.574 312.08 504.75 312.08 504.883C312.036 504.883 311.992 504.927 311.948 504.927ZM312.08 506.909V506.997C310.629 507.438 309.354 508.231 308.519 508.98C308.299 509.156 307.859 509.817 307.859 509.817C304.649 510.125 303.726 511.447 303.682 511.447C303.902 510.918 304.913 509.993 305.441 509.729C306.408 509.244 307.287 508.892 308.167 508.627C308.211 508.627 308.299 508.583 308.343 508.539C309.354 507.35 311.025 506.292 312.036 505.94C312.036 506.424 312.036 506.513 312.08 506.909ZM297.042 441.752C297.086 441.311 297.13 440.871 297.13 440.606C297.13 439.857 296.954 438.976 296.778 438.051C296.646 437.258 296.47 436.509 296.47 435.981C296.514 432.368 297.262 430.121 298.185 427.522C299.153 424.747 300.208 421.619 300.736 416.068C301.439 419.372 301.791 422.852 302.055 425.363C302.187 426.861 302.319 428.095 302.451 428.711C303.022 431.09 303.858 434.747 303.858 434.747C303.858 434.747 304.209 436.025 303.858 439.769C302.67 449.461 303.286 452.81 303.77 455.453C303.858 456.07 303.99 456.642 304.033 457.215C304.121 457.92 305.045 460.739 306.584 465.277C308.387 470.696 311.333 477.48 311.465 479.154L311.509 479.507C311.641 481.137 311.772 482.503 311.157 484.001C310.761 485.014 310.102 485.851 309.354 486.688C309.002 487.128 308.651 487.569 308.299 488.054C306.584 490.521 306.408 493.34 306.232 496.072C306.144 497.129 306.1 498.186 305.968 499.244C305.836 499.904 305.309 500.609 304.737 501.314C304.341 501.799 303.946 502.283 303.638 502.856C303.814 500.037 304.429 496.953 304.561 493.957C304.737 490.521 303.462 488.318 303.638 484.529C303.814 481.093 302.67 478.009 301.659 475.322C301.131 473.956 300.648 472.678 300.34 471.401C299.812 469.154 299.68 466.863 299.592 465.189L299.548 464.528C299.197 458.757 298.493 457.127 297.262 454.131L296.998 453.514C295.899 450.739 294.843 446.774 296.514 443.602L296.558 443.514C296.734 443.117 296.91 442.413 297.042 441.796C297.042 441.752 297.042 441.752 297.042 441.752ZM304.649 514.795C304.341 514.839 304.077 514.927 303.858 515.015C302.363 515.456 303.198 513.165 303.814 512.416C304.957 511.006 306.584 510.962 307.947 510.786L307.991 510.742C308.211 510.742 308.607 509.993 309.134 509.508C309.618 509.112 310.058 508.803 310.805 508.319C310.19 509.024 309.31 510.037 308.651 511.138C306.98 512.24 306.1 512.901 305.616 513.385C305.221 513.738 304.869 514.222 304.649 514.795ZM224.269 506.909C224.313 506.513 224.313 506.424 224.313 505.94C225.324 506.292 226.995 507.35 228.007 508.539C228.051 508.583 228.139 508.627 228.182 508.627C229.062 508.892 229.941 509.244 230.909 509.729C231.436 509.993 232.448 510.918 232.668 511.447C232.624 511.447 231.7 510.125 228.49 509.817C228.49 509.817 228.051 509.156 227.787 508.98C226.995 508.231 225.72 507.438 224.269 506.997V506.909ZM228.358 506.865L228.49 506.997C228.93 507.394 229.59 507.966 229.809 508.495C229.37 508.319 228.886 508.143 228.446 508.055C227.479 506.953 225.676 505.323 224.401 504.971V504.927C224.357 504.927 224.313 504.883 224.269 504.883C224.269 504.75 224.269 504.574 224.225 504.398C225.324 504.794 227.347 505.984 228.358 506.865ZM232.931 505.984C233.019 507.614 233.151 509.2 233.283 510.786C232.668 509.949 231.656 509.376 231.217 509.156C230.997 509.024 230.777 508.936 230.601 508.848C230.513 507.922 229.59 507.085 228.886 506.513L228.798 506.38C227.655 505.367 225.28 504.001 224.181 503.693C224.137 503.341 224.049 502.9 224.005 502.415C224.005 502.019 224.005 501.667 224.005 501.358C224.049 500.521 224.753 498.715 225.764 498.274C226.072 499.199 226.424 500.565 226.775 502.283C226.863 502.9 227.391 504.354 227.875 504.839C228.886 505.984 230.029 506.557 231.261 506.557C231.304 506.557 231.304 506.557 231.348 506.557C232.228 506.513 232.668 506.292 232.931 505.984ZM232.492 439.769C232.14 436.025 232.492 434.747 232.492 434.747C232.492 434.747 233.327 431.09 233.855 428.711C234.031 428.095 234.163 426.861 234.295 425.363C234.558 422.852 234.91 419.372 235.614 416.068C236.141 421.619 237.197 424.747 238.164 427.522C239.043 430.121 239.835 432.368 239.879 435.981C239.879 436.509 239.703 437.258 239.571 438.051C239.395 438.976 239.219 439.857 239.219 440.606C239.219 440.871 239.263 441.311 239.307 441.752C239.307 441.752 239.307 441.752 239.307 441.796C239.439 442.413 239.615 443.117 239.791 443.514L239.835 443.602C241.462 446.774 240.451 450.739 239.351 453.514L239.087 454.131C237.856 457.127 237.153 458.757 236.801 464.528L236.757 465.189C236.669 466.863 236.537 469.154 236.009 471.401C235.702 472.678 235.218 473.956 234.69 475.322C233.679 478.009 232.536 481.093 232.712 484.529C232.887 488.318 231.612 490.521 231.788 493.957C231.92 496.953 232.536 500.037 232.712 502.856C232.404 502.283 232.008 501.799 231.612 501.314C231.041 500.609 230.513 499.904 230.381 499.244C230.249 498.186 230.161 497.129 230.117 496.072C229.941 493.34 229.765 490.521 228.051 488.054C227.699 487.569 227.347 487.128 226.995 486.688C226.248 485.851 225.588 485.014 225.192 484.001C224.577 482.503 224.709 481.137 224.841 479.507L224.885 479.154C225.017 477.48 227.963 470.696 229.765 465.277C231.304 460.739 232.228 457.92 232.316 457.215C232.36 456.642 232.492 456.07 232.58 455.453C233.063 452.81 233.679 449.461 232.492 439.769ZM232.492 515.015C232.272 514.927 232.008 514.839 231.7 514.795C231.48 514.222 231.129 513.738 230.733 513.385C230.249 512.901 229.37 512.24 227.655 511.138C227.039 510.037 226.16 509.024 225.544 508.319C226.292 508.803 226.731 509.112 227.215 509.508C227.743 509.993 228.139 510.742 228.358 510.742L228.402 510.786C229.765 510.962 231.392 511.006 232.536 512.416C233.151 513.165 233.987 515.456 232.492 515.015ZM253.774 336.945V336.592C253.774 336.284 253.642 335.711 253.466 334.918C252.982 333.112 254.434 329.72 255.093 328.09C255.445 327.209 254.434 325.799 253.774 324.257C252.982 322.539 252.411 320.468 253.026 318.838C253.73 316.988 261.029 309.631 268.153 309.631C275.32 309.631 282.619 316.988 283.323 318.838C283.938 320.468 283.367 322.539 282.575 324.257C281.916 325.799 280.904 327.209 281.256 328.09C281.916 329.72 283.367 333.112 282.883 334.918C282.707 335.711 282.575 336.284 282.575 336.592V336.945C282.619 344.082 281.256 347.21 280.157 347.871C277.607 349.457 274.397 353.686 272.77 354.479C271.363 355.14 269.56 354.523 268.153 354.523C266.79 354.523 264.987 355.14 263.58 354.479C261.953 353.686 258.743 349.457 256.192 347.871C255.093 347.21 253.73 344.082 253.774 336.945ZM251.883 337.385C251.927 336.02 251.575 335.799 251.004 334.962C250.52 334.258 250.256 332.804 250.388 332.055C250.52 331.526 251.224 330.249 251.971 330.689C252.059 332.187 252.499 333.817 252.807 335.051C252.982 335.755 253.158 336.372 253.158 336.592V336.945C253.114 338.002 253.114 337.958 253.158 338.883C253.114 338.839 251.839 338.663 251.883 337.385ZM284.378 330.689C285.126 330.249 285.829 331.526 285.961 332.055C286.093 332.804 285.829 334.258 285.346 334.962C284.774 335.799 284.422 336.02 284.466 337.385C284.51 338.663 283.235 338.839 283.191 338.883C283.235 337.958 283.235 338.002 283.191 336.945V336.592C283.191 336.372 283.367 335.755 283.543 335.051C283.851 333.817 284.29 332.187 284.378 330.689ZM322.502 466.731C322.721 461.709 323.029 455.497 323.161 452.986C323.821 442.148 321.314 436.069 319.995 432.809C319.775 432.28 319.555 431.795 319.424 431.443C319.424 431.399 319.424 431.399 319.424 431.399L319.38 431.311C318.72 429.284 319.028 427.125 319.38 424.791C319.468 424.086 319.599 423.381 319.643 422.632C319.995 419.504 318.412 405.406 317.929 403.556C317.577 402.234 317.929 399.415 318.236 396.948C318.324 396.111 318.456 395.362 318.5 394.613C318.808 391.793 317.005 376.727 313.575 373.951C309.794 370.955 307.639 369.369 302.626 369.237C301.395 369.193 291.458 363.907 283.367 360.426C281.608 359.721 281.476 357.563 281.476 348.443C281.696 348.179 281.916 347.915 282.048 347.694C282.663 346.725 283.059 344.346 283.191 340.601C283.279 340.601 283.367 340.557 283.455 340.557C283.807 340.469 284.246 340.381 284.554 340.117C284.994 339.72 285.038 339.104 285.126 338.575C285.258 337.43 285.521 336.284 285.961 335.139C286.313 334.302 286.841 332.848 286.621 331.923C286.489 331.218 285.961 330.689 285.565 330.204C285.258 329.896 284.906 329.94 284.598 329.94C284.51 329.94 284.422 329.94 284.334 329.94C284.334 329.323 284.202 328.751 284.026 328.31C283.719 327.561 283.895 326.151 284.07 324.698C284.334 322.671 284.598 320.38 283.938 318.574C283.191 316.68 278.002 309.014 268.153 308.97C258.347 309.014 253.158 316.68 252.411 318.574C251.707 320.38 252.015 322.671 252.279 324.698C252.455 326.151 252.631 327.561 252.323 328.31C252.103 328.751 252.015 329.323 252.015 329.94C251.927 329.94 251.839 329.94 251.751 329.94C251.443 329.94 251.092 329.896 250.784 330.204C250.388 330.689 249.86 331.218 249.729 331.923C249.509 332.848 250.036 334.302 250.388 335.139C250.828 336.284 251.092 337.43 251.224 338.575C251.268 339.104 251.356 339.72 251.795 340.117C252.103 340.381 252.543 340.469 252.895 340.557C252.982 340.557 253.07 340.601 253.158 340.601C253.29 344.346 253.686 346.725 254.302 347.694C254.434 347.915 254.653 348.179 254.873 348.443C254.873 357.563 254.741 359.721 252.982 360.426C244.892 363.907 234.954 369.193 233.723 369.237C228.71 369.369 226.556 370.955 222.774 373.951C219.3 376.727 217.541 391.793 217.849 394.613C217.893 395.362 218.025 396.111 218.113 396.948C218.421 399.415 218.773 402.234 218.421 403.556C217.937 405.406 216.354 419.504 216.662 422.632C216.75 423.381 216.882 424.086 216.97 424.791C217.322 427.125 217.629 429.284 216.926 431.311L216.882 431.399H216.926C216.926 431.399 216.926 431.399 216.926 431.443C216.794 431.795 216.574 432.28 216.354 432.809C215.035 436.069 212.529 442.148 213.144 452.986C213.32 455.497 213.628 461.709 213.848 466.731C213.98 469.506 214.112 471.841 214.156 472.766C214.2 473.383 213.936 478.714 213.716 480.652C213.54 481.71 213.276 484.397 213.54 485.719C213.76 486.644 213.804 487.569 213.848 488.318C213.936 490.168 214.024 492.283 213.98 494.309C213.98 495.411 213.936 496.424 213.892 497.305C213.848 497.79 213.804 498.142 213.76 498.495C213.628 499.155 213.584 499.772 213.672 500.609C213.76 501.182 214.2 501.843 214.639 502.415C214.815 502.636 214.947 502.856 215.035 502.988C215.607 504.09 215.958 505.279 216.31 506.424C216.706 507.702 217.102 509.024 217.761 510.213C218.245 511.094 219.212 511.359 220.18 511.623C220.619 511.755 221.059 511.887 221.411 512.064C221.895 512.416 222.334 512.812 222.73 513.209C223.214 513.65 223.785 514.046 224.357 514.443C224.929 514.839 225.456 515.236 225.896 515.676C227.127 516.866 229.765 518.407 230.865 518.407C230.909 518.407 230.953 518.407 230.953 518.407C231.217 518.407 231.348 518.275 231.436 518.143C231.964 517.174 232.096 516.293 231.964 515.544C232.052 515.544 232.184 515.588 232.272 515.632C232.8 515.808 233.195 515.94 233.503 515.94C233.591 515.94 233.679 515.94 233.767 515.896V515.852C235.174 528.496 237.592 541.14 242.517 557.22C242.737 558.013 243.353 558.85 243.968 559.599C244.54 560.392 245.156 561.229 245.287 561.978C245.331 562.374 245.419 562.771 245.507 563.167C245.991 566.251 246.563 569.203 245.507 571.714C240.626 583.212 241.066 597.09 242.209 604.006C242.737 606.958 245.859 615.284 249.157 624.095C252.279 632.51 255.533 641.189 256.5 645.286C256.588 645.55 256.676 645.903 256.764 646.255C257.204 647.973 257.819 650.352 257.643 652.114C257.512 653.877 257.38 655.374 256.456 656.872C255.401 658.59 254.346 660.353 253.026 661.895L252.675 662.335C251.619 663.613 250.916 664.494 249.289 665.199C248.541 665.551 247.75 665.86 247.002 666.168C245.683 666.697 245.2 667.534 245.024 668.15C244.76 668.987 244.98 669.869 245.331 670.309C245.331 670.309 245.331 670.309 245.331 670.353C246.607 671.499 251.443 672.115 255.269 672.115C257.16 672.115 258.787 671.939 259.578 671.587C259.622 671.631 259.666 671.675 259.71 671.675C260.458 672.027 261.293 672.159 262.173 672.159C264.151 672.159 266.086 671.499 266.702 671.102C267.405 670.617 267.845 669.692 267.889 668.635C267.933 667.71 267.669 666.873 267.449 666.036L266.482 662.555C266.438 662.467 266.394 662.203 266.438 662.115C266.526 661.983 266.526 661.939 266.57 661.895C267.273 661.41 267.669 660.837 267.669 660.221C267.801 656.432 267.185 652.995 266.877 651.145C266.174 647.445 266.438 643.612 266.746 639.118C267.053 634.448 267.405 629.206 266.702 623.302C266.746 622.994 266.834 622.686 266.877 622.377C267.933 616.914 268.285 600.526 267.405 594.931C267.141 593.477 266.746 592.023 266.394 590.614C265.734 588.147 265.119 585.768 265.207 583.345C265.47 581.054 265.822 578.675 266.218 575.987C266.79 572.111 267.317 568.454 267.713 564.797C268.46 558.101 267.933 551.537 267.185 543.651C266.921 540.655 267.053 537.924 267.273 532.946C267.449 528.937 267.889 523.914 268.153 515.764C268.153 515.896 268.153 514.971 268.153 513.473C268.197 514.971 268.197 515.896 268.197 515.764C268.46 523.914 268.9 528.937 269.076 532.946C269.296 537.924 269.428 540.655 269.164 543.651C268.417 551.537 267.889 558.101 268.636 564.797C269.032 568.454 269.56 572.111 270.131 575.987C270.527 578.675 270.879 581.054 271.143 583.345C271.231 585.768 270.615 588.147 269.956 590.614C269.604 592.023 269.208 593.477 268.944 594.931C268.065 600.526 268.417 616.914 269.472 622.377C269.516 622.686 269.604 622.994 269.648 623.302C268.944 629.206 269.296 634.448 269.604 639.118C269.912 643.612 270.131 647.445 269.472 651.145C269.164 652.995 268.548 656.432 268.68 660.221C268.68 660.837 269.076 661.41 269.78 661.895C269.824 661.939 269.824 661.983 269.912 662.115C269.956 662.203 269.912 662.467 269.868 662.555L268.9 666.036C268.636 666.873 268.417 667.71 268.46 668.635C268.504 669.692 268.944 670.617 269.648 671.102C270.219 671.499 272.198 672.159 274.177 672.159C275.056 672.159 275.892 672.027 276.639 671.675C276.683 671.675 276.727 671.631 276.771 671.587C277.563 671.939 279.19 672.115 281.08 672.115C284.906 672.115 289.743 671.499 290.974 670.353C291.018 670.309 291.018 670.309 291.018 670.309C291.326 669.869 291.546 668.987 291.326 668.15C291.15 667.534 290.666 666.697 289.347 666.168C288.599 665.86 287.808 665.551 287.06 665.199C285.434 664.494 284.73 663.613 283.675 662.335L283.323 661.895C282.004 660.353 280.948 658.59 279.893 656.872C278.97 655.374 278.838 653.877 278.706 652.114C278.53 650.352 279.146 647.973 279.585 646.255C279.673 645.903 279.761 645.55 279.849 645.286C280.816 641.189 284.07 632.51 287.192 624.095C290.49 615.284 293.612 606.958 294.14 604.006C295.283 597.09 295.723 583.212 290.842 571.714C289.787 569.203 290.358 566.251 290.842 563.167C290.93 562.771 290.974 562.374 291.062 561.978C291.194 561.229 291.809 560.392 292.381 559.599C292.997 558.85 293.568 558.013 293.832 557.22C298.757 541.14 301.175 528.496 302.538 515.852C302.582 515.852 302.582 515.896 302.582 515.896C302.67 515.94 302.758 515.94 302.846 515.94C303.154 515.94 303.55 515.808 304.033 515.632C304.165 515.588 304.297 515.544 304.385 515.544C304.253 516.293 304.385 517.174 304.913 518.143C305.001 518.275 305.133 518.407 305.397 518.407C305.397 518.407 305.441 518.407 305.485 518.407C306.584 518.407 309.222 516.866 310.453 515.676C310.893 515.236 311.421 514.839 311.992 514.443C312.564 514.046 313.136 513.65 313.619 513.209C314.015 512.812 314.455 512.416 314.938 512.064C315.29 511.887 315.73 511.755 316.17 511.623C317.093 511.359 318.104 511.094 318.588 510.213C319.248 509.024 319.643 507.702 320.039 506.424C320.391 505.279 320.743 504.09 321.314 502.988C321.402 502.856 321.534 502.636 321.71 502.415C322.15 501.843 322.59 501.182 322.677 500.609C322.765 499.772 322.721 499.155 322.59 498.495C322.546 498.142 322.502 497.79 322.458 497.305C322.414 496.424 322.37 495.411 322.37 494.309C322.326 492.283 322.414 490.168 322.502 488.318C322.546 487.569 322.59 486.644 322.809 485.719C323.073 484.397 322.765 481.71 322.633 480.652C322.414 478.714 322.15 473.383 322.194 472.766C322.238 471.841 322.326 469.506 322.502 466.731Z" fill="#240A00"/>
<path d="M276.507 567.705C275.76 566.603 275.32 565.282 275.144 563.828C275.144 563.828 273.869 566.119 275.144 568.057C275.276 568.277 275.452 568.806 275.54 569.379C275.848 571.758 278.266 572.242 278.266 572.242C277.519 571.582 277.255 570.304 276.991 569.291C276.859 568.63 276.727 568.057 276.507 567.705Z" fill="#240A00"/>
<path d="M282.135 574.137C282.135 574.137 286.268 575.415 286.664 568.806C286.708 567.617 287.763 564.577 288.159 563.96C289.258 562.374 288.027 561.405 288.027 561.405C287.939 562.154 287.455 562.815 286.972 563.52C286.532 564.093 286.092 564.709 285.873 565.414C285.697 565.987 285.653 566.604 285.653 567.132C285.653 567.441 285.609 567.705 285.609 567.969L285.521 568.454C285.345 570.304 284.246 573.432 282.135 574.137Z" fill="#240A00"/>
<path d="M269.296 441.487C269.78 437.567 269.956 434.174 270 431.267C270 421.751 268.153 417.521 268.153 417.521C269.252 423.293 269.252 432.236 268.636 441.443C268.592 442.104 269.208 442.104 269.296 441.487Z" fill="#240A00"/>
<path d="M269.12 444.218C268.064 444.174 267.317 444.615 267.185 445.496C267.185 445.496 267.976 444.747 268.9 444.879C269.779 445.011 270.131 445.716 270.263 445.804C270.923 446.333 271.23 445.54 271.23 445.54C271.23 444.879 270.131 444.307 269.12 444.218Z" fill="#240A00"/>
<path d="M268.812 409.283C270.175 407.609 269.383 394.481 268.24 387.784C268.24 387.784 268.9 405.054 268.064 407.741C267.185 410.517 268.812 409.283 268.812 409.283Z" fill="#240A00"/>
<path fill-rule="evenodd" clip-rule="evenodd" d="M268.241 387.784C269.384 394.48 270.176 407.609 268.812 409.283C268.812 409.283 267.185 410.516 268.065 407.741C268.9 405.053 268.241 387.784 268.241 387.784ZM286.181 409.062C290.798 410.12 297.174 411.397 298.449 409.283C304.649 398.886 303.77 397.168 302.363 393.159C302.275 392.85 301.835 391.793 301.747 391.44C301.219 389.546 302.495 389.546 302.495 389.546C302.407 389.59 301.791 390.031 302.407 391.22C302.583 391.529 302.758 391.837 302.934 392.145C305.089 395.978 307.859 397.035 300.34 407.741C303.99 412.939 302.231 420.913 302.715 425.275C302.846 426.773 305.045 431.795 305.353 432.544C306.012 434.262 306.892 439.901 306.672 440.341C306.672 440.341 306.232 438.844 305.705 438.315C305.441 438.007 304.737 439.989 304.693 440.738C303.506 450.342 304.21 452.545 304.825 455.144C307.419 465.761 315.29 476.995 312.212 483.427C311.729 484.485 310.585 486.247 309.882 487.128C309.53 487.524 309.134 487.965 308.827 488.45C306.584 491.622 307.156 495.542 306.584 499.331C306.452 500.168 305.88 500.917 305.221 501.71C304.385 502.811 303.594 503.428 304.034 504.838C304.21 505.499 307.551 505.279 308.651 501.974C309.266 500.08 309.926 497.745 310.454 496.908C311.685 494.838 313.663 494.838 313.663 494.838C313.224 495.146 312.168 495.41 311.245 496.908C312.124 497.877 312.432 498.847 312.564 499.111C312.652 499.507 312.916 498.538 312.828 497.921C312.828 497.921 313.663 499.243 313.18 501.27C313.092 501.666 313.048 502.107 312.96 502.503C312.564 505.543 313.224 507.349 312.872 507.658C312.388 508.054 310.585 509.288 309.398 511.402C309.354 511.446 309.222 511.843 309.178 511.843C307.507 512.944 307.068 513.385 306.628 513.825C305.441 515.015 305.089 516.204 305.88 517.614C306.408 517.702 308.651 516.513 309.97 515.191C310.454 514.706 311.069 514.31 311.641 513.913C313.224 512.812 313.4 512.415 314.763 511.358L316.082 510.433C317.929 506.909 317.753 502.723 319.248 499.728C319.424 499.331 319.775 498.406 319.38 497.613C319.38 497.613 320.611 498.45 319.819 499.992C319.468 500.697 319.248 501.446 318.94 502.635C318.764 503.428 318.544 504.177 318.456 504.97C318.105 508.186 317.225 509.728 317.181 509.728C317.797 509.552 319.028 507.481 319.424 506.248C319.775 505.058 319.775 503.649 320.347 502.503C320.655 501.974 321.578 500.917 321.666 500.344C321.754 499.595 321.666 499.067 321.578 498.406C321.534 498.054 321.402 491.313 321.49 489.463C321.534 488.714 321.974 486.555 322.15 485.542C322.414 484.352 322.106 481.533 322.018 480.74C321.754 478.757 320.655 474.748 320.611 472.722C320.391 467.479 321.534 455.144 321.666 452.633C322.326 441.927 318.764 431.486 318.764 431.442L315.466 424.438L317.093 426.508C317.753 427.433 318.94 423.292 319.028 422.587C319.336 419.592 316.346 404.965 315.334 402.454C314.763 401.089 316.829 397.035 317.049 394.612C317.357 391.44 315.774 377.079 312.652 374.611C309.002 371.66 305.089 370.25 301.483 370.03C295.723 369.633 289.215 362.937 283.411 361.439C281.432 360.954 280.509 360.558 280.245 356.901C278.882 362.717 275.628 372.629 272.77 375.184C272.77 375.184 278.926 361.483 279.585 350.073C277.299 351.879 274.177 354.743 272.946 355.359C270.351 356.681 265.998 356.681 263.404 355.359C262.173 354.743 259.051 351.879 256.764 350.073C257.424 361.483 263.58 375.184 263.58 375.184C260.722 372.629 257.468 362.717 256.105 356.901C255.797 360.558 254.917 360.954 252.939 361.439C247.134 362.937 240.627 369.633 234.822 370.03C231.217 370.25 227.347 371.66 223.698 374.611C220.576 377.079 218.993 391.44 219.3 394.612C219.52 397.035 221.587 401.089 221.015 402.454C220.004 404.965 217.014 419.592 217.322 422.587C217.41 423.292 218.597 427.433 219.256 426.508L220.839 424.438L217.586 431.442C217.586 431.486 214.024 441.927 214.683 452.633C214.815 455.144 215.959 467.479 215.739 472.722C215.695 474.748 214.595 478.757 214.332 480.74C214.244 481.533 213.892 484.352 214.2 485.542C214.376 486.555 214.815 488.714 214.859 489.463C214.947 491.313 214.815 498.054 214.771 498.406C214.683 499.067 214.595 499.595 214.683 500.344C214.771 500.917 215.695 501.974 216.003 502.503C216.574 503.649 216.574 505.058 216.926 506.248C217.322 507.481 218.553 509.552 219.168 509.728C219.125 509.728 218.245 508.186 217.893 504.97C217.805 504.177 217.586 503.428 217.41 502.635C217.102 501.446 216.882 500.697 216.53 499.992C215.739 498.45 216.97 497.613 216.97 497.613C216.574 498.406 216.926 499.331 217.102 499.728C218.597 502.723 218.465 506.953 220.224 510.433C220.312 510.609 220.795 510.874 221.059 511.006L223.17 512.724C224.093 513.605 225.412 514.266 226.336 515.191C227.699 516.513 229.942 517.702 230.469 517.614C231.261 516.204 230.909 515.015 229.722 513.825C229.282 513.385 228.842 512.944 227.171 511.843C227.127 511.843 226.995 511.446 226.951 511.402C225.764 509.288 223.917 508.054 223.478 507.658C223.126 507.349 223.785 505.543 223.346 502.503C223.302 502.107 223.258 501.666 223.126 501.27C222.686 499.243 223.522 497.921 223.522 497.921C223.434 498.538 223.698 499.507 223.785 499.111C223.917 498.847 224.225 497.877 225.105 496.908C224.181 495.41 223.126 495.146 222.686 494.838C222.686 494.838 224.665 494.838 225.896 496.908C226.38 497.745 227.083 500.08 227.699 501.974C228.798 505.279 232.14 505.499 232.316 504.838C232.756 503.428 231.964 502.811 231.129 501.71C230.469 500.917 229.898 500.168 229.766 499.331C229.194 495.542 229.766 491.622 227.523 488.45C227.171 487.965 226.82 487.524 226.468 487.128C225.764 486.247 224.621 484.485 224.137 483.427C221.059 476.995 228.93 465.761 231.524 455.144C232.14 452.545 232.844 450.342 231.656 440.738C231.612 439.989 230.909 438.007 230.645 438.315C230.117 438.844 229.678 440.341 229.678 440.341C229.458 439.901 230.293 434.262 230.997 432.544C231.305 431.795 233.503 426.773 233.635 425.275C234.119 420.913 232.36 412.939 236.01 407.741C228.49 397.035 231.261 395.978 233.415 392.145C233.591 391.837 233.767 391.529 233.943 391.22C234.559 390.031 233.943 389.59 233.855 389.546C233.855 389.546 235.086 389.546 234.603 391.44C234.515 391.793 234.075 392.85 233.943 393.159C232.58 397.168 231.7 398.886 237.9 409.283C239.176 411.397 245.551 410.12 250.168 409.062C256.061 407.697 258.083 410.12 258.083 410.12C254.61 409.767 246.915 411.75 242.385 411.75C240.099 411.75 238.692 411.574 238.076 410.648C237.417 411.926 237.329 412.543 237.329 412.543C237.109 418.931 238.12 424.085 239.176 427.081C240.055 429.768 242.166 432.896 242.21 436.597C242.21 437.17 240.539 440.209 240.803 441.531C241.242 443.381 242.254 443.69 243.485 444.923C250.3 451.884 252.983 466.951 252.587 466.951C251.532 461.356 248.629 454.351 244.672 448.624C244.012 447.611 243.089 446.818 242.21 446.025C241.858 445.672 241.99 447.302 242.034 447.831C242.254 450.43 240.846 452.501 240.011 454.527L239.747 455.144C238.56 458.052 239.571 465.937 238.34 470.079C237.197 473.911 231.656 482.018 233.943 484.396C235.482 482.811 237.373 481.665 237.373 481.665C234.075 486.159 233.283 491.489 233.415 494C234.339 515.367 234.427 528.451 244.276 555.457C245.376 558.497 246.255 559.334 246.651 558.409C248.673 553.871 250.96 553.475 250.96 553.475C249.641 554.532 248.454 557.528 247.794 559.114C247.266 560.347 246.827 561.361 246.079 561.449C246.299 561.493 248.234 571.009 248.454 572.022C248.937 574.048 249.333 575.987 249.333 578.057C249.377 582.243 247.706 584.886 247.178 585.899C247.926 583.168 248.146 580.701 247.178 578.013C246.959 577.353 246.299 576.339 245.683 577.176C245.288 577.749 244.232 581.846 243.837 583.388C243.265 585.723 242.429 589.291 242.342 591.626C241.99 609.116 245.815 610.702 249.069 619.513C252.235 627.928 259.051 641.673 258.831 648.105C258.787 649.867 257.907 657.356 256.852 658.942C252.279 665.859 247.97 666.476 247.222 666.784C246.387 667.093 245.859 667.621 245.639 668.326C245.463 668.987 245.639 669.604 245.815 669.868C247.442 671.322 256.193 671.542 258.391 670.661C257.644 669.692 257.776 668.282 258.479 667.049C259.71 664.89 262.7 666.344 262.7 666.344C261.205 665.859 259.842 666.256 259.051 667.401C258.391 668.37 258.699 669.648 259.578 670.132C262.832 672.027 267.229 669.427 267.229 668.59C267.273 667.797 267.054 667.004 266.834 666.211L265.207 664.714C264.899 663.656 265.954 661.63 265.998 661.586C266.13 661.189 267.01 661.057 267.01 660.176C267.141 656.475 265.515 652.554 265.207 650.748C264.503 646.959 265.163 643.435 265.646 639.118C267.405 623.258 263.844 627.487 263.844 627.487C265.339 620.35 269.164 607.706 265.427 596.208C263.184 591.891 262.656 586.34 264.063 580.921C265.031 577.088 266.438 567.969 266.834 564.356C267.537 557.704 266.174 554.003 265.119 546.162C264.723 543.122 265.295 540.214 264.943 541.58C263.888 545.897 263.932 546.118 263.844 551.757C263.844 551.757 262.48 546.999 264.943 537.086C265.646 534.311 269.164 518.848 265.778 497.217C258.699 496.688 261.997 486.467 258.567 483.604C259.139 483.251 260.81 485.542 261.029 486.247C261.865 489.022 262.437 496.468 268.153 496.468C273.913 496.468 274.485 489.022 275.32 486.247C275.54 485.542 277.211 483.251 277.783 483.604C274.353 486.467 277.651 496.688 270.571 497.217C267.141 518.848 270.703 534.311 271.407 537.086C273.869 546.999 272.506 551.757 272.506 551.757C272.418 546.118 272.462 545.897 271.407 541.58C271.055 540.214 271.627 543.122 271.231 546.162C270.176 554.003 268.812 557.704 269.516 564.356C269.912 567.969 271.319 577.088 272.286 580.921C273.693 586.34 273.166 591.891 270.923 596.208C267.141 607.706 271.011 620.35 272.506 627.487C272.506 627.487 268.944 623.258 270.703 639.118C271.187 643.435 271.846 646.959 271.143 650.748C270.835 652.554 269.208 656.475 269.34 660.176C269.34 661.057 270.219 661.189 270.351 661.586C270.395 661.63 271.451 663.656 271.143 664.714L269.516 666.211C269.296 667.004 269.076 667.797 269.076 668.59C269.12 669.427 273.517 672.027 276.771 670.132C277.607 669.648 277.958 668.37 277.299 667.401C276.507 666.256 275.144 665.859 273.649 666.344C273.649 666.344 276.639 664.89 277.827 667.049C278.574 668.282 278.706 669.692 277.958 670.661C280.157 671.542 288.907 671.322 290.534 669.868C290.71 669.604 290.886 668.987 290.71 668.326C290.49 667.621 289.963 667.093 289.127 666.784C288.38 666.476 284.071 665.859 279.497 658.942C278.442 657.356 277.563 649.867 277.475 648.105C277.299 641.673 284.115 627.928 287.28 619.513C290.534 610.702 294.36 609.116 293.964 591.626C293.92 589.291 293.085 585.723 292.513 583.388C292.117 581.846 291.062 577.749 290.666 577.176C290.051 576.339 289.391 577.353 289.171 578.013C288.204 580.701 288.424 583.168 289.171 585.899C288.644 584.886 286.973 582.243 287.017 578.057C287.017 575.987 287.412 574.048 287.896 572.022C288.116 571.009 290.051 561.493 290.271 561.449C289.523 561.361 289.083 560.347 288.556 559.114C287.896 557.528 286.709 554.532 285.39 553.475C285.39 553.475 287.676 553.871 289.699 558.409C290.095 559.334 290.974 558.497 292.073 555.457C301.923 528.451 302.011 515.367 302.934 494C303.066 491.489 302.275 486.159 298.977 481.665C298.977 481.665 300.868 482.811 302.407 484.396C304.693 482.018 299.153 473.911 298.01 470.079C296.778 465.937 297.79 458.052 296.602 455.144L296.295 454.527C295.459 452.501 294.096 450.43 294.316 447.831C294.36 447.302 294.492 445.672 294.14 446.025C293.261 446.818 292.337 447.611 291.634 448.624C287.72 454.351 284.818 461.356 283.763 466.951C283.367 466.951 286.049 451.884 292.865 444.923C294.096 443.69 295.107 443.381 295.547 441.531C295.811 440.209 294.14 437.17 294.14 436.597C294.184 432.896 296.295 429.768 297.174 427.081C298.229 424.085 299.241 418.931 298.977 412.543C298.977 412.543 298.933 411.926 298.273 410.648C297.658 411.574 296.251 411.75 293.964 411.75C289.391 411.75 281.74 409.767 278.266 410.12C278.266 410.12 280.289 407.697 286.181 409.062ZM295.195 371.968C295.195 371.968 291.062 372.629 285.697 374.656C283.939 375.316 280.421 376.55 278.354 377.123C275.496 377.96 273.649 374.7 276.156 375.096C278.178 375.36 282.224 374.744 284.95 373.73C287.236 372.893 292.469 371.263 295.195 371.968ZM257.995 377.123C255.929 376.55 252.411 375.316 250.652 374.656C245.288 372.629 241.154 371.968 241.154 371.968C243.881 371.263 249.113 372.893 251.4 373.73C254.126 374.744 258.171 375.36 260.194 375.096C262.7 374.7 260.854 377.96 257.995 377.123ZM250.74 567.969L250.784 568.453C251.004 570.304 252.103 573.432 254.214 574.137C254.214 574.137 250.081 575.414 249.685 568.806C249.641 567.616 248.585 564.577 248.19 563.96C247.09 562.374 248.322 561.405 248.322 561.405C248.41 562.154 248.893 562.814 249.377 563.519C249.817 564.092 250.256 564.709 250.476 565.414C250.652 565.986 250.652 566.603 250.696 567.132C250.696 567.44 250.74 567.704 250.74 567.969ZM282.136 574.137C284.246 573.432 285.346 570.304 285.522 568.453L285.61 567.969C285.61 567.704 285.654 567.44 285.654 567.132C285.654 566.603 285.697 565.986 285.873 565.414C286.093 564.709 286.533 564.092 286.973 563.519C287.456 562.814 287.94 562.154 288.028 561.405C288.028 561.405 289.259 562.374 288.16 563.96C287.764 564.577 286.709 567.616 286.665 568.806C286.269 575.414 282.136 574.137 282.136 574.137ZM268.197 379.325H268.153C265.339 379.193 265.295 377.123 265.646 376.726C266.35 375.977 265.69 377.695 268.153 377.695C270.659 377.695 270 375.977 270.703 376.726C271.055 377.123 271.011 379.193 268.197 379.325ZM267.185 445.496C267.317 444.615 268.065 444.174 269.12 444.218C270.132 444.306 271.231 444.879 271.231 445.54C271.231 445.54 270.923 446.333 270.263 445.804C270.132 445.716 269.78 445.011 268.9 444.879C267.977 444.747 267.185 445.496 267.185 445.496ZM270 431.266C269.956 434.174 269.78 437.566 269.296 441.487C269.208 442.104 268.593 442.104 268.637 441.443C269.252 432.235 269.252 423.292 268.153 417.521C268.153 417.521 270 421.75 270 431.266ZM275.144 563.828C275.32 565.281 275.76 566.603 276.507 567.704C276.727 568.057 276.859 568.63 276.991 569.29C277.255 570.304 277.519 571.581 278.266 572.242C278.266 572.242 275.848 571.758 275.54 569.379C275.452 568.806 275.276 568.277 275.144 568.057C273.869 566.119 275.144 563.828 275.144 563.828ZM261.205 563.828C261.205 563.828 262.437 566.119 261.205 568.057C261.073 568.277 260.898 568.806 260.81 569.379C260.502 571.758 258.083 572.242 258.083 572.242C258.831 571.581 259.095 570.304 259.359 569.29C259.49 568.63 259.622 568.057 259.842 567.704C260.59 566.603 261.029 565.281 261.205 563.828Z" fill="#725839"/>
<path fill-rule="evenodd" clip-rule="evenodd" d="M268.152 354.523C269.559 354.523 271.362 355.139 272.769 354.479C274.396 353.686 277.606 349.456 280.157 347.87C281.256 347.21 282.619 344.082 282.575 336.945L282.883 334.918C283.367 333.112 281.915 329.72 281.256 328.09C280.904 327.209 281.915 325.799 282.575 324.257C283.367 322.539 283.938 320.468 283.323 318.838C282.619 316.988 275.32 309.631 268.152 309.631C261.029 309.631 253.73 316.988 253.026 318.838C252.411 320.468 252.982 322.539 253.774 324.257C254.433 325.799 255.445 327.209 255.093 328.09C252.191 335.006 253.818 334.39 253.774 336.945C253.73 344.082 255.093 347.21 256.192 347.87C258.742 349.456 261.952 353.686 263.579 354.479C264.986 355.139 266.789 354.523 268.152 354.523Z" fill="#775734"/>
<path fill-rule="evenodd" clip-rule="evenodd" d="M284.377 330.689C284.246 332.848 283.19 335.932 283.19 336.593V338.883C283.234 338.839 284.509 338.663 284.465 337.385C284.421 336.02 284.773 335.8 285.345 334.962C285.829 334.258 286.092 332.804 285.96 332.055C285.829 331.526 285.125 330.249 284.377 330.689Z" fill="#725839"/>
<path fill-rule="evenodd" clip-rule="evenodd" d="M253.158 336.593C253.158 335.976 252.103 332.848 251.971 330.689C251.223 330.249 250.52 331.526 250.388 332.055C250.256 332.804 250.52 334.258 251.004 334.962C251.575 335.8 251.927 336.02 251.883 337.385C251.839 338.663 253.114 338.839 253.158 338.883V336.593Z" fill="#725839"/>
<line x1="252.843" y1="322.704" x2="283.55" y2="322.704" stroke="white" stroke-width="1.54044" stroke-dasharray="3.08 3.08"/>
<line x1="252.843" y1="359.589" x2="283.55" y2="359.589" stroke="white" stroke-width="1.54044" stroke-dasharray="3.08 3.08"/>
<line x1="235.954" y1="405.695" x2="301.974" y2="405.695" stroke="white" stroke-width="1.54044" stroke-dasharray="3.08 3.08"/>
<line x1="269.732" y1="563.224" x2="301.974" y2="563.224" stroke="white" stroke-width="1.54044" stroke-dasharray="3.08 3.08"/>
<line x1="311.954" y1="481.001" x2="321.934" y2="481.001" stroke="white" stroke-width="1.54044" stroke-dasharray="3.08 3.08"/>
</g>
<line x1="284.318" y1="322.835" x2="321.934" y2="322.835" stroke="black" stroke-width="1.54044"/>
<rect x="305.813" y="308.874" width="59.8783" height="28.4321" rx="14.216" fill="#240A00"/>
<path d="M324.732 321.245C324.732 320.526 324.992 319.938 325.511 319.482C326.034 319.022 326.71 318.792 327.538 318.792C328.335 318.792 328.984 318.999 329.486 319.413C329.988 319.824 330.239 320.349 330.239 320.988C330.239 321.216 330.204 321.437 330.134 321.651C330.067 321.862 329.958 322.074 329.808 322.288C329.66 322.499 329.511 322.69 329.36 322.862C329.209 323.03 329.012 323.236 328.77 323.478L326.917 325.263V325.294H330.345V326.558H324.821V325.489L327.686 322.73C328.072 322.344 328.335 322.034 328.475 321.798C328.619 321.563 328.691 321.314 328.691 321.051C328.691 320.763 328.577 320.521 328.349 320.324C328.121 320.128 327.833 320.029 327.486 320.029C327.117 320.029 326.812 320.145 326.569 320.377C326.327 320.605 326.206 320.894 326.206 321.245V321.272H324.732V321.245ZM336.521 325.658C335.977 326.37 335.227 326.727 334.272 326.727C333.318 326.727 332.566 326.372 332.019 325.663C331.471 324.95 331.198 323.978 331.198 322.746C331.198 321.521 331.471 320.556 332.019 319.85C332.57 319.141 333.321 318.787 334.272 318.787C335.224 318.787 335.973 319.139 336.521 319.845C337.068 320.55 337.342 321.516 337.342 322.741C337.342 323.969 337.068 324.942 336.521 325.658ZM333.198 324.742C333.458 325.215 333.816 325.452 334.272 325.452C334.729 325.452 335.085 325.217 335.341 324.747C335.597 324.273 335.726 323.606 335.726 322.746C335.726 321.893 335.596 321.233 335.336 320.766C335.08 320.296 334.725 320.061 334.272 320.061C333.82 320.061 333.463 320.296 333.204 320.766C332.944 321.237 332.814 321.897 332.814 322.746C332.814 323.603 332.942 324.268 333.198 324.742ZM339.59 326.374C339.425 326.539 339.225 326.621 338.99 326.621C338.755 326.621 338.555 326.539 338.39 326.374C338.225 326.209 338.142 326.009 338.142 325.774C338.142 325.538 338.225 325.338 338.39 325.173C338.555 325.008 338.755 324.926 338.99 324.926C339.225 324.926 339.425 325.008 339.59 325.173C339.755 325.338 339.838 325.538 339.838 325.774C339.838 326.009 339.755 326.209 339.59 326.374ZM345.956 325.658C345.412 326.37 344.662 326.727 343.708 326.727C342.753 326.727 342.002 326.372 341.454 325.663C340.906 324.95 340.633 323.978 340.633 322.746C340.633 321.521 340.906 320.556 341.454 319.85C342.005 319.141 342.756 318.787 343.708 318.787C344.659 318.787 345.408 319.139 345.956 319.845C346.503 320.55 346.777 321.516 346.777 322.741C346.777 323.969 346.503 324.942 345.956 325.658ZM342.633 324.742C342.893 325.215 343.251 325.452 343.708 325.452C344.164 325.452 344.52 325.217 344.776 324.747C345.033 324.273 345.161 323.606 345.161 322.746C345.161 321.893 345.031 321.233 344.771 320.766C344.515 320.296 344.16 320.061 343.708 320.061C343.255 320.061 342.898 320.296 342.639 320.766C342.379 321.237 342.249 321.897 342.249 322.746C342.249 323.603 342.377 324.268 342.633 324.742Z" fill="white"/>
<path d="M330.106 349.38H329.294V346.414H325.72V349.38H324.907V342.867H325.72V345.683H329.294V342.867H330.106V349.38ZM335.405 348.648V349.38H331.37V342.867H335.405V343.598H332.182V345.688H335.238V346.41H332.182V348.648H335.405ZM340.712 349.38L340.058 347.516H337.467L336.813 349.38H335.96L338.361 342.867H339.164L341.565 349.38H340.712ZM338.749 343.856L337.706 346.825H339.818L338.776 343.856H338.749ZM342.309 342.867H344.543C345.509 342.867 346.263 343.155 346.804 343.729C347.346 344.301 347.617 345.098 347.617 346.121C347.617 347.147 347.346 347.947 346.804 348.522C346.266 349.094 345.512 349.38 344.543 349.38H342.309V342.867ZM343.122 343.598V348.648H344.489C345.226 348.648 345.794 348.432 346.191 347.999C346.588 347.562 346.786 346.939 346.786 346.13C346.786 345.315 346.588 344.689 346.191 344.253C345.797 343.816 345.229 343.598 344.489 343.598H343.122Z" fill="black"/>
<line x1="302.742" y1="405.889" x2="340.358" y2="405.889" stroke="black" stroke-width="1.54044"/>
<rect x="324.237" y="391.865" width="59.8783" height="28.4321" rx="14.216" fill="#240A00"/>
<path d="M345.167 406.232V405.084H346.088C346.45 405.084 346.743 404.986 346.968 404.789C347.192 404.593 347.305 404.338 347.305 404.026C347.305 403.714 347.198 403.466 346.983 403.284C346.769 403.098 346.468 403.005 346.078 403.005C345.709 403.005 345.411 403.105 345.183 403.305C344.955 403.505 344.83 403.772 344.809 404.105H343.345C343.373 403.399 343.642 402.836 344.151 402.415C344.66 401.994 345.325 401.783 346.146 401.783C346.94 401.783 347.58 401.969 348.068 402.341C348.56 402.713 348.805 403.203 348.805 403.81C348.805 404.27 348.661 404.66 348.373 404.979C348.086 405.298 347.707 405.5 347.236 405.585V405.616C347.808 405.665 348.261 405.853 348.595 406.179C348.932 406.502 349.1 406.925 349.1 407.448C349.1 408.126 348.821 408.673 348.263 409.091C347.708 409.509 346.991 409.718 346.109 409.718C345.257 409.718 344.567 409.504 344.04 409.075C343.517 408.647 343.236 408.08 343.198 407.375H344.719C344.744 407.698 344.881 407.956 345.13 408.149C345.383 408.342 345.716 408.438 346.131 408.438C346.527 408.438 346.852 408.336 347.105 408.133C347.357 407.929 347.484 407.668 347.484 407.348C347.484 407.001 347.361 406.729 347.115 406.532C346.869 406.332 346.532 406.232 346.104 406.232H345.167ZM353.091 409.718C352.171 409.718 351.427 409.512 350.859 409.102C350.294 408.687 350.011 408.15 350.011 407.491C350.011 406.992 350.176 406.566 350.506 406.211C350.836 405.853 351.266 405.63 351.796 405.542V405.511C351.354 405.409 350.996 405.202 350.722 404.89C350.451 404.574 350.316 404.207 350.316 403.789C350.316 403.206 350.576 402.727 351.096 402.352C351.615 401.973 352.28 401.783 353.091 401.783C353.905 401.783 354.571 401.973 355.087 402.352C355.603 402.727 355.861 403.208 355.861 403.794C355.861 404.205 355.725 404.568 355.455 404.884C355.185 405.197 354.829 405.406 354.386 405.511V405.542C354.92 405.634 355.35 405.858 355.676 406.216C356.006 406.571 356.171 406.997 356.171 407.496C356.171 408.156 355.885 408.691 355.313 409.102C354.744 409.512 354.004 409.718 353.091 409.718ZM352.064 408.228C352.331 408.449 352.673 408.559 353.091 408.559C353.509 408.559 353.849 408.449 354.113 408.228C354.376 408.003 354.507 407.719 354.507 407.375C354.507 407.031 354.376 406.748 354.113 406.527C353.849 406.302 353.509 406.19 353.091 406.19C352.673 406.19 352.331 406.302 352.064 406.527C351.801 406.748 351.669 407.031 351.669 407.375C351.669 407.719 351.801 408.003 352.064 408.228ZM352.228 404.737C352.452 404.933 352.74 405.032 353.091 405.032C353.442 405.032 353.73 404.933 353.955 404.737C354.179 404.537 354.292 404.286 354.292 403.984C354.292 403.679 354.179 403.428 353.955 403.231C353.73 403.031 353.442 402.931 353.091 402.931C352.74 402.931 352.452 403.031 352.228 403.231C352.003 403.428 351.891 403.679 351.891 403.984C351.891 404.289 352.003 404.54 352.228 404.737ZM358.709 409.365C358.544 409.53 358.344 409.612 358.109 409.612C357.874 409.612 357.674 409.53 357.509 409.365C357.344 409.2 357.261 409 357.261 408.765C357.261 408.53 357.344 408.329 357.509 408.164C357.674 407.999 357.874 407.917 358.109 407.917C358.344 407.917 358.544 407.999 358.709 408.164C358.874 408.329 358.956 408.53 358.956 408.765C358.956 409 358.874 409.2 358.709 409.365ZM365.075 408.649C364.531 409.361 363.781 409.718 362.826 409.718C361.872 409.718 361.12 409.363 360.573 408.654C360.025 407.942 359.752 406.969 359.752 405.737C359.752 404.512 360.025 403.547 360.573 402.841C361.124 402.132 361.875 401.778 362.826 401.778C363.778 401.778 364.527 402.131 365.075 402.836C365.622 403.542 365.896 404.507 365.896 405.732C365.896 406.96 365.622 407.933 365.075 408.649ZM361.752 407.733C362.012 408.207 362.37 408.444 362.826 408.444C363.283 408.444 363.639 408.208 363.895 407.738C364.151 407.264 364.28 406.597 364.28 405.737C364.28 404.884 364.15 404.224 363.89 403.758C363.634 403.287 363.279 403.052 362.826 403.052C362.374 403.052 362.017 403.287 361.758 403.758C361.498 404.228 361.368 404.888 361.368 405.737C361.368 406.594 361.496 407.259 361.752 407.733Z" fill="white"/>
<path d="M343.056 432.479C342.156 432.479 341.442 432.177 340.912 431.572C340.386 430.964 340.123 430.144 340.123 429.112C340.123 428.089 340.389 427.274 340.921 426.666C341.454 426.055 342.166 425.75 343.056 425.75C343.766 425.75 344.368 425.949 344.861 426.346C345.358 426.74 345.657 427.262 345.759 427.912H344.938C344.833 427.485 344.609 427.143 344.266 426.887C343.923 426.629 343.519 426.499 343.056 426.499C342.421 426.499 341.913 426.737 341.531 427.212C341.149 427.688 340.958 428.321 340.958 429.112C340.958 429.913 341.147 430.549 341.526 431.021C341.905 431.494 342.417 431.73 343.061 431.73C343.539 431.73 343.942 431.62 344.27 431.4C344.598 431.181 344.821 430.872 344.938 430.475H345.759C345.609 431.119 345.301 431.614 344.834 431.96C344.368 432.306 343.775 432.479 343.056 432.479ZM351.92 432.371H351.107V429.406H347.533V432.371H346.721V425.858H347.533V428.674H351.107V425.858H351.92V432.371ZM357.218 431.64V432.371H353.183V425.858H357.218V426.589H353.996V428.679H357.051V429.401H353.996V431.64H357.218ZM357.981 430.579H358.797C358.837 430.931 359.008 431.214 359.312 431.427C359.619 431.641 360.005 431.748 360.472 431.748C360.911 431.748 361.274 431.644 361.559 431.436C361.848 431.226 361.993 430.961 361.993 430.642C361.993 430.368 361.892 430.143 361.69 429.965C361.492 429.788 361.173 429.642 360.733 429.527L359.899 429.311C359.297 429.157 358.858 428.944 358.581 428.67C358.304 428.393 358.166 428.034 358.166 427.591C358.166 427.05 358.379 426.608 358.806 426.265C359.237 425.922 359.79 425.75 360.467 425.75C361.114 425.75 361.65 425.925 362.074 426.274C362.498 426.62 362.719 427.065 362.737 427.609H361.925C361.889 427.26 361.738 426.985 361.474 426.784C361.209 426.582 360.864 426.481 360.44 426.481C360.019 426.481 359.674 426.58 359.407 426.779C359.142 426.978 359.01 427.236 359.01 427.555C359.01 427.802 359.106 428.005 359.298 428.164C359.494 428.321 359.813 428.456 360.255 428.571L360.937 428.751C361.611 428.92 362.095 429.144 362.39 429.424C362.685 429.703 362.832 430.077 362.832 430.543C362.832 431.139 362.612 431.611 362.173 431.96C361.737 432.306 361.144 432.479 360.395 432.479C359.703 432.479 359.137 432.306 358.698 431.96C358.259 431.614 358.02 431.154 357.981 430.579ZM366.284 432.371H365.472V426.589H363.374V425.858H368.383V426.589H366.284V432.371Z" fill="black"/>
<line x1="290.459" y1="563.538" x2="328.075" y2="563.538" stroke="black" stroke-width="1.54044"/>
<rect x="311.953" y="549.394" width="59.8783" height="28.4321" rx="14.216" fill="#240A00"/>
<path d="M333.889 567.078V560.939H333.858L331.92 562.276V560.844L333.884 559.48H335.463V567.078H333.889ZM340.091 567.247C339.277 567.247 338.603 567.029 338.07 566.594C337.54 566.155 337.262 565.592 337.238 564.904H338.707C338.752 565.227 338.903 565.488 339.16 565.688C339.419 565.888 339.733 565.988 340.102 565.988C340.516 565.988 340.853 565.858 341.113 565.599C341.376 565.335 341.508 564.997 341.508 564.582C341.508 564.161 341.378 563.817 341.118 563.55C340.858 563.284 340.523 563.15 340.113 563.15C339.825 563.15 339.563 563.213 339.328 563.34C339.096 563.463 338.914 563.633 338.78 563.851H337.359L337.733 559.48H342.566V560.744H338.981L338.807 562.824H338.838C338.996 562.564 339.221 562.361 339.512 562.213C339.807 562.066 340.146 561.992 340.528 561.992C341.255 561.992 341.852 562.232 342.319 562.713C342.789 563.191 343.024 563.8 343.024 564.54C343.024 565.344 342.752 565.997 342.208 566.499C341.668 566.997 340.962 567.247 340.091 567.247ZM345.472 566.894C345.307 567.059 345.107 567.141 344.872 567.141C344.637 567.141 344.437 567.059 344.272 566.894C344.107 566.729 344.025 566.529 344.025 566.294C344.025 566.058 344.107 565.858 344.272 565.693C344.437 565.528 344.637 565.446 344.872 565.446C345.107 565.446 345.307 565.528 345.472 565.693C345.637 565.858 345.72 566.058 345.72 566.294C345.72 566.529 345.637 566.729 345.472 566.894ZM351.838 566.178C351.294 566.89 350.545 567.247 349.59 567.247C348.635 567.247 347.884 566.892 347.336 566.183C346.789 565.47 346.515 564.498 346.515 563.266C346.515 562.041 346.789 561.076 347.336 560.37C347.887 559.661 348.639 559.307 349.59 559.307C350.541 559.307 351.29 559.66 351.838 560.365C352.386 561.071 352.659 562.036 352.659 563.261C352.659 564.489 352.386 565.462 351.838 566.178ZM348.516 565.262C348.775 565.736 349.134 565.972 349.59 565.972C350.046 565.972 350.402 565.737 350.659 565.267C350.915 564.793 351.043 564.126 351.043 563.266C351.043 562.413 350.913 561.753 350.653 561.286C350.397 560.816 350.043 560.581 349.59 560.581C349.137 560.581 348.781 560.816 348.521 561.286C348.261 561.757 348.131 562.417 348.131 563.266C348.131 564.123 348.259 564.788 348.516 565.262Z" fill="white"/>
<line y1="-0.770218" x2="66.0197" y2="-0.770218" transform="matrix(-1 0 0 1 301.974 489.714)" stroke="white" stroke-width="1.54044" stroke-dasharray="3.08 3.08"/>
<line y1="-0.770218" x2="37.6159" y2="-0.770218" transform="matrix(-1 0 0 1 235.187 489.714)" stroke="black" stroke-width="1.54044"/>
<rect width="59.8783" height="28.4321" rx="14.216" transform="matrix(-1 0 0 1 213.692 474.856)" fill="#240A00"/>
<path d="M176.587 492.54V491.187H172.806V489.834C173.424 488.654 174.44 487.024 175.855 484.942H178.098V489.913H179.088V491.187H178.098V492.54H176.587ZM174.201 489.918V489.96H176.618V486.069H176.587C176 486.926 175.53 487.64 175.176 488.212C174.821 488.781 174.496 489.349 174.201 489.918ZM185.148 491.64C184.604 492.352 183.854 492.708 182.9 492.708C181.945 492.708 181.194 492.354 180.646 491.645C180.098 490.932 179.825 489.96 179.825 488.728C179.825 487.503 180.098 486.538 180.646 485.832C181.197 485.123 181.948 484.769 182.9 484.769C183.851 484.769 184.6 485.121 185.148 485.827C185.695 486.532 185.969 487.498 185.969 488.723C185.969 489.951 185.695 490.924 185.148 491.64ZM181.825 490.723C182.085 491.197 182.443 491.434 182.9 491.434C183.356 491.434 183.712 491.199 183.968 490.729C184.225 490.255 184.353 489.588 184.353 488.728C184.353 487.875 184.223 487.215 183.963 486.748C183.707 486.278 183.352 486.043 182.9 486.043C182.447 486.043 182.09 486.278 181.831 486.748C181.571 487.219 181.441 487.879 181.441 488.728C181.441 489.584 181.569 490.25 181.825 490.723ZM188.217 492.356C188.052 492.521 187.852 492.603 187.617 492.603C187.382 492.603 187.182 492.521 187.017 492.356C186.852 492.191 186.769 491.991 186.769 491.755C186.769 491.52 186.852 491.32 187.017 491.155C187.182 490.99 187.382 490.908 187.617 490.908C187.852 490.908 188.052 490.99 188.217 491.155C188.382 491.32 188.465 491.52 188.465 491.755C188.465 491.991 188.382 492.191 188.217 492.356ZM194.583 491.64C194.039 492.352 193.289 492.708 192.335 492.708C191.38 492.708 190.629 492.354 190.081 491.645C189.534 490.932 189.26 489.96 189.26 488.728C189.26 487.503 189.534 486.538 190.081 485.832C190.632 485.123 191.383 484.769 192.335 484.769C193.286 484.769 194.035 485.121 194.583 485.827C195.13 486.532 195.404 487.498 195.404 488.723C195.404 489.951 195.13 490.924 194.583 491.64ZM191.261 490.723C191.52 491.197 191.878 491.434 192.335 491.434C192.791 491.434 193.147 491.199 193.404 490.729C193.66 490.255 193.788 489.588 193.788 488.728C193.788 487.875 193.658 487.215 193.398 486.748C193.142 486.278 192.787 486.043 192.335 486.043C191.882 486.043 191.526 486.278 191.266 486.748C191.006 487.219 190.876 487.879 190.876 488.728C190.876 489.584 191.004 490.25 191.261 490.723Z" fill="white"/>
<path d="M174.979 510.194L173.476 515.361H172.709L170.936 508.849H171.784L173.088 514.165H173.124L174.591 508.849H175.413L176.879 514.165H176.915L178.22 508.849H179.068L177.294 515.361H176.527L175.024 510.194H174.979ZM183.549 515.361L182.895 513.498H180.305L179.65 515.361H178.797L181.198 508.849H182.001L184.402 515.361H183.549ZM181.586 509.837L180.544 512.807H182.656L181.613 509.837H181.586ZM185.959 515.361H185.147V508.849H185.959V515.361ZM186.912 513.57H187.728C187.768 513.922 187.939 514.205 188.243 514.418C188.55 514.632 188.936 514.739 189.403 514.739C189.842 514.739 190.205 514.635 190.49 514.427C190.779 514.217 190.924 513.952 190.924 513.633C190.924 513.359 190.823 513.133 190.621 512.956C190.423 512.778 190.104 512.633 189.665 512.518L188.83 512.302C188.228 512.148 187.789 511.935 187.512 511.661C187.235 511.384 187.097 511.024 187.097 510.582C187.097 510.041 187.31 509.598 187.738 509.255C188.168 508.912 188.721 508.741 189.398 508.741C190.045 508.741 190.581 508.915 191.005 509.264C191.429 509.61 191.65 510.056 191.668 510.6H190.856C190.82 510.251 190.669 509.976 190.405 509.774C190.14 509.573 189.795 509.472 189.371 509.472C188.95 509.472 188.606 509.571 188.338 509.77C188.073 509.968 187.941 510.227 187.941 510.546C187.941 510.793 188.037 510.996 188.229 511.155C188.425 511.312 188.744 511.447 189.186 511.561L189.868 511.742C190.542 511.91 191.026 512.135 191.321 512.414C191.616 512.694 191.763 513.067 191.763 513.534C191.763 514.129 191.543 514.602 191.104 514.951C190.668 515.297 190.075 515.47 189.326 515.47C188.634 515.47 188.068 515.297 187.629 514.951C187.19 514.605 186.951 514.144 186.912 513.57ZM195.216 515.361H194.403V509.58H192.305V508.849H197.314V509.58H195.216V515.361Z" fill="black"/>
<line y1="-0.770218" x2="37.6159" y2="-0.770218" transform="matrix(-1 0 0 1 252.843 361.287)" stroke="black" stroke-width="1.54044"/>
<rect width="59.8783" height="28.4321" rx="14.216" transform="matrix(-1 0 0 1 221.369 346.527)" fill="#240A00"/>
<path d="M181.447 387.032H180.644V380.52H181.434L184.999 385.633H185.039V380.52H185.843V387.032H185.053L181.488 381.937H181.447V387.032ZM191.141 386.301V387.032H187.106V380.52H191.141V381.251H187.919V383.341H190.974V384.063H187.919V386.301H191.141ZM194.896 387.141C193.996 387.141 193.282 386.838 192.752 386.234C192.226 385.626 191.962 384.806 191.962 383.774C191.962 382.751 192.229 381.936 192.761 381.328C193.294 380.717 194.005 380.412 194.896 380.412C195.606 380.412 196.208 380.61 196.701 381.008C197.197 381.402 197.497 381.924 197.599 382.574H196.778C196.672 382.146 196.448 381.805 196.105 381.549C195.762 381.29 195.359 381.161 194.896 381.161C194.261 381.161 193.753 381.399 193.37 381.874C192.988 382.349 192.797 382.983 192.797 383.774C192.797 384.574 192.987 385.211 193.366 385.683C193.745 386.155 194.256 386.392 194.9 386.392C195.379 386.392 195.782 386.282 196.11 386.062C196.438 385.843 196.66 385.534 196.778 385.137H197.599C197.449 385.781 197.14 386.276 196.674 386.622C196.208 386.968 195.615 387.141 194.896 387.141ZM199.373 387.032H198.56V380.52H199.373V383.697H199.418L202.293 380.52H203.317L200.641 383.404L203.556 387.032H202.518L200.077 383.982L199.373 384.758V387.032Z" fill="black"/>
<path d="M184.211 364.211V358.072H184.179L182.242 359.409V357.977L184.205 356.613H185.785V364.211H184.211ZM187.886 364.211L191.155 357.909V357.877H187.291V356.613H192.724V357.893L189.555 364.211H187.886ZM194.225 364.027C194.06 364.192 193.86 364.274 193.625 364.274C193.39 364.274 193.19 364.192 193.025 364.027C192.86 363.862 192.777 363.662 192.777 363.427C192.777 363.191 192.86 362.991 193.025 362.826C193.19 362.661 193.39 362.579 193.625 362.579C193.86 362.579 194.06 362.661 194.225 362.826C194.39 362.991 194.472 363.191 194.472 363.427C194.472 363.662 194.39 363.862 194.225 364.027ZM200.591 363.311C200.047 364.023 199.297 364.38 198.342 364.38C197.388 364.38 196.636 364.025 196.089 363.316C195.541 362.603 195.268 361.631 195.268 360.399C195.268 359.174 195.541 358.209 196.089 357.503C196.64 356.794 197.391 356.44 198.342 356.44C199.294 356.44 200.043 356.792 200.591 357.498C201.138 358.204 201.412 359.169 201.412 360.394C201.412 361.622 201.138 362.595 200.591 363.311ZM197.268 362.395C197.528 362.868 197.886 363.105 198.342 363.105C198.799 363.105 199.155 362.87 199.411 362.4C199.667 361.926 199.796 361.259 199.796 360.399C199.796 359.546 199.666 358.886 199.406 358.419C199.15 357.949 198.795 357.714 198.342 357.714C197.89 357.714 197.533 357.949 197.274 358.419C197.014 358.89 196.884 359.55 196.884 360.399C196.884 361.256 197.012 361.921 197.268 362.395Z" fill="white"/>
<rect x="111.648" y="151.174" width="316.244" height="77.5852" fill="#FFD95F"/>
<rect opacity="0.35" x="395.424" y="165.216" width="17.7097" height="8.06262" rx="1.82719" stroke="#222222" stroke-width="0.843317"/>
<path opacity="0.4" d="M414.399 167.676V170.819C415.077 170.553 415.519 169.933 415.519 169.247C415.519 168.561 415.077 167.942 414.399 167.676Z" fill="#222222"/>
<rect x="396.689" y="166.366" width="15.1797" height="5.76267" rx="1.12442" fill="#222222"/>
<path fill-rule="evenodd" clip-rule="evenodd" d="M384.318 166.582C386.187 166.582 387.984 167.251 389.338 168.451C389.44 168.543 389.603 168.542 389.704 168.448L390.679 167.531C390.729 167.484 390.758 167.419 390.757 167.352C390.757 167.285 390.728 167.22 390.676 167.173C387.122 163.999 381.514 163.999 377.959 167.173C377.908 167.22 377.878 167.284 377.878 167.352C377.877 167.419 377.906 167.484 377.957 167.531L378.932 168.448C379.032 168.542 379.195 168.544 379.297 168.451C380.652 167.251 382.449 166.582 384.318 166.582ZM384.318 169.565C385.345 169.564 386.335 169.92 387.096 170.562C387.199 170.653 387.361 170.651 387.461 170.558L388.435 169.641C388.486 169.593 388.515 169.528 388.514 169.46C388.513 169.392 388.483 169.327 388.431 169.28C386.114 167.271 382.524 167.271 380.207 169.28C380.154 169.327 380.125 169.392 380.124 169.46C380.123 169.528 380.152 169.593 380.203 169.641L381.177 170.558C381.277 170.651 381.439 170.653 381.542 170.562C382.303 169.921 383.292 169.565 384.318 169.565ZM386.269 171.571C386.27 171.639 386.241 171.705 386.189 171.753L384.505 173.337C384.456 173.383 384.388 173.409 384.318 173.409C384.248 173.409 384.18 173.383 384.131 173.337L382.446 171.753C382.394 171.705 382.366 171.639 382.367 171.571C382.369 171.503 382.4 171.439 382.455 171.393C383.53 170.546 385.106 170.546 386.181 171.393C386.236 171.439 386.267 171.503 386.269 171.571Z" fill="#222222"/>
<path fill-rule="evenodd" clip-rule="evenodd" d="M372.795 165.056H371.952C371.486 165.056 371.109 165.408 371.109 165.842V172.653C371.109 173.087 371.486 173.438 371.952 173.438H372.795C373.261 173.438 373.638 173.087 373.638 172.653V165.842C373.638 165.408 373.261 165.056 372.795 165.056ZM368.016 166.89H368.86C369.325 166.89 369.703 167.242 369.703 167.676V172.653C369.703 173.087 369.325 173.438 368.86 173.438H368.016C367.551 173.438 367.173 173.087 367.173 172.653V167.676C367.173 167.242 367.551 166.89 368.016 166.89ZM364.924 168.723H364.081C363.615 168.723 363.238 169.075 363.238 169.509V172.653C363.238 173.087 363.615 173.438 364.081 173.438H364.924C365.39 173.438 365.768 173.087 365.768 172.653V169.509C365.768 169.075 365.39 168.723 364.924 168.723ZM360.989 170.295H360.145C359.68 170.295 359.302 170.647 359.302 171.081V172.652C359.302 173.086 359.68 173.438 360.145 173.438H360.989C361.454 173.438 361.832 173.086 361.832 172.652V171.081C361.832 170.647 361.454 170.295 360.989 170.295Z" fill="#222222"/>
<path d="M146.134 176.628C145.232 176.628 144.464 176.385 143.83 175.897C143.197 175.405 142.807 174.753 142.661 173.942H144.418C144.532 174.316 144.742 174.612 145.047 174.831C145.357 175.045 145.724 175.152 146.148 175.152C146.868 175.152 147.431 174.835 147.836 174.202C148.242 173.564 148.445 172.68 148.445 171.549H148.383H148.349H148.328C148.096 172.019 147.757 172.383 147.31 172.643C146.863 172.898 146.351 173.026 145.772 173.026C144.833 173.026 144.056 172.716 143.441 172.096C142.83 171.476 142.525 170.693 142.525 169.745C142.525 168.733 142.867 167.903 143.55 167.256C144.238 166.605 145.118 166.279 146.189 166.279C146.909 166.279 147.547 166.445 148.103 166.778C148.659 167.111 149.103 167.594 149.436 168.227C149.901 169.052 150.133 170.091 150.133 171.344C150.133 173.003 149.78 174.3 149.074 175.234C148.367 176.164 147.387 176.628 146.134 176.628ZM144.801 171.084C145.166 171.444 145.631 171.625 146.196 171.625C146.761 171.625 147.228 171.444 147.597 171.084C147.966 170.724 148.151 170.269 148.151 169.717C148.151 169.161 147.964 168.694 147.59 168.316C147.216 167.938 146.754 167.749 146.203 167.749C145.651 167.749 145.189 167.935 144.815 168.309C144.441 168.678 144.254 169.139 144.254 169.69C144.254 170.255 144.437 170.72 144.801 171.084ZM152.95 175.343C152.631 175.343 152.369 175.241 152.164 175.036C151.959 174.831 151.856 174.573 151.856 174.263C151.856 173.949 151.959 173.691 152.164 173.491C152.369 173.286 152.631 173.183 152.95 173.183C153.273 173.183 153.535 173.286 153.736 173.491C153.941 173.691 154.044 173.949 154.044 174.263C154.044 174.573 153.941 174.831 153.736 175.036C153.535 175.241 153.273 175.343 152.95 175.343ZM152.95 170.216C152.631 170.216 152.369 170.116 152.164 169.916C151.959 169.71 151.856 169.453 151.856 169.143C151.856 168.829 151.959 168.571 152.164 168.371C152.369 168.166 152.631 168.063 152.95 168.063C153.273 168.063 153.535 168.166 153.736 168.371C153.941 168.571 154.044 168.829 154.044 169.143C154.044 169.453 153.941 169.71 153.736 169.916C153.535 170.116 153.273 170.216 152.95 170.216ZM160.579 176.389V174.55H155.76V172.978C156.562 171.501 157.902 169.35 159.779 166.525H162.268V173.06H163.601V174.55H162.268V176.389H160.579ZM157.393 172.999V173.101H160.606V167.96H160.511C159.444 169.537 158.405 171.217 157.393 172.999ZM167.525 176.389V168.302H167.408L164.954 170.025V168.33L167.531 166.525H169.288V176.389H167.525Z" fill="black"/>
<line opacity="0.03" x1="111.648" y1="185.328" x2="427.892" y2="185.328" stroke="#2D3142" stroke-width="0.843317"/>
<line opacity="0.03" x1="111.648" y1="185.328" x2="427.892" y2="185.328" stroke="#2D3142" stroke-width="0.843317"/>
<g clip-path="url(#clip3_636_5474)">
<path d="M146.747 200.077C146.334 199.664 145.667 199.664 145.254 200.077L138.246 207.085C137.917 207.414 137.917 207.946 138.246 208.275L145.254 215.283C145.667 215.696 146.334 215.696 146.747 215.283C147.16 214.869 147.16 214.203 146.747 213.79L140.641 207.676L146.755 201.562C147.16 201.157 147.16 200.482 146.747 200.077Z" fill="#222222"/>
</g>
<path d="M253.868 212.243H252.168V202.736H253.868V207.183H253.927L257.722 202.736H259.679L256.016 206.952L259.962 212.243H257.894L254.804 208.092L253.868 209.186V212.243ZM263.375 206.221C262.896 206.221 262.497 206.381 262.176 206.702C261.856 207.018 261.678 207.433 261.642 207.947H265.055C265.038 207.429 264.875 207.011 264.568 206.695C264.26 206.379 263.863 206.221 263.375 206.221ZM265.062 210.101H266.604C266.498 210.769 266.153 211.311 265.569 211.729C264.985 212.142 264.273 212.348 263.435 212.348C262.372 212.348 261.53 212.019 260.911 211.36C260.296 210.701 259.989 209.805 259.989 208.672C259.989 207.538 260.294 206.634 260.905 205.957C261.519 205.281 262.343 204.943 263.375 204.943C264.385 204.943 265.187 205.263 265.78 205.905C266.373 206.546 266.669 207.411 266.669 208.5V209.041H261.629V209.139C261.629 209.719 261.798 210.187 262.137 210.543C262.475 210.894 262.918 211.07 263.467 211.07C263.863 211.07 264.203 210.984 264.489 210.813C264.774 210.637 264.965 210.4 265.062 210.101ZM267.829 212.243V202.294H269.47V212.243H267.829ZM277.217 205.041L274.674 212.243H272.876L270.319 205.041H272.065L273.772 210.701H273.805L275.504 205.041H277.217ZM278.061 212.243V205.041H279.701V212.243H278.061ZM278.878 204.126C278.623 204.126 278.406 204.038 278.226 203.862C278.045 203.686 277.955 203.473 277.955 203.223C277.955 202.968 278.045 202.755 278.226 202.584C278.406 202.408 278.623 202.32 278.878 202.32C279.137 202.32 279.354 202.408 279.53 202.584C279.71 202.755 279.8 202.968 279.8 203.223C279.8 203.478 279.71 203.693 279.53 203.869C279.354 204.04 279.137 204.126 278.878 204.126ZM281.151 212.243V205.041H282.725V206.293H282.758C283.193 205.402 283.968 204.956 285.084 204.956C285.883 204.956 286.512 205.193 286.968 205.667C287.425 206.142 287.654 206.796 287.654 207.631V212.243H286.013V207.954C286.013 207.44 285.879 207.044 285.611 206.768C285.343 206.487 284.963 206.346 284.471 206.346C283.966 206.346 283.56 206.508 283.252 206.834C282.945 207.159 282.791 207.585 282.791 208.112V212.243H281.151Z" fill="#222222"/>
<path d="M347.607 206.933H345.672C345.595 206.444 345.381 206.049 345.03 205.747C344.678 205.445 344.223 205.294 343.663 205.294C342.987 205.294 342.447 205.561 342.04 206.093C341.634 206.626 341.431 207.342 341.431 208.243C341.431 209.165 341.634 209.89 342.04 210.417C342.447 210.944 342.99 211.207 343.671 211.207C344.22 211.207 344.667 211.07 345.013 210.796C345.365 210.521 345.587 210.128 345.68 209.618H347.616C347.528 210.606 347.124 211.397 346.405 211.99C345.691 212.583 344.774 212.879 343.654 212.879C342.342 212.879 341.296 212.465 340.517 211.636C339.737 210.801 339.347 209.67 339.347 208.243C339.347 206.837 339.737 205.717 340.517 204.882C341.296 204.042 342.337 203.622 343.638 203.622C344.785 203.622 345.716 203.935 346.43 204.561C347.144 205.187 347.536 205.978 347.607 206.933ZM348.884 212.747V203.746H350.852V205.327H350.893C351.091 204.806 351.418 204.394 351.873 204.092C352.335 203.79 352.862 203.639 353.455 203.639C354.092 203.639 354.627 203.795 355.061 204.108C355.5 204.416 355.805 204.855 355.975 205.426H356.016C356.236 204.877 356.595 204.443 357.095 204.125C357.6 203.801 358.176 203.639 358.824 203.639C359.708 203.639 360.419 203.911 360.957 204.454C361.495 204.998 361.764 205.72 361.764 206.62V212.747H359.714V207.123C359.714 206.563 359.571 206.132 359.285 205.83C359 205.522 358.594 205.368 358.067 205.368C357.55 205.368 357.13 205.541 356.807 205.887C356.483 206.233 356.321 206.681 356.321 207.23V212.747H354.328V207.007C354.328 206.502 354.182 206.104 353.891 205.813C353.6 205.517 353.205 205.368 352.705 205.368C352.189 205.368 351.764 205.55 351.429 205.912C351.099 206.269 350.935 206.724 350.935 207.279V212.747H348.884Z" fill="#222222"/>
<path fill-rule="evenodd" clip-rule="evenodd" d="M395.847 198.821H394.16V206.411H386.57V208.097H394.16V215.687H395.847V208.097H403.437V206.411H395.847V198.821Z" fill="#222222"/>
</g>
</g>
<defs>
<clipPath id="clip0_636_5474">
<rect width="540" height="626" fill="white"/>
</clipPath>
<clipPath id="clip1_636_5474">
<rect x="111.648" y="151.174" width="316.244" height="685.295" rx="28.4119" fill="white"/>
</clipPath>
<clipPath id="clip2_636_5474">
<rect width="110.545" height="363.47" fill="white" transform="translate(212.925 308.874)"/>
</clipPath>
<clipPath id="clip3_636_5474">
<rect width="20.2396" height="20.2396" fill="white" transform="translate(132.731 197.556)"/>
</clipPath>
</defs>
</svg>
