<svg width="142" height="142" viewBox="0 0 142 142" fill="none" xmlns="http://www.w3.org/2000/svg">
<path d="M141.743 114.961C141.077 111.754 139.192 109.015 136.435 107.245C133.678 105.477 130.402 104.906 127.209 105.637L112.408 109.025V102.975C115.376 100.179 118.467 96.5276 120.665 93.1908C124.52 87.3395 127.248 80.914 128.773 74.0963C130.587 65.9851 130.626 57.3983 128.885 49.261C128.564 47.7638 127.09 46.8083 125.592 47.1301C124.094 47.4496 123.141 48.9241 123.46 50.4224C125.035 57.7818 125.001 65.5496 123.359 72.8851C121.981 79.0452 119.516 84.851 116.033 90.1389C115 91.7066 113.748 93.3511 112.408 94.922V64.1802C112.408 62.6483 111.166 61.4068 109.634 61.4068H87.6948V31.7895C87.6948 30.2619 86.4587 29.0215 84.9311 29.016L60.2183 28.9326C60.215 28.9326 60.2128 28.9326 60.2096 28.9326C59.4751 28.9326 58.7709 29.223 58.2519 29.7419C57.7298 30.2619 57.4362 30.9683 57.4362 31.7061V47.1127H35.4935C33.9627 47.1127 32.7201 48.3543 32.7201 49.8862V77.3508H26.5405V73.5839C26.5405 72.0531 25.299 70.8115 23.7671 70.8115H20.9221C20.4379 68.1453 20.1573 65.4369 20.0912 62.7328C19.9287 56.1578 20.9709 49.7247 23.1875 43.6102C23.7042 42.1844 24.2914 40.7631 24.9317 39.3872C25.5785 37.9983 24.9761 36.3483 23.5883 35.7015C22.1994 35.0569 20.5494 35.6571 19.9037 37.046C19.1941 38.5692 18.5441 40.1423 17.9732 41.7197C15.5204 48.4854 14.3677 55.602 14.5454 62.8693C14.6115 65.5257 14.865 68.1843 15.2951 70.8115H2.77344C1.24155 70.8115 0 72.0531 0 73.585V122.335C0 123.867 1.24155 125.108 2.77344 125.108H23.7671C25.299 125.108 26.5405 123.867 26.5405 122.335V119.698H36.9734L79.2347 136.273C83.1804 137.821 87.3134 138.6 91.4682 138.6C94.2384 138.6 97.0205 138.254 99.7603 137.557L132.884 129.138C139.172 127.54 143.063 121.313 141.743 114.961ZM106.862 66.9536V110.295L99.4472 111.993C98.6499 112.175 97.8438 112.319 97.0335 112.432C93.9437 112.857 90.7911 112.767 87.7338 112.162C87.7208 112.158 87.7078 112.156 87.6948 112.153V107.947C89.8095 104.793 90.5105 100.793 89.4022 97.1418C89.0934 96.1235 88.6547 95.1409 88.0967 94.2341C87.97 94.0282 87.8378 93.8267 87.7002 93.6295C87.6991 93.6263 87.697 93.6241 87.6948 93.6209V66.9525H106.862V66.9536ZM62.983 34.4892L82.149 34.5532V89.2159L71.4377 84.7827L62.983 81.2823V34.4892ZM38.2669 52.6596H57.4329V78.9845L53.9932 77.5609C53.6563 77.4212 53.2955 77.3497 52.9326 77.3497H38.2669V52.6596ZM20.9936 119.561H5.54688V76.3573H18.6319C18.6373 76.3573 18.6438 76.3584 18.6503 76.3584C18.6557 76.3584 18.66 76.3573 18.6655 76.3573H20.9936V119.561ZM131.518 123.763L98.3942 132.181C92.6761 133.634 86.7512 133.263 81.2596 131.11L38.5107 114.343C38.1879 114.216 37.8444 114.152 37.4977 114.152H26.5405V82.8976H52.3801L70.3251 90.3253L80.1448 94.3901C83.6191 95.831 85.2821 99.9066 83.8575 103.377C83.5715 104.073 83.2172 104.735 82.747 105.326C81.0104 107.517 78.1514 108.484 75.4776 107.834C75.4559 107.828 75.4342 107.823 75.4126 107.817C75.2522 107.777 75.093 107.731 74.9348 107.679L56.2737 100.505C56.122 100.446 56.0419 100.416 56.0419 100.416C54.6129 99.8654 53.0084 100.579 52.4581 102.009C51.9088 103.438 52.6216 105.044 54.0517 105.593C54.0517 105.593 64.5734 109.639 72.5969 112.733C72.7583 112.796 72.9187 112.854 73.0801 112.908L79.2412 115.278C81.1035 115.994 82.9572 116.706 84.8954 117.202C88.1866 118.042 91.6025 118.38 94.9957 118.195C96.9089 118.091 98.8189 117.827 100.687 117.4L110.254 115.21C110.264 115.208 110.273 115.204 110.283 115.202L128.447 111.044C130.175 110.648 131.948 110.957 133.439 111.914C134.932 112.871 135.952 114.354 136.312 116.09C137.027 119.528 134.921 122.898 131.518 123.763Z" fill="#53565C"/>
<path d="M35.4664 23.3315C36.1295 23.3315 36.7947 23.0954 37.3244 22.6165C42.2733 18.1465 48.1831 14.5811 54.4179 12.305C61.1727 9.8392 68.5776 8.78724 75.833 9.26393C81.0256 9.60519 86.1131 10.7135 90.9536 12.5574C92.3837 13.1023 93.987 12.3851 94.532 10.9529C95.078 9.52177 94.3597 7.91946 92.9275 7.37452C87.5713 5.33344 81.9421 4.10706 76.197 3.72897C68.1778 3.20245 59.9886 4.36599 52.5155 7.09501C45.6177 9.61277 39.0795 13.5573 33.6074 18.4997C32.4698 19.5267 32.381 21.2807 33.408 22.4172C33.9551 23.0239 34.7092 23.3315 35.4664 23.3315Z" fill="#53565C"/>
<path d="M98.4256 43.1248C98.951 43.5809 99.5989 43.8041 100.243 43.8041C101.018 43.8041 101.789 43.4812 102.339 42.8507L125.157 16.5843C126.162 15.4283 126.039 13.6765 124.883 12.6722C123.726 11.6679 121.975 11.7904 120.971 12.9463L98.1515 39.2127C97.1461 40.3687 97.2696 42.1205 98.4256 43.1248Z" fill="#53565C"/>
<path d="M118.874 31.2673C115.035 31.2673 111.911 34.3906 111.911 38.2301C111.911 42.0696 115.035 45.193 118.874 45.193C122.714 45.193 125.837 42.0685 125.837 38.2301C125.837 34.3906 122.714 31.2673 118.874 31.2673ZM118.874 39.6461C118.093 39.6461 117.458 39.0112 117.458 38.2301C117.458 37.4501 118.093 36.8141 118.874 36.8141C119.654 36.8141 120.29 37.4501 120.29 38.2301C120.29 39.0112 119.654 39.6461 118.874 39.6461Z" fill="#53565C"/>
<path d="M103.473 25.0931C107.313 25.0931 110.436 21.9697 110.436 18.1303C110.436 14.2908 107.313 11.1674 103.473 11.1674C99.6336 11.1674 96.5102 14.2908 96.5102 18.1303C96.5102 21.9697 99.6336 25.0931 103.473 25.0931ZM103.473 16.7132C104.254 16.7132 104.889 17.3492 104.889 18.1303C104.889 18.9103 104.254 19.5462 103.473 19.5462C102.692 19.5462 102.057 18.9103 102.057 18.1303C102.057 17.3492 102.692 16.7132 103.473 16.7132Z" fill="#53565C"/>
<path d="M25.6066 29.8491C26.0508 30.9152 27.1439 31.6194 28.3021 31.5587C29.4472 31.4991 30.4504 30.7245 30.8047 29.6368C31.1622 28.5393 30.7722 27.2891 29.8545 26.5882C28.9196 25.8753 27.6065 25.8309 26.6272 26.482C25.5405 27.2046 25.105 28.6455 25.6066 29.8491Z" fill="#53565C"/>
</svg>
