<svg width="142" height="142" viewBox="0 0 142 142" fill="none" xmlns="http://www.w3.org/2000/svg">
<path d="M135.344 115.375H86.5312C85.3043 115.375 84.3125 116.369 84.3125 117.594V122.031H57.6875V117.594C57.6875 116.369 56.6957 115.375 55.4688 115.375H15.5312V55.4687C15.5312 54.2462 16.5253 53.25 17.75 53.25H22.1875C22.1875 64.5767 26.0747 75.0048 32.5735 83.2963L25.6332 86.7664C24.8811 87.1414 24.4062 87.9091 24.4062 88.75V93.5957C21.8303 94.5143 19.9688 96.9549 19.9688 99.8437C19.9688 103.514 22.9552 106.5 26.625 106.5C30.2948 106.5 33.2812 103.514 33.2812 99.8437C33.2812 96.9549 31.4197 94.5143 28.8438 93.5957V90.1212L35.5599 86.762C37.7321 89.0584 40.1217 91.1418 42.6998 92.9834V98.0332C40.1239 98.9518 38.2623 101.392 38.2623 104.281C38.2623 107.951 41.2488 110.937 44.9186 110.937C48.5884 110.937 51.5748 107.951 51.5748 104.281C51.5748 101.392 49.7133 98.9518 47.1373 98.0332V95.8078C53.5917 99.4421 60.9468 101.652 68.7812 102.005V104.689C66.2053 105.608 64.3438 108.049 64.3438 110.937C64.3438 114.607 67.3302 117.594 71 117.594C74.6698 117.594 77.6562 114.607 77.6562 110.937C77.6562 108.049 75.7947 105.608 73.2188 104.689V102.005C81.275 101.643 88.8232 99.3135 95.4062 95.495V98.0332C92.8303 98.9518 90.9688 101.392 90.9688 104.281C90.9688 107.951 93.9552 110.937 97.625 110.937C101.295 110.937 104.281 107.951 104.281 104.281C104.281 101.392 102.42 98.9518 99.8438 98.0332V92.5951C102.216 90.8512 104.421 88.8964 106.44 86.762L113.156 90.1212V93.5957C110.58 94.5143 108.719 96.9549 108.719 99.8437C108.719 103.514 111.705 106.5 115.375 106.5C119.045 106.5 122.031 103.514 122.031 99.8437C122.031 96.9549 120.17 94.5143 117.594 93.5957V88.75C117.594 87.9091 117.119 87.1414 116.367 86.7642L109.427 83.2941C115.925 75.0048 119.812 64.5767 119.812 53.25H124.25C125.475 53.25 126.469 54.2462 126.469 55.4687V108.719C126.469 109.943 127.461 110.937 128.688 110.937C129.914 110.937 130.906 109.943 130.906 108.719V55.4687C130.906 51.7989 127.92 48.8125 124.25 48.8125H119.602C117.352 23.9692 96.418 4.4375 71 4.4375C59.6755 4.4375 48.6417 8.40462 39.9286 15.6045C38.9834 16.3855 38.8503 17.7833 39.6313 18.7285C40.4101 19.6714 41.8057 19.8068 42.7531 19.0258C50.6762 12.4805 60.705 8.875 71 8.875C95.4684 8.875 115.375 28.7816 115.375 53.25C115.375 77.7184 95.4684 97.625 71 97.625C46.5316 97.625 26.625 77.7184 26.625 53.25C26.625 42.9594 30.2305 32.9262 36.7736 25.0031C37.5568 24.0579 37.4214 22.6601 36.4762 21.8791C35.5266 21.0959 34.131 21.2312 33.3545 22.1764C27.0976 29.749 23.2924 39.0722 22.3983 48.8103H17.75C14.0802 48.8103 11.0938 51.7967 11.0938 55.4665V115.373H6.65625C5.42928 115.373 4.4375 116.367 4.4375 117.592V126.467C4.4375 132.584 9.41416 137.56 15.5312 137.56H82.0938C83.3207 137.56 84.3125 136.566 84.3125 135.342C84.3125 134.117 83.3207 133.123 82.0938 133.123H15.5312C11.8614 133.123 8.875 130.136 8.875 126.467V119.81H53.25V124.248C53.25 125.473 54.2418 126.467 55.4688 126.467H86.5312C87.7582 126.467 88.75 125.473 88.75 124.248V119.81H133.125V126.467C133.125 130.136 130.139 133.123 126.469 133.123H90.9688C89.7418 133.123 88.75 134.117 88.75 135.342C88.75 136.566 89.7418 137.56 90.9688 137.56H126.469C132.586 137.56 137.562 132.584 137.562 126.467V117.592C137.562 116.369 136.571 115.375 135.344 115.375ZM26.625 102.062C25.4002 102.062 24.4062 101.066 24.4062 99.8437C24.4062 98.6212 25.4002 97.625 26.625 97.625C27.8498 97.625 28.8438 98.6212 28.8438 99.8437C28.8438 101.066 27.8498 102.062 26.625 102.062ZM44.9186 106.5C43.6938 106.5 42.6998 105.504 42.6998 104.281C42.6998 103.059 43.6938 102.062 44.9186 102.062C46.1433 102.062 47.1373 103.059 47.1373 104.281C47.1373 105.504 46.1433 106.5 44.9186 106.5ZM97.625 106.5C96.4003 106.5 95.4062 105.504 95.4062 104.281C95.4062 103.059 96.4003 102.062 97.625 102.062C98.8497 102.062 99.8438 103.059 99.8438 104.281C99.8438 105.504 98.8497 106.5 97.625 106.5ZM115.375 102.062C114.15 102.062 113.156 101.066 113.156 99.8437C113.156 98.6212 114.15 97.625 115.375 97.625C116.6 97.625 117.594 98.6212 117.594 99.8437C117.594 101.066 116.6 102.062 115.375 102.062ZM71 113.156C69.7753 113.156 68.7812 112.16 68.7812 110.937C68.7812 109.715 69.7753 108.719 71 108.719C72.2247 108.719 73.2188 109.715 73.2188 110.937C73.2188 112.16 72.2247 113.156 71 113.156Z" fill="#53565C"/>
<path d="M115.375 128.688C116.6 128.688 117.594 127.694 117.594 126.469C117.594 125.243 116.6 124.25 115.375 124.25C114.15 124.25 113.156 125.243 113.156 126.469C113.156 127.694 114.15 128.688 115.375 128.688Z" fill="#53565C"/>
<path d="M124.25 128.688C125.475 128.688 126.469 127.694 126.469 126.469C126.469 125.243 125.475 124.25 124.25 124.25C123.025 124.25 122.031 125.243 122.031 126.469C122.031 127.694 123.025 128.688 124.25 128.688Z" fill="#53565C"/>
<path d="M17.75 128.688C18.9754 128.688 19.9688 127.694 19.9688 126.469C19.9688 125.243 18.9754 124.25 17.75 124.25C16.5246 124.25 15.5312 125.243 15.5312 126.469C15.5312 127.694 16.5246 128.688 17.75 128.688Z" fill="#53565C"/>
<path d="M26.625 128.688C27.8504 128.688 28.8438 127.694 28.8438 126.469C28.8438 125.243 27.8504 124.25 26.625 124.25C25.3996 124.25 24.4062 125.243 24.4062 126.469C24.4062 127.694 25.3996 128.688 26.625 128.688Z" fill="#53565C"/>
<path d="M42.1562 55.4688C43.3816 55.4688 44.375 54.4754 44.375 53.25C44.375 52.0246 43.3816 51.0312 42.1562 51.0312C40.9309 51.0312 39.9375 52.0246 39.9375 53.25C39.9375 54.4754 40.9309 55.4688 42.1562 55.4688Z" fill="#53565C"/>
<path d="M99.8438 55.4688C101.069 55.4688 102.062 54.4754 102.062 53.25C102.062 52.0246 101.069 51.0312 99.8438 51.0312C98.6184 51.0312 97.625 52.0246 97.625 53.25C97.625 54.4754 98.6184 55.4688 99.8438 55.4688Z" fill="#53565C"/>
<path d="M102.344 77.9513C107.967 70.8269 110.938 62.2848 110.938 53.25C110.938 31.2289 93.0211 13.3125 71 13.3125C48.9789 13.3125 31.0625 31.2289 31.0625 53.25C31.0625 75.2711 48.9789 93.1875 71 93.1875C80.0348 93.1875 88.5769 90.2166 95.7013 84.5943C96.6643 83.8355 96.8285 82.4399 96.0697 81.4769C95.3131 80.5162 93.9175 80.352 92.9545 81.1086C86.6178 86.1097 79.0274 88.75 71 88.75C51.4262 88.75 35.5 72.8238 35.5 53.25C35.5 33.6762 51.4262 17.75 71 17.75C90.5738 17.75 106.5 33.6762 106.5 53.25C106.5 61.2774 103.86 68.87 98.8608 75.2023C98.102 76.1653 98.2662 77.5586 99.2292 78.3197C100.192 79.0785 101.585 78.9121 102.344 77.9513Z" fill="#53565C"/>
<path d="M50.5232 42.2161C49.5203 42.4513 48.8125 43.3455 48.8125 44.375V62.125C48.8125 63.3497 49.8043 64.3437 51.0312 64.3437C52.2582 64.3437 53.25 63.3497 53.25 62.125V53.7736L57.9205 63.1168C58.3021 63.8822 59.0809 64.3437 59.9062 64.3437C60.0749 64.3437 60.2457 64.3238 60.4143 64.2838C61.4172 64.0486 62.125 63.1545 62.125 62.125V44.375C62.125 43.1502 61.1332 42.1562 59.9062 42.1562C58.6793 42.1562 57.6875 43.1502 57.6875 44.375V52.7264L53.017 43.3832C52.5555 42.4624 51.5172 41.9787 50.5232 42.2161Z" fill="#53565C"/>
<path d="M77.6562 46.5938C78.8832 46.5938 79.875 45.5998 79.875 44.375C79.875 43.1503 78.8832 42.1562 77.6562 42.1562H68.7812C67.5543 42.1562 66.5625 43.1503 66.5625 44.375V62.125C66.5625 63.3498 67.5543 64.3438 68.7812 64.3438C70.0082 64.3438 71 63.3498 71 62.125V55.4688H75.4375C76.6645 55.4688 77.6562 54.4747 77.6562 53.25C77.6562 52.0253 76.6645 51.0312 75.4375 51.0312H71V46.5938H77.6562Z" fill="#53565C"/>
<path d="M90.9688 64.3438C92.1957 64.3438 93.1875 63.3498 93.1875 62.125V46.5938H95.4062C96.6332 46.5938 97.625 45.5998 97.625 44.375C97.625 43.1503 96.6332 42.1562 95.4062 42.1562H86.5312C85.3043 42.1562 84.3125 43.1503 84.3125 44.375C84.3125 45.5998 85.3043 46.5938 86.5312 46.5938H88.75V62.125C88.75 63.3498 89.7418 64.3438 90.9688 64.3438Z" fill="#53565C"/>
<path d="M84.3103 37.7188C85.0269 37.7188 85.7325 37.3726 86.1585 36.7314C86.8397 35.713 86.5645 34.3329 85.5439 33.654L72.2314 24.779C71.4859 24.282 70.5163 24.282 69.7708 24.779L56.4583 33.654C55.4377 34.3329 55.1626 35.7108 55.8437 36.7314C56.5227 37.7498 57.8961 38.0249 58.9211 37.346L71 29.2919L83.0811 37.346C83.4605 37.5989 83.8887 37.7188 84.3103 37.7188Z" fill="#53565C"/>
<path d="M69.7686 81.721C70.1413 81.9695 70.5718 82.0938 71 82.0938C71.4282 82.0938 71.8587 81.9695 72.2314 81.721L85.5439 72.846C86.5645 72.1671 86.8397 70.7892 86.1585 69.7686C85.4796 68.7502 84.1017 68.4729 83.0811 69.154L71 77.2081L58.9189 69.154C57.8938 68.4729 56.5204 68.7502 55.8415 69.7686C55.1603 70.787 55.4355 72.1671 56.4561 72.846L69.7686 81.721Z" fill="#53565C"/>
</svg>
