<svg width="150" height="150" viewBox="0 0 150 150" fill="none" xmlns="http://www.w3.org/2000/svg">
<path d="M7.03123 23.4375C11.3883 23.4375 15.0258 20.4375 16.0734 16.4062H57.9422C57.1289 17.8008 55.6336 18.75 53.9062 18.75H51.5625C50.2664 18.75 49.2187 19.8 49.2187 21.0938V28.5891L29.9601 32.8687C29.2898 33.0164 28.718 33.4547 28.3945 34.0617C28.0734 34.6688 28.0383 35.3883 28.2914 36.0258L29.3414 38.6484L10.9898 44.6437C10.0687 44.9438 9.42889 45.7781 9.37733 46.7438L4.68983 133.462C4.65467 134.105 4.8867 134.733 5.32967 135.202C5.77264 135.673 6.38904 135.938 7.03123 135.938H16.4062V142.969C16.4062 144.262 17.4539 145.312 18.75 145.312H84.375C85.6711 145.312 86.7187 144.262 86.7187 142.969V135.938H96.0937C96.7359 135.938 97.3523 135.673 97.7953 135.206C98.2383 134.738 98.4703 134.109 98.4351 133.467L94.0945 53.1773L97.9266 43.0945L114.933 48.607L119.4 131.25H105.565L107.81 75.0938L103.127 74.9062L100.784 133.5C100.758 134.137 100.995 134.759 101.435 135.218C101.876 135.677 102.487 135.938 103.125 135.938H121.875C122.517 135.938 123.134 135.673 123.577 135.206C124.02 134.738 124.252 134.109 124.216 133.467L119.789 51.5625H131.25V98.4375H124.219V103.125H133.594C134.89 103.125 135.937 102.075 135.937 100.781V51.5625H142.969C143.782 51.5625 144.534 51.1406 144.963 50.4516C145.392 49.7602 145.43 48.8977 145.066 48.1711L138.035 34.1086C137.719 33.4781 137.135 33.0234 136.446 32.8687L117.187 28.5891V23.4375C121.545 23.4375 125.182 20.4375 126.23 16.4062H133.927C134.974 20.4375 138.612 23.4375 142.969 23.4375C144.265 23.4375 145.312 22.3875 145.312 21.0938V7.03125C145.312 5.7375 144.265 4.6875 142.969 4.6875C138.612 4.6875 134.974 7.6875 133.927 11.7188H126.23C125.182 7.6875 121.545 4.6875 117.187 4.6875H110.156V9.375H117.187C118.915 9.375 120.41 10.3242 121.223 11.7188H88.7297C87.682 7.6875 84.0445 4.6875 79.6875 4.6875H72.6562V9.375H79.6875C81.4148 9.375 82.9101 10.3242 83.7234 11.7188H62.9484C61.9008 7.6875 58.2633 4.6875 53.9062 4.6875H46.875V9.375H53.9062C55.6336 9.375 57.1289 10.3242 57.9422 11.7188H16.0734C15.0258 7.6875 11.3883 4.6875 7.03123 4.6875C5.73514 4.6875 4.68748 5.7375 4.68748 7.03125V21.0938C4.68748 22.3875 5.73514 23.4375 7.03123 23.4375ZM140.625 10.0055V18.1219C139.223 17.3086 138.281 15.7945 138.281 14.0625C138.281 12.3305 139.223 10.8164 140.625 10.0055ZM62.9484 16.4062H83.7234C82.9101 17.8008 81.4148 18.75 79.6875 18.75H77.3437C76.0476 18.75 75 19.8 75 21.0938V30.4688C75 31.568 75.7617 32.5195 76.8351 32.7563L83.182 34.1672L80.0344 40.725L73.7672 38.693L74.8336 36.0258C75.0867 35.3883 75.0515 34.6688 74.7304 34.0617C74.407 33.4523 73.8351 33.0164 73.1648 32.8687L53.9062 28.5891V23.4375C58.2633 23.4375 61.9008 20.4375 62.9484 16.4062ZM51.5625 32.8687L69.457 36.8461L62.2781 54.7898L55.6594 49.4953L64.4883 44.1984C65.107 43.8281 65.5195 43.1906 65.6086 42.4758C65.6976 41.7586 65.4515 41.0438 64.9406 40.5328L60.2531 35.8453L56.939 39.1594L59.5054 41.7234L51.5625 46.4859L43.6219 41.7211L46.1883 39.157L42.8742 35.843L38.1867 40.5305C37.6758 41.0414 37.4297 41.7562 37.5187 42.4734C37.6054 43.1906 38.0203 43.8258 38.639 44.1961L47.4679 49.493L40.8492 54.7875L33.6703 36.8438L51.5625 32.8687ZM21.0937 135.938H25.7812C26.4187 135.938 27.0281 135.677 27.4711 135.218C27.914 134.759 28.1484 134.137 28.1226 133.5L25.7789 74.9062L21.0961 75.0938L23.3414 131.25H9.50623L13.9734 48.6047L31.0875 43.0125L37.6687 59.4633C37.9453 60.1523 38.5289 60.6703 39.2484 60.8578C39.968 61.0523 40.7297 60.8859 41.3109 60.4219L49.2211 54.0938V140.625H21.0937V135.938ZM79.7836 131.25L82.0289 75.0938L77.3461 74.9062L75.0023 133.5C74.9765 134.137 75.2133 134.759 75.6539 135.218C76.0945 135.677 76.7062 135.938 77.3437 135.938H82.0312V140.625H53.9062V54.0961L61.8164 60.4242C62.2383 60.7594 62.7539 60.9375 63.2812 60.9375C63.4804 60.9375 63.682 60.9117 63.8789 60.8602C64.5984 60.6703 65.182 60.1547 65.4586 59.4656L72.0234 43.057L89.1539 48.6117L93.6187 131.25H79.7836ZM92.2922 44.7281C92.2359 44.7047 92.189 44.6648 92.1281 44.6461L84.532 42.1828L87.8789 35.2102L95.2828 36.8555L92.2922 44.7281ZM117.187 18.75H114.844C113.548 18.75 112.5 19.8 112.5 21.0938V28.5891L103.788 30.525L104.805 35.1L114.844 32.8687L134.339 37.2023L139.177 46.875H119.536L119.529 46.7484C119.477 45.7805 118.833 44.9437 117.912 44.6461L99.5953 38.7094L100.629 35.9906C100.873 35.3555 100.823 34.6453 100.5 34.0453C100.177 33.4477 99.6094 33.0187 98.9461 32.8711L79.6875 28.5891V23.4375C84.0445 23.4375 87.682 20.4375 88.7297 16.4062H121.223C120.41 17.8008 118.915 18.75 117.187 18.75ZM9.37498 10.0055C10.7765 10.8164 11.7187 12.3305 11.7187 14.0625C11.7187 15.7945 10.7765 17.3086 9.37498 18.1195V10.0055Z" fill="#53565C"/>
<path d="M86.7188 121.875H91.4062V126.562H86.7188V121.875Z" fill="#53565C"/>
<path d="M11.7188 121.875H16.4062V126.562H11.7188V121.875Z" fill="#53565C"/>
<path d="M39.8438 70.3125H44.5312V75H39.8438V70.3125Z" fill="#53565C"/>
<path d="M39.8438 93.75H44.5312V98.4375H39.8438V93.75Z" fill="#53565C"/>
<path d="M39.8438 117.188H44.5312V121.875H39.8438V117.188Z" fill="#53565C"/>
</svg>
