<svg width="121" height="121" viewBox="0 0 121 121" fill="none" xmlns="http://www.w3.org/2000/svg">
<circle cx="60.2831" cy="60.2831" r="60.2831" fill="#F0FDF4"/>
<g clip-path="url(#clip0_215_4855)">
<path d="M20.2881 50.6895H24.4421V67.1816H20.2881V50.6895Z" fill="#1B479E"/>
<path d="M47.4443 44.9856H51.5983V67.1817H47.4443V44.9856Z" fill="#1B479E"/>
<path d="M22.3519 44.9856C23.4993 44.9856 24.4424 45.9246 24.4424 47.0665C24.4424 48.2091 23.4993 49.1219 22.3519 49.1219C21.2321 49.1219 20.2891 48.2091 20.2891 47.0665C20.2891 45.9246 21.2321 44.9856 22.3519 44.9856Z" fill="#1B479E"/>
<path d="M75.313 50.6895H79.4406V67.1816H75.313V50.6895Z" fill="#1B479E"/>
<path d="M77.3762 44.9856C78.55 44.9856 79.4404 45.9246 79.4404 47.0665C79.4404 48.2091 78.5507 49.1219 77.3762 49.1219C76.2551 49.1219 75.312 48.2091 75.312 47.0665C75.3127 45.9246 76.2551 44.9856 77.3762 44.9856Z" fill="#1B479E"/>
<path d="M53.3027 50.6895H57.4567V67.1816H53.3027V50.6895Z" fill="#1B479E"/>
<path d="M69.5187 51.3684C68.5722 50.9309 67.4815 50.6901 66.3708 50.6901C65.2608 50.6901 64.2228 50.9309 63.2749 51.3684V50.6895H59.1216V57.9078V67.1809H63.2749V57.9078C63.2749 56.2078 64.6912 54.7989 66.3708 54.7989C68.1038 54.7989 69.5187 56.2078 69.5187 57.9078V67.1809H73.6464V57.9078C73.647 55.0279 71.973 52.5427 69.5187 51.3684Z" fill="#1B479E"/>
<path d="M55.3669 44.9856C56.5137 44.9856 57.4567 45.9246 57.4567 47.0665C57.4567 48.2091 56.5137 49.1219 55.3669 49.1219C54.2465 49.1219 53.3027 48.2091 53.3027 47.0665C53.3027 45.9246 54.2465 44.9856 55.3669 44.9856Z" fill="#1B479E"/>
<path d="M101.359 50.6894H97.721V47.0664H93.5933V50.6894H89.9556V54.7995H93.5933V58.4218H97.721V54.7995H101.359V50.6894Z" fill="#45C3F2"/>
<path d="M97.7158 59.4491H93.5936H93.5299C93.2853 61.4941 91.5426 63.0713 89.4133 63.0713C87.1198 63.0713 85.2857 61.1919 85.2857 58.935C85.2857 56.841 86.871 55.1051 88.9234 54.836V50.6948C84.5747 50.968 81.1587 54.5552 81.1587 58.9357C81.1587 63.4784 84.8249 67.1821 89.4133 67.1821C90.9204 67.1821 92.3429 66.7854 93.5936 66.0768V75.0498H97.7213V59.4491H97.7158Z" fill="#1B479E"/>
<path d="M42.6576 60.5152C42.5301 60.705 42.3742 60.8657 42.2148 61.0237C40.8768 62.3574 39.1293 63.0716 37.266 63.0716C35.3758 63.0716 33.6283 62.3574 32.3166 61.0237C30.9786 59.7183 30.2607 57.952 30.2607 56.096C30.2607 54.2407 30.9786 52.4744 32.3166 51.1683C33.6283 49.8622 35.3758 49.1212 37.266 49.1212C39.1293 49.1212 40.8768 49.8622 42.2148 51.1683C42.3742 51.327 42.5308 51.4878 42.6576 51.6775L45.8152 48.9639C43.7607 46.5518 40.6793 44.9856 37.266 44.9856C31.0964 44.9856 26.1074 49.9795 26.1074 56.0967C26.1074 62.2139 31.0964 67.1817 37.266 67.1817C40.6793 67.1817 43.7614 65.6679 45.8152 63.2289L42.6576 60.5152Z" fill="#1B479E"/>
<path d="M21.8776 70.8096H20.2881V70.1672H24.2113V70.8096H22.619V75.0501H21.8776V70.8096Z" fill="#1B479E"/>
<path d="M28.4451 72.6952V75.0494H27.7668V72.8408C27.7668 72.2909 27.4127 71.9004 26.9034 71.9004C26.3484 71.9004 25.9042 72.2923 25.9042 72.767V75.05H25.1968V70.0872H25.9042V71.9087C26.11 71.5754 26.5764 71.278 27.0614 71.278C27.8867 71.2773 28.4451 71.8928 28.4451 72.6952Z" fill="#1B479E"/>
<path d="M32.3947 74.1066L32.8319 74.5737C32.4855 74.8994 31.8494 75.1305 31.3331 75.1305C30.3049 75.1305 29.4346 74.3378 29.4346 73.1731C29.4346 72.0712 30.2619 71.2771 31.2874 71.2771C32.4016 71.2771 33.0398 72.1389 33.0398 73.4691H30.1469C30.2564 74.0404 30.6964 74.5027 31.3304 74.5027C31.7233 74.502 32.1626 74.3398 32.3947 74.1066ZM30.1503 72.9144H32.3642C32.2852 72.3045 31.9311 71.905 31.2978 71.905C30.7386 71.905 30.2674 72.2948 30.1503 72.9144Z" fill="#1B479E"/>
<path d="M40.9468 70.1663L38.8479 75.0491H38.0275L35.9287 70.1663H36.7228L38.4246 74.1121L40.1271 70.1663H40.9468Z" fill="#1B479E"/>
<path d="M41.7407 70.3292C41.7407 70.0981 41.9077 69.927 42.1738 69.927C42.3817 69.927 42.5778 70.0981 42.5778 70.3292C42.5778 70.5631 42.3817 70.7867 42.1738 70.7867C41.9077 70.7867 41.7407 70.5625 41.7407 70.3292ZM41.8169 71.3573H42.5008V75.05H41.8169V71.3573Z" fill="#1B479E"/>
<path d="M45.8189 71.2771V71.9001C45.0636 71.9001 44.5134 72.3017 44.4393 72.9358V75.0491H43.7554V71.3571H44.4393V72.0643C44.6762 71.5883 45.1855 71.2771 45.8189 71.2771Z" fill="#1B479E"/>
<path d="M48.6684 74.8858C48.4703 75.0451 48.1952 75.13 47.9229 75.13C47.3637 75.13 46.9666 74.7305 46.9666 74.1137V71.9755H46.4116V71.3573H46.9666V70.3914H47.645V71.3573H48.5153V71.9762H47.645V74.0971C47.645 74.34 47.8342 74.507 48.0351 74.507C48.1931 74.507 48.3192 74.4352 48.3982 74.3566L48.6684 74.8858Z" fill="#1B479E"/>
<path d="M52.7925 71.3574V75.0501H52.1086V74.505C51.8772 74.8886 51.4372 75.1308 50.9279 75.1308C50.1297 75.1308 49.5435 74.514 49.5435 73.7123V71.3574H50.2488V73.5667C50.2488 74.1166 50.5766 74.5064 51.0859 74.5064C51.6 74.5064 52.0372 74.1856 52.1086 73.7254V71.3574H52.7925Z" fill="#1B479E"/>
<path d="M57.0982 72.8378V75.0491H56.3928V74.5144C56.1178 74.9042 55.6327 75.1312 55.1664 75.1312C54.4042 75.1312 53.8159 74.6641 53.8159 73.9528C53.8159 73.2366 54.4853 72.7578 55.2835 72.7578C55.6417 72.7578 56.0367 72.8357 56.3928 72.9296V72.8385C56.3928 72.37 56.1898 71.8919 55.4436 71.8919C55.0846 71.8919 54.7285 71.9912 54.4111 72.1513L54.1672 71.6628C54.6862 71.4179 55.1574 71.2771 55.5565 71.2771C56.546 71.2771 57.0982 71.905 57.0982 72.8378ZM56.3928 73.8783V73.4001C56.1088 73.3166 55.7575 73.2476 55.3985 73.2476C54.8913 73.2476 54.4894 73.5498 54.4894 73.9452C54.4894 74.3405 54.8463 74.5786 55.3168 74.5786C55.7595 74.5779 56.2737 74.3447 56.3928 73.8783Z" fill="#1B479E"/>
<path d="M58.2891 70.0864H58.9965V75.0493H58.2891V70.0864Z" fill="#1B479E"/>
<path d="M66.5272 70.1663V75.0491H65.8128V72.9137H63.1285V75.0491H62.4141V70.1663H63.1285V72.2189H65.8128V70.1663H66.5272Z" fill="#1B479E"/>
<path d="M67.5557 73.1761C67.5557 72.146 68.4336 71.2766 69.5235 71.2766C70.5587 71.2766 71.4339 72.146 71.4339 73.1761C71.4339 74.2593 70.5587 75.1307 69.5235 75.1307C68.4329 75.1307 67.5557 74.2593 67.5557 73.1761ZM70.723 73.1761C70.723 72.5199 70.1659 71.9003 69.5235 71.9003C68.823 71.9003 68.2666 72.5192 68.2666 73.1761C68.2666 73.9406 68.823 74.507 69.5235 74.507C70.1659 74.507 70.723 73.9406 70.723 73.1761Z" fill="#1B479E"/>
<path d="M72.2153 74.5808L72.5375 74.0979C72.9325 74.3497 73.3365 74.5098 73.7979 74.5098C74.1991 74.5098 74.4527 74.3407 74.4527 74.0358C74.4527 73.7122 74.1167 73.6245 73.6469 73.4762C72.7842 73.2409 72.3802 73.0029 72.3802 72.3833C72.3782 71.7382 72.9353 71.2766 73.7238 71.2766C74.1998 71.2766 74.6779 71.436 75.0743 71.7327L74.759 72.2212C74.4292 71.99 74.0411 71.8976 73.7238 71.8976C73.3385 71.8976 73.0849 72.0549 73.0849 72.304C73.0849 72.6089 73.3198 72.691 73.8956 72.8594C74.5199 73.076 75.1574 73.2478 75.1574 73.964C75.1574 74.6685 74.5913 75.1307 73.7959 75.1307C73.2457 75.1307 72.6269 74.9086 72.2153 74.5808Z" fill="#1B479E"/>
<path d="M79.9039 73.1761C79.9039 74.3407 79.1874 75.1307 78.2305 75.1307C77.6186 75.1307 77.2029 74.8306 76.8959 74.4166V76.245H76.1885V71.3573H76.8959V71.988C77.2022 71.5767 77.6186 71.2766 78.2305 71.2766C79.1874 71.2773 79.9039 72.0673 79.9039 73.1761ZM79.1916 73.1761C79.1916 72.4482 78.7155 71.9003 78.0157 71.9003C77.3727 71.9003 76.8966 72.4482 76.8966 73.1761C76.8966 73.9571 77.3734 74.507 78.0157 74.507C78.7155 74.507 79.1916 73.9564 79.1916 73.1761Z" fill="#1B479E"/>
<path d="M80.855 70.3292C80.855 70.0981 81.0227 69.927 81.2624 69.927C81.4966 69.927 81.7183 70.0981 81.7183 70.3292C81.7183 70.5631 81.4966 70.7867 81.2624 70.7867C81.0227 70.7867 80.855 70.5625 80.855 70.3292ZM80.9319 71.3573H81.6414V75.05H80.9319V71.3573Z" fill="#1B479E"/>
<path d="M84.812 74.8858C84.5868 75.0451 84.338 75.13 84.092 75.13C83.5321 75.13 83.0831 74.7305 83.0831 74.1137V71.9755H82.5288V71.3573H83.0831V70.3914H83.7885V71.3573H84.6588V71.9762H83.7885V74.0971C83.7885 74.34 83.9507 74.507 84.1786 74.507C84.3366 74.507 84.4897 74.4352 84.5687 74.3566L84.812 74.8858Z" fill="#1B479E"/>
<path d="M88.7778 72.8378V75.0491H88.1257V74.5144C87.8243 74.9042 87.3386 75.1312 86.8723 75.1312C86.0837 75.1312 85.5225 74.6641 85.5225 73.9528C85.5225 73.2366 86.1655 72.7578 87.0157 72.7578C87.3476 72.7578 87.7425 72.8357 88.1257 72.9296V72.8385C88.1257 72.37 87.8964 71.8919 87.1757 71.8919C86.7912 71.8919 86.4087 71.9912 86.0913 72.1513L85.8467 71.6628C86.3921 71.4179 86.8632 71.2771 87.2631 71.2771C88.2262 71.2771 88.7778 71.905 88.7778 72.8378ZM88.1257 73.8783V73.4001C87.8153 73.3166 87.437 73.2476 87.1044 73.2476C86.6242 73.2476 86.169 73.5498 86.169 73.9452C86.169 74.3405 86.5514 74.5786 87.0219 74.5786C87.4924 74.5779 87.9788 74.3447 88.1257 73.8783Z" fill="#1B479E"/>
<path d="M89.9688 70.0864H90.6762V75.0493H89.9688V70.0864Z" fill="#1B479E"/>
</g>
<defs>
<clipPath id="clip0_215_4855">
<rect width="83.1492" height="32.4282" fill="white" transform="translate(19.1245 44.0691)"/>
</clipPath>
</defs>
</svg>
